<svg width="226" height="448" viewBox="0 0 226 448" fill="none" xmlns="http://www.w3.org/2000/svg">
<path d="M143.856 82.8885C97.0478 125.16 150.2 185.776 198.096 147.792C244.896 105.464 191.792 44.8885 143.856 82.8885ZM187.832 135.504C155.936 160.928 123.448 122.048 154.128 95.1685C185.032 70.1285 219 107.544 187.832 135.504ZM225.032 230.744C224.609 226.758 223.39 222.898 221.447 219.392C219.504 215.887 216.876 212.807 213.72 210.336L164.384 171.496C162.713 170.227 160.61 169.665 158.528 169.932C156.447 170.199 154.553 171.273 153.256 172.923C151.959 174.572 151.362 176.666 151.594 178.751C151.826 180.837 152.868 182.748 154.496 184.072L203.824 222.904C205.287 224.065 206.506 225.504 207.41 227.138C208.315 228.771 208.888 230.568 209.095 232.424C209.302 234.28 209.141 236.159 208.619 237.952C208.098 239.745 207.226 241.417 206.056 242.872L151.952 308.928L142.6 284.104L172.936 247.64C174.036 246.296 174.86 244.748 175.361 243.084C175.861 241.421 176.028 239.675 175.852 237.947C175.676 236.218 175.16 234.542 174.334 233.014C173.508 231.485 172.389 230.135 171.04 229.04L138.496 202.968C136.296 201.218 133.687 200.057 130.915 199.595C128.142 199.133 125.297 199.385 122.649 200.328C120.001 201.27 117.636 202.871 115.779 204.981C113.921 207.09 112.632 209.638 112.032 212.384C106.72 236.416 117.072 263.032 125.984 285.368L172.48 408.832C173.273 410.957 173.636 413.218 173.549 415.483C173.461 417.749 172.924 419.975 171.969 422.032C171.014 424.089 169.66 425.935 167.985 427.464C166.31 428.993 164.349 430.174 162.214 430.939C160.079 431.703 157.814 432.036 155.549 431.918C153.285 431.8 151.066 431.233 149.023 430.25C146.979 429.268 145.151 427.889 143.645 426.194C142.138 424.499 140.984 422.521 140.248 420.376L94.8078 287.176C94.2263 285.564 93.1446 284.18 91.7207 283.225C90.2968 282.271 88.6052 281.797 86.8927 281.872C85.1802 281.947 83.5365 282.567 82.2015 283.642C80.8665 284.718 79.9101 286.191 79.4718 287.848L47.3838 418.888C46.4323 422.521 44.2002 425.686 41.0987 427.803C37.9973 429.919 34.2354 430.843 30.5064 430.405C26.7774 429.966 23.3324 428.195 20.8063 425.417C18.2802 422.639 16.8431 419.042 16.7598 415.288C16.7523 414.431 16.822 413.574 16.9678 412.728L48.2478 222.824C48.5078 220.771 47.9618 218.697 46.7243 217.037C45.4869 215.378 43.6545 214.263 41.6121 213.926C39.5697 213.589 37.4763 214.058 35.7719 215.232C34.0674 216.407 32.8846 218.196 32.4718 220.224L1.20782 410C-4.40818 449.472 52.3998 461.712 62.9278 422.704L88.5038 318.24L125.096 425.504C127.279 431.744 131.272 437.192 136.565 441.152C141.859 445.112 148.212 447.405 154.815 447.737C161.417 448.069 167.969 446.426 173.633 443.018C179.298 439.609 183.817 434.59 186.616 428.6C188.44 424.631 189.453 420.338 189.596 415.972C189.739 411.607 189.009 407.256 187.448 403.176L158.464 326.224L218.432 253.008C220.968 249.929 222.859 246.371 223.992 242.547C225.126 238.722 225.48 234.708 225.032 230.744ZM132.168 256.208C126.721 243.338 125.429 229.088 128.472 215.448L158.744 239.688L136.144 266.848L132.168 256.208Z" fill="black"/>
<path d="M44.2818 197.896C46.375 198.231 48.5159 197.724 50.2366 196.486C51.9574 195.248 53.1183 193.379 53.4658 191.288L59.0578 157.048C59.0578 155.112 59.2738 65.6562 59.1538 63.8482C59.1274 58.7098 60.7653 53.701 63.8225 49.571C66.8796 45.441 71.1917 42.4117 76.1138 40.9362L156.482 16.6802C158.472 16.0616 160.569 15.8582 162.641 16.0825C164.713 16.3068 166.718 16.954 168.53 17.9842C171.091 19.4833 173.17 21.6827 174.523 24.3235C175.876 26.9644 176.447 29.9369 176.168 32.8911C175.889 35.8453 174.772 38.6583 172.948 40.9991C171.124 43.3399 168.67 45.1111 165.874 46.1042L107.93 65.6882C102.441 67.5312 97.7452 71.1914 94.6179 76.0642C91.4906 80.9369 90.1191 86.7306 90.7298 92.4882C92.1538 109.784 94.4578 129.832 106.97 142.848C108.375 144.401 110.333 145.341 112.424 145.466C114.514 145.591 116.57 144.892 118.151 143.518C119.731 142.144 120.71 140.204 120.876 138.117C121.043 136.029 120.384 133.96 119.042 132.352C108.858 122.064 108.034 104.376 106.642 90.7362C106.414 88.6107 106.921 86.4713 108.078 84.6739C109.235 82.8764 110.973 81.5292 113.002 80.8562L171.066 61.2322C178.861 58.566 185.299 52.9461 188.993 45.5819C192.688 38.2176 193.344 29.6974 190.82 21.8544C188.297 14.0114 182.796 7.47228 175.5 3.64403C168.204 -0.184211 159.698 -0.995688 151.81 1.38419L71.4818 25.6242C63.2679 28.0824 56.0704 33.1335 50.9657 40.022C45.8609 46.9105 43.1231 55.2664 43.1618 63.8402V155.12L37.6658 188.72C37.3263 190.814 37.8314 192.957 39.0703 194.679C40.3091 196.401 42.1806 197.561 44.2738 197.904L44.2818 197.896Z" fill="black"/>
</svg>
