<svg width="226" height="449" viewBox="0 0 226 449" fill="none" xmlns="http://www.w3.org/2000/svg">
<path d="M149.283 81.7994C102.555 123.895 155.595 184.647 203.419 146.559C250.187 104.335 197.019 43.9194 149.283 81.7994Z" fill="black"/>
<path d="M225.001 231.72C224.582 227.738 223.367 223.88 221.43 220.376C219.492 216.872 216.871 213.792 213.721 211.32L138.121 149.72C138.017 149.696 118.977 133.288 119.001 133.16C108.737 122.68 108.153 105.408 106.681 91.7199C106.451 89.5943 106.951 87.4536 108.1 85.6505C109.249 83.8473 110.978 82.4892 113.001 81.7999L171.001 62.1999C178.859 59.5908 185.369 53.9864 189.117 46.6046C192.865 39.2227 193.549 30.6598 191.02 22.7767C188.49 14.8935 182.952 8.32699 175.609 4.50403C168.265 0.681059 159.71 -0.0894625 151.801 2.35989L71.4814 26.5999C63.271 29.0718 56.0787 34.1297 50.9757 41.0203C45.8726 47.9109 43.1318 56.2655 43.1614 64.8399V156.04L1.24144 411C-0.0437993 419.015 1.81279 427.217 6.42447 433.897C11.0362 440.578 18.0473 445.221 25.9976 446.861C33.9478 448.5 42.2241 447.009 49.1025 442.699C55.9808 438.388 60.9308 431.59 62.9214 423.72L88.4414 319.24L125.081 426.52C140.657 468.088 201.929 446.36 187.401 404.2L158.441 327.24L218.441 254.04C220.965 250.943 222.845 247.374 223.971 243.541C225.098 239.708 225.448 235.69 225.001 231.72ZM128.441 216.44L158.761 240.68L136.121 267.88C129.865 251.952 123.377 233.144 128.441 216.44Z" fill="black"/>
</svg>
