<svg width="512" height="512" viewBox="0 0 512 512" fill="none" xmlns="http://www.w3.org/2000/svg">
<path fill-rule="evenodd" clip-rule="evenodd" d="M144 357.216V432C144.323 444.516 149.522 456.41 158.489 465.148C167.455 473.886 179.48 478.776 192 478.776C204.52 478.776 216.545 473.886 225.511 465.148C234.478 456.41 239.677 444.516 240 432V359.936L251.856 359.984L408.288 446.016C410.723 447.361 413.468 448.047 416.249 448.007C419.031 447.966 421.754 447.2 424.149 445.784C426.544 444.369 428.528 442.352 429.905 439.935C431.282 437.517 432.004 434.782 432 432V80C432 77.2196 431.275 74.4874 429.897 72.0726C428.518 69.6578 426.535 67.6437 424.142 66.229C421.748 64.8142 419.027 64.0476 416.247 64.0046C413.467 63.9616 410.724 64.6438 408.288 65.984L251.856 152.016C251.856 152.016 159.024 152.384 158.56 152.432C132.723 154.798 108.703 166.731 91.2093 185.891C73.7158 205.051 64.0116 230.055 64 256C64.0175 279.407 71.9214 302.126 86.4361 320.49C100.951 338.854 121.23 351.792 144 357.216ZM176 360H208V432C208 436.243 206.314 440.313 203.314 443.314C200.313 446.314 196.243 448 192 448C187.757 448 183.687 446.314 180.686 443.314C177.686 440.313 176 436.243 176 432V360ZM272 177.456L400 107.056V404.944L272 334.544V177.456ZM240 184.064V327.936L160.784 327.648C143.03 325.849 126.575 317.525 114.607 304.288C102.638 291.052 96.0081 273.845 96 256C96.0097 238.173 102.628 220.982 114.577 207.751C126.525 194.52 142.954 186.189 160.688 184.368L240 184.064Z" fill="black"/>
</svg>
