<svg width="22" height="22" viewBox="0 0 22 22" fill="none" xmlns="http://www.w3.org/2000/svg">
<path d="M18.1542 12.0205H3.0125C1.575 12.0205 1 12.6338 1 14.1576V18.0293C1 19.553 1.575 20.1663 3.0125 20.1663H18.1542C19.5917 20.1663 20.1667 19.553 20.1667 18.0293V14.1576C20.1667 12.6338 19.5917 12.0205 18.1542 12.0205Z" stroke="#278867" stroke-width="2" stroke-linecap="round" stroke-linejoin="round"/>
<path d="M11.4458 1H3.0125C1.575 1 1 1.61333 1 3.13708V7.00875C1 8.5325 1.575 9.14583 3.0125 9.14583H11.4458C12.8833 9.14583 13.4583 8.5325 13.4583 7.00875V3.13708C13.4583 1.61333 12.8833 1 11.4458 1Z" stroke="#278867" stroke-width="2" stroke-linecap="round" stroke-linejoin="round"/>
</svg>
