<svg width="24" height="10" viewBox="0 0 24 10" fill="none" xmlns="http://www.w3.org/2000/svg">
<path d="M4.76601 1.60835C4.49544 1.92943 4.06254 2.18267 3.62964 2.14649C3.57553 1.71236 3.78747 1.25109 4.03548 0.966184C4.30605 0.636059 4.77954 0.400902 5.16284 0.382812C5.20793 0.835039 5.03206 1.27822 4.76601 1.60835ZM5.15833 2.23242C4.53152 2.19624 3.9949 2.58968 3.69728 2.58968C3.39515 2.58968 2.9397 2.25051 2.44367 2.25955C1.79882 2.2686 1.19907 2.6349 0.869884 3.21827C0.193473 4.38501 0.694017 6.11252 1.34788 7.06219C1.66805 7.53251 2.05135 8.04804 2.5564 8.02996C3.0344 8.01187 3.22379 7.71792 3.801 7.71792C4.38271 7.71792 4.54956 8.02995 5.05461 8.02091C5.5777 8.01187 5.90689 7.5506 6.22705 7.08028C6.59232 6.54665 6.74113 6.02659 6.75014 5.99946C6.74113 5.99042 5.74004 5.60602 5.73102 4.44832C5.722 3.48056 6.52017 3.01929 6.55624 2.99216C6.1053 2.32286 5.40183 2.25051 5.15833 2.23242ZM8.77938 0.920961V7.97117H9.87065V5.5608H11.3813C12.7612 5.5608 13.7307 4.61113 13.7307 3.23636C13.7307 1.86159 12.7792 0.920961 11.4174 0.920961H8.77938ZM9.87065 1.8435H11.1288C12.0757 1.8435 12.6169 2.35 12.6169 3.24088C12.6169 4.13177 12.0757 4.64278 11.1243 4.64278H9.87065V1.8435ZM15.7239 8.02543C16.4093 8.02543 17.0451 7.67722 17.3337 7.1255H17.3563V7.97117H18.3664V4.46189C18.3664 3.44438 17.5547 2.78866 16.3056 2.78866C15.1467 2.78866 14.2899 3.45343 14.2583 4.36692H15.2414C15.3225 3.93279 15.7239 3.64788 16.274 3.64788C16.9414 3.64788 17.3157 3.95992 17.3157 4.53425V4.92316L15.9538 5.00456C14.6867 5.08144 14.0013 5.6015 14.0013 6.50595C14.0013 7.41945 14.7092 8.02543 15.7239 8.02543ZM16.017 7.18881C15.4353 7.18881 15.0655 6.90843 15.0655 6.47882C15.0655 6.03564 15.4217 5.77787 16.1026 5.73717L17.3157 5.66029V6.05825C17.3157 6.7185 16.7565 7.18881 16.017 7.18881ZM19.7147 9.8886C20.7789 9.8886 21.2794 9.4816 21.7169 8.24702L23.6333 2.85649H22.524L21.2389 7.02149H21.2163L19.9311 2.85649H18.7903L20.6391 7.98925L20.5399 8.30129C20.3731 8.8304 20.1025 9.0339 19.62 9.0339C19.5343 9.0339 19.3675 9.02485 19.2998 9.01581V9.86147C19.3629 9.87956 19.6335 9.8886 19.7147 9.8886Z" fill="black"/>
</svg>
