<svg width="45" height="36" viewBox="0 0 45 36" fill="none" xmlns="http://www.w3.org/2000/svg">
<path d="M21.3366 6.6665H3C1.89543 6.6665 1 7.56193 1 8.6665V33.0001C1 34.1047 1.89543 35.0001 3 35.0001H25.6669C26.7715 35.0001 27.6669 34.1047 27.6669 33.0001V26.0953" stroke="white"/>
<path d="M37.5843 1.87445L37.5661 1.89269L24.3718 15.0869C24.3608 15.0979 24.3499 15.1089 24.339 15.1197C24.1765 15.2818 24.0327 15.4254 23.9313 15.6044C23.83 15.7834 23.7809 15.9806 23.7255 16.2033C23.7218 16.2182 23.718 16.2332 23.7142 16.2483L22.384 21.5692C22.3818 21.5781 22.3796 21.587 22.3774 21.5959C22.3381 21.7526 22.2962 21.9199 22.2825 22.0605C22.2673 22.2152 22.2708 22.4763 22.4803 22.6857C22.6897 22.8951 22.9507 22.8986 23.1055 22.8835C23.246 22.8697 23.4133 22.8278 23.57 22.7886C23.5789 22.7863 23.5878 22.7841 23.5967 22.7819L28.9176 21.4517C28.9327 21.4479 28.9477 21.4442 28.9626 21.4405C29.1853 21.385 29.3825 21.3359 29.5615 21.2346C29.7406 21.1332 29.8841 20.9894 30.0462 20.8269C30.0571 20.816 30.068 20.8051 30.079 20.7941L43.2732 7.59985L43.2965 7.57656C43.61 7.26316 43.88 6.99314 44.0672 6.74781C44.2678 6.48489 44.4197 6.19247 44.4197 5.83208C44.4197 5.4717 44.2678 5.17928 44.0672 4.91636C43.88 4.67103 43.6099 4.401 43.2965 4.0876L43.2732 4.06432L41.1016 1.89269L41.0834 1.87445L41.0833 1.87444L41.0783 1.86939C40.7649 1.55596 40.4949 1.28591 40.2496 1.09873C39.9866 0.898132 39.6942 0.746245 39.3338 0.746245C38.9734 0.746245 38.681 0.898132 38.4181 1.09873C38.1728 1.28591 37.9028 1.55597 37.5894 1.86939L37.5843 1.87445Z" stroke="white"/>
<path d="M35 4L39 0.5L44.5 6L41 10L35 4Z" fill="white"/>
</svg>
