<svg width="20" height="14" viewBox="0 0 20 14" fill="none" xmlns="http://www.w3.org/2000/svg">
<circle cx="16" cy="4" r="4" fill="#278867"/>
<path fill-rule="evenodd" clip-rule="evenodd" d="M9.34141 2H1C0.447715 2 0 2.44772 0 3C0 3.55228 0.447715 4 1 4H9C9 3.29873 9.12031 2.62556 9.34141 2ZM9.80269 7H1C0.447715 7 0 7.44772 0 8C0 8.55228 0.447715 9 1 9H11.6822C10.9121 8.48797 10.2671 7.80277 9.80269 7ZM0 13C0 12.4477 0.447715 12 1 12H15C15.5523 12 16 12.4477 16 13C16 13.5523 15.5523 14 15 14H1C0.447715 14 0 13.5523 0 13Z" fill="#278867"/>
</svg>
