<svg width="49" height="27" viewBox="0 0 49 27" fill="none" xmlns="http://www.w3.org/2000/svg">
<path d="M10.05 18.1C14.4959 18.1 18.1 14.4959 18.1 10.05C18.1 5.60411 14.4959 2 10.05 2C5.60411 2 2 5.60411 2 10.05C2 14.4959 5.60411 18.1 10.05 18.1Z" stroke="#278867" stroke-width="2.5" stroke-linecap="round" stroke-linejoin="round"/>
<path d="M10.0508 18.0996V24.9996" stroke="#278867" stroke-width="2.5" stroke-linecap="round" stroke-linejoin="round"/>
<path d="M13.4996 21.5498H6.59961" stroke="#278867" stroke-width="2.5" stroke-linecap="round" stroke-linejoin="round"/>
<path d="M34.5658 23.9997C39.2965 23.9997 43.1316 20.1647 43.1316 15.434C43.1316 10.7032 39.2965 6.86816 34.5658 6.86816C29.835 6.86816 26 10.7032 26 15.434C26 20.1647 29.835 23.9997 34.5658 23.9997Z" stroke="#278867" stroke-width="2.5" stroke-linecap="round" stroke-linejoin="round"/>
<path d="M47.0008 3L40.9219 9.07895" stroke="#278867" stroke-width="2.5" stroke-linecap="round" stroke-linejoin="round"/>
<path d="M39.8164 3H47.0006V10.1842" stroke="#278867" stroke-width="2.5" stroke-linecap="round" stroke-linejoin="round"/>
</svg>
