<svg width="512" height="404" viewBox="0 0 512 404" fill="none" xmlns="http://www.w3.org/2000/svg">
<path d="M494.966 63.2928C484.745 52.5856 470.631 46.2586 454.57 46.2586H373.779V45.2852C373.779 33.1179 368.913 21.4373 360.639 13.6502C352.365 5.37644 341.171 0.509521 329.004 0.509521H182.996C170.342 0.509521 159.148 5.37644 150.875 13.6502C142.601 21.924 137.734 33.1179 137.734 45.2852V46.2586H57.4297C41.3688 46.2586 27.2548 52.5856 17.0342 63.2928C6.81369 73.5133 0 88.1141 0 103.688V346.061C0 362.122 6.327 376.236 17.0342 386.456C27.2548 396.677 41.8555 403.491 57.4297 403.491H454.57C470.631 403.491 484.745 397.164 494.966 386.456C505.186 376.236 512 361.635 512 346.061V103.688C512 87.6274 505.673 73.5133 494.966 63.2928ZM486.692 346.061H486.205C486.205 354.821 482.798 362.608 476.958 368.449C471.118 374.289 463.331 377.696 454.57 377.696H57.4297C48.6692 377.696 40.8821 374.289 35.0418 368.449C29.2015 362.608 25.7947 354.821 25.7947 346.061V103.688C25.7947 94.9278 29.2015 87.1407 35.0418 81.3004C40.8821 75.4601 48.6692 72.0532 57.4297 72.0532H151.361C158.662 72.0532 164.502 66.2129 164.502 58.9126V44.7985C164.502 39.4449 166.449 34.578 169.856 31.1711C173.262 27.7643 178.129 25.8175 183.483 25.8175H329.004C334.357 25.8175 339.224 27.7643 342.631 31.1711C346.038 34.578 347.985 39.4449 347.985 44.7985V58.9126C347.985 66.2129 353.825 72.0532 361.125 72.0532H455.057C463.817 72.0532 471.605 75.4601 477.445 81.3004C483.285 87.1407 486.692 94.9278 486.692 103.688V346.061Z" fill="#278867"/>
<path d="M256 105.148C222.905 105.148 192.73 118.776 171.315 140.19C149.414 162.091 136.273 191.78 136.273 224.875C136.273 257.97 149.901 288.145 171.315 309.559C193.216 331.46 222.905 344.601 256 344.601C289.095 344.601 319.27 330.974 340.684 309.559C362.585 287.658 375.726 257.97 375.726 224.875C375.726 191.78 362.099 161.605 340.684 140.19C319.27 118.776 289.095 105.148 256 105.148ZM322.19 291.551C305.156 308.099 281.794 318.806 256 318.806C230.205 318.806 206.844 308.099 189.81 291.551C172.775 274.517 162.555 251.156 162.555 225.361C162.555 199.567 173.262 176.205 189.81 159.171C206.844 142.137 230.205 131.916 256 131.916C281.794 131.916 305.156 142.624 322.19 159.171C339.224 176.205 349.445 199.567 349.445 225.361C349.931 251.156 339.224 274.517 322.19 291.551Z" fill="#278867"/>
<path d="M429.262 152.357C442.433 152.357 453.11 141.68 453.11 128.51C453.11 115.339 442.433 104.662 429.262 104.662C416.091 104.662 405.414 115.339 405.414 128.51C405.414 141.68 416.091 152.357 429.262 152.357Z" fill="#278867"/>
</svg>
