<svg width="17" height="13" viewBox="0 0 17 13" fill="none" xmlns="http://www.w3.org/2000/svg">
<path d="M0.894531 3.49395C0.894531 2.46886 0.894531 1.95632 1.09719 1.56619C1.26796 1.23744 1.53602 0.969379 1.86478 0.798603C2.25491 0.595947 2.76745 0.595947 3.79253 0.595947H12.9342C13.9593 0.595947 14.4718 0.595947 14.862 0.798603C15.1907 0.969379 15.4588 1.23744 15.6295 1.56619C15.8322 1.95632 15.8322 2.46886 15.8322 3.49395V9.18846C15.8322 10.2135 15.8322 10.7261 15.6295 11.1162C15.4588 11.445 15.1907 11.713 14.862 11.8838C14.4718 12.0865 13.9593 12.0865 12.9342 12.0865H3.79253C2.76745 12.0865 2.25491 12.0865 1.86478 11.8838C1.53602 11.713 1.26796 11.445 1.09719 11.1162C0.894531 10.7261 0.894531 10.2135 0.894531 9.18847V3.49395Z" stroke="#222222" stroke-width="0.75"/>
<path d="M0.894531 4.04297L15.8322 4.04297" stroke="#222222" stroke-width="0.75" stroke-linecap="round"/>
<circle cx="3.76691" cy="9.21393" r="0.574526" fill="#222222"/>
</svg>
