<svg width="16" height="16" viewBox="0 0 16 16" fill="none" xmlns="http://www.w3.org/2000/svg">
<path d="M0.642578 3.84404C0.642578 2.72394 0.642578 2.16389 0.860565 1.73606C1.05231 1.35974 1.35827 1.05378 1.7346 0.86203C2.16242 0.644043 2.72247 0.644043 3.84258 0.644043H11.4152C12.5353 0.644043 13.0953 0.644043 13.5232 0.86203C13.8995 1.05378 14.2054 1.35974 14.3972 1.73606C14.6152 2.16389 14.6152 2.72394 14.6152 3.84404V11.4166C14.6152 12.5368 14.6152 13.0968 14.3972 13.5246C14.2054 13.901 13.8995 14.2069 13.5232 14.3987C13.0953 14.6166 12.5353 14.6166 11.4152 14.6166H3.84258C2.72247 14.6166 2.16242 14.6166 1.7346 14.3987C1.35827 14.2069 1.05231 13.901 0.860565 13.5246C0.642578 13.0968 0.642578 12.5368 0.642578 11.4166V3.84404Z" stroke="#222222" stroke-linecap="round"/>
<path d="M7.99546 9.85823C7.99546 11.3659 6.57574 12.4475 5.84511 12.9044C5.58369 13.0678 5.25943 13.0678 4.998 12.9044C4.26737 12.4475 2.84766 11.3659 2.84766 9.85823C2.84766 8.30091 4.0948 7.2627 5.42156 7.2627C6.7943 7.2627 7.99546 8.30091 7.99546 9.85823Z" stroke="#222222"/>
<path d="M12.4104 14.6165L7.99805 3.58545" stroke="#222222"/>
<path d="M14.6152 2.11475L0.642578 5.05635" stroke="#222222"/>
<circle cx="5.4229" cy="9.83647" r="0.7354" fill="#222222"/>
</svg>
