<svg width="19" height="19" viewBox="0 0 19 19" fill="none" xmlns="http://www.w3.org/2000/svg">
<path d="M1.32698 2.63803L1.77248 2.86502L1.32698 2.63803ZM1.7682 18.3651L2.12175 18.7187H2.12175L1.7682 18.3651ZM16.362 15.4064L16.589 15.8519L16.362 15.4064ZM17.673 14.0953L18.1185 14.3223L17.673 14.0953ZM17.673 2.63803L18.1185 2.41103V2.41103L17.673 2.63803ZM16.362 1.32698L16.589 0.881477V0.881477L16.362 1.32698ZM2.63803 1.32698L2.86502 1.77248L2.63803 1.32698ZM4.10709 16.0262L3.75354 15.6727L4.10709 16.0262ZM1.5 5.8C1.5 4.95167 1.50039 4.34549 1.53921 3.87032C1.57756 3.40099 1.65089 3.10366 1.77248 2.86502L0.881477 2.41103C0.676087 2.81413 0.585932 3.25771 0.542533 3.78889C0.499611 4.31423 0.5 4.96817 0.5 5.8H1.5ZM1.5 10.0667V5.8H0.5V10.0667H1.5ZM0.5 10.0667V15.7333H1.5V10.0667H0.5ZM0.5 15.7333V15.7333H1.5V15.7333H0.5ZM0.5 15.7333V18.0469H1.5V15.7333H0.5ZM0.5 18.0469C0.5 18.8933 1.52329 19.3171 2.12175 18.7187L1.41465 18.0116C1.41754 18.0087 1.42812 18.0013 1.44323 17.9987C1.4556 17.9966 1.4642 17.9987 1.46913 18.0007C1.47406 18.0028 1.48164 18.0074 1.48888 18.0176C1.49771 18.0302 1.5 18.0428 1.5 18.0469H0.5ZM2.12175 18.7187L4.46064 16.3798L3.75354 15.6727L1.41465 18.0116L2.12175 18.7187ZM13.2 15.2333H4.8142V16.2333H13.2V15.2333ZM16.135 14.9608C15.8963 15.0824 15.599 15.1558 15.1297 15.1941C14.6545 15.2329 14.0483 15.2333 13.2 15.2333V16.2333C14.0318 16.2333 14.6858 16.2337 15.2111 16.1908C15.7423 16.1474 16.1859 16.0572 16.589 15.8519L16.135 14.9608ZM17.2275 13.8683C16.9878 14.3387 16.6054 14.7212 16.135 14.9608L16.589 15.8519C17.2475 15.5163 17.783 14.9809 18.1185 14.3223L17.2275 13.8683ZM17.5 10.9333C17.5 11.7817 17.4996 12.3878 17.4608 12.863C17.4224 13.3323 17.3491 13.6297 17.2275 13.8683L18.1185 14.3223C18.3239 13.9192 18.4141 13.4756 18.4575 12.9444C18.5004 12.4191 18.5 11.7652 18.5 10.9333H17.5ZM17.5 5.8V10.9333H18.5V5.8H17.5ZM17.2275 2.86502C17.3491 3.10366 17.4224 3.40099 17.4608 3.87032C17.4996 4.34549 17.5 4.95167 17.5 5.8H18.5C18.5 4.96817 18.5004 4.31423 18.4575 3.78889C18.4141 3.25771 18.3239 2.81413 18.1185 2.41103L17.2275 2.86502ZM16.135 1.77248C16.6054 2.01217 16.9878 2.39462 17.2275 2.86502L18.1185 2.41103C17.783 1.75247 17.2475 1.21703 16.589 0.881477L16.135 1.77248ZM13.2 1.5C14.0483 1.5 14.6545 1.50039 15.1297 1.53921C15.599 1.57756 15.8963 1.65089 16.135 1.77248L16.589 0.881477C16.1859 0.676087 15.7423 0.585932 15.2111 0.542533C14.6858 0.499611 14.0318 0.5 13.2 0.5V1.5ZM5.8 1.5H13.2V0.5H5.8V1.5ZM2.86502 1.77248C3.10366 1.65089 3.40099 1.57756 3.87032 1.53921C4.34549 1.50039 4.95167 1.5 5.8 1.5V0.5C4.96817 0.5 4.31423 0.499611 3.78889 0.542533C3.25771 0.585932 2.81413 0.676087 2.41103 0.881477L2.86502 1.77248ZM1.77248 2.86502C2.01217 2.39462 2.39462 2.01217 2.86502 1.77248L2.41103 0.881477C1.75247 1.21703 1.21703 1.75247 0.881477 2.41103L1.77248 2.86502ZM4.46064 16.3798C4.55441 16.286 4.68159 16.2333 4.8142 16.2333V15.2333C4.41637 15.2333 4.03484 15.3914 3.75354 15.6727L4.46064 16.3798Z" fill="#061E40"/>
<path d="M5.64648 7.40332L13.601 7.40332M5.64648 10.8117H11.3283" stroke="#061E40" stroke-linecap="round" stroke-linejoin="round"/>
</svg>
