<svg width="512" height="512" viewBox="0 0 512 512" fill="none" xmlns="http://www.w3.org/2000/svg">
<g clip-path="url(#clip0_949_4130)">
<path d="M256 0C114.847 0 0 114.847 0 256C0 397.153 114.847 512 256 512C397.153 512 512 397.153 512 256C512 114.847 397.153 0 256 0ZM399.078 188.632L235.469 350.957C225.845 360.581 210.446 361.223 200.18 351.599L113.564 272.682C103.298 263.058 102.657 247.018 111.639 236.752C121.263 226.486 137.303 225.845 147.569 235.469L216.221 298.346L362.506 152.06C372.772 141.794 388.812 141.794 399.078 152.06C409.343 162.326 409.343 178.366 399.078 188.632Z" fill="black"/>
</g>
<defs>
<clipPath id="clip0_949_4130">
<rect width="512" height="512" fill="white"/>
</clipPath>
</defs>
</svg>
