<svg width="512" height="512" viewBox="0 0 512 512" fill="none" xmlns="http://www.w3.org/2000/svg">
<path d="M443.733 68.2666H68.2665C35.2767 68.2666 8.5332 95.0101 8.5332 128V384C8.5332 416.99 35.2767 443.733 68.2665 443.733H443.733C476.723 443.733 503.467 416.99 503.467 384V128C503.467 95.0101 476.723 68.2666 443.733 68.2666Z" fill="#F9C84E"/>
<path d="M170.666 68.2666V443.733H153.599V392.533H9.21529C8.72702 389.716 8.4985 386.859 8.53262 384V375.467H153.599V307.2H8.53262V290.133H153.599V221.867H8.53262V204.8H153.599V136.533H8.53262V128C8.4985 125.141 8.72702 122.284 9.21529 119.467H153.599V68.2666H170.666ZM503.466 128V136.533H358.399C353.877 136.52 349.544 134.717 346.346 131.52C343.149 128.322 341.346 123.989 341.333 119.467V68.2666H358.399V119.467H502.783C503.272 122.284 503.5 125.141 503.466 128ZM358.399 221.867V290.133H503.466V307.2H358.399V375.467H503.466V384C503.5 386.859 503.272 389.716 502.783 392.533H358.399V443.733H341.333V221.867C341.346 217.344 343.149 213.011 346.346 209.814C349.544 206.616 353.877 204.813 358.399 204.8H503.466V221.867H358.399Z" fill="#EAAA42"/>
</svg>
