<svg width="512" height="512" viewBox="0 0 512 512" fill="none" xmlns="http://www.w3.org/2000/svg">
<g clip-path="url(#clip0_671_4096)">
<path d="M437.101 74.9042C337.214 -24.9616 174.77 -24.9616 74.8831 74.9042C-24.9607 174.77 -24.9607 337.256 74.8831 437.122C124.827 487.044 190.414 511.994 256.003 511.994C321.592 511.994 387.157 487.043 437.101 437.122C536.967 337.257 536.967 174.77 437.101 74.9042ZM361.631 331.472C369.975 339.817 369.975 353.307 361.631 361.652C359.651 363.636 357.299 365.211 354.709 366.284C352.12 367.357 349.344 367.908 346.54 367.906C343.737 367.908 340.961 367.357 338.372 366.284C335.782 365.21 333.43 363.636 331.45 361.652L256.002 286.181L180.575 361.63C176.572 365.631 171.145 367.881 165.485 367.884C162.681 367.886 159.905 367.335 157.316 366.262C154.726 365.188 152.374 363.614 150.395 361.63C142.05 353.285 142.05 339.774 150.395 331.451L225.822 256.002L150.373 180.554C142.029 172.209 142.029 158.699 150.373 150.375C158.697 142.03 172.208 142.03 180.553 150.375L256.001 225.823L331.449 150.375C339.794 142.03 353.284 142.03 361.629 150.375C369.973 158.699 369.973 172.209 361.629 180.554L286.18 256.002L361.631 331.472Z" fill="black"/>
</g>
<defs>
<clipPath id="clip0_671_4096">
<rect width="512" height="512" fill="white"/>
</clipPath>
</defs>
</svg>
