<svg width="512" height="512" viewBox="0 0 512 512" fill="none" xmlns="http://www.w3.org/2000/svg">
<g clip-path="url(#clip0_1060_4094)">
<path d="M175.582 294.881C197.129 278.085 224.229 268.08 253.665 268.08C303.603 268.08 345.056 296.391 365.846 338.283" stroke="black" stroke-width="29.9737" stroke-miterlimit="10" stroke-linecap="round" stroke-linejoin="round"/>
<path d="M241.228 268.698C232.209 214.812 185.352 173.746 128.904 173.746C66.0029 173.746 15.0117 224.737 15.0117 287.638C15.0117 287.638 15.0117 287.894 15.0207 288.374C15.0507 293.173 15.3754 297.901 15.9819 302.542C20.9655 350.387 68.0671 497.015 255.799 497.015C480.131 497.015 496.978 425.688 496.978 425.688C496.978 425.688 498.128 287.638 473.969 194.454C459.939 140.336 445.133 88.5467 435.183 54.6345C428.29 31.1311 406.734 14.9873 382.241 14.9873H311.677C308.035 14.9874 304.448 15.8794 301.229 17.5853C298.011 19.2913 295.26 21.7593 293.215 24.7737L276.389 49.5819C273.883 53.2771 272.543 57.6391 272.543 62.1039V86.8551C272.543 111.335 292.388 131.18 316.868 131.18H376.066V148.372C376.066 164.591 373.858 180.73 369.559 196.369C359.249 233.877 347.586 284.923 365.832 338.256" stroke="black" stroke-width="29.9737" stroke-miterlimit="10" stroke-linecap="round" stroke-linejoin="round"/>
<path d="M376.066 131.18V106.375C376.066 90.2819 363.021 77.2363 346.928 77.2363M422.828 401.908C422.828 401.908 421.444 382.534 438.05 375.615" stroke="black" stroke-width="29.9737" stroke-miterlimit="10" stroke-linecap="round" stroke-linejoin="round"/>
</g>
<defs>
<clipPath id="clip0_1060_4094">
<rect width="512" height="512" fill="white"/>
</clipPath>
</defs>
</svg>
