<svg xmlns="http://www.w3.org/2000/svg" version="1.1" xmlns:xlink="http://www.w3.org/1999/xlink" width="512" height="512" x="0" y="0" viewBox="0 0 32 32" style="enable-background:new 0 0 512 512" xml:space="preserve" class=""><g><path d="M11 9c-2.206 0-4 1.794-4 4s1.794 4 4 4 4-1.794 4-4-1.794-4-4-4zm-1.5 6.868v-5.736L13.803 13zM27 2H5C2.794 2 1 3.794 1 6v14c0 2.206 1.794 4 4 4h22c2.206 0 4-1.794 4-4V6c0-2.206-1.794-4-4-4zM11 19c-3.309 0-6-2.691-6-6s2.691-6 6-6 6 2.691 6 6-2.691 6-6 6zm16-1h-8v-2h8zm0-4h-8v-2h8zm0-4h-8V8h8zm-8 18v-2h-6v2H9v2h14v-2z" fill="#278867" opacity="1" data-original="#000000" class=""></path></g></svg>