<svg width="512" height="512" viewBox="0 0 512 512" fill="none" xmlns="http://www.w3.org/2000/svg">
<path d="M470.974 125.36C468.273 124.05 465.257 123.526 462.272 123.848C459.287 124.171 456.453 125.327 454.094 127.184L381.406 184.512V112.336C381.406 108.093 379.721 104.023 376.72 101.022C373.719 98.0217 369.65 96.336 365.406 96.336H121.358C100.604 96.3656 80.7085 104.623 66.0331 119.299C51.3576 133.974 43.0999 153.87 43.0703 174.624V261.536C43.0703 265.779 44.756 269.849 47.7566 272.85C50.7572 275.85 54.8268 277.536 59.0703 277.536C63.3138 277.536 67.3834 275.85 70.384 272.85C73.3846 269.849 75.0703 265.779 75.0703 261.536V174.624C75.0872 162.353 79.9694 150.589 88.6465 141.912C97.3235 133.235 109.087 128.353 121.358 128.336H349.406V372.608H186.158C181.915 372.608 177.845 374.294 174.845 377.294C171.844 380.295 170.158 384.365 170.158 388.608C170.158 392.851 171.844 396.921 174.845 399.922C177.845 402.922 181.915 404.608 186.158 404.608H365.406C369.65 404.608 373.719 402.922 376.72 399.922C379.721 396.921 381.406 392.851 381.406 388.608V316.416L454.078 373.744C456.439 375.603 459.275 376.762 462.262 377.087C465.25 377.413 468.269 376.892 470.974 375.584C473.679 374.274 475.96 372.228 477.556 369.681C479.152 367.134 479.998 364.19 479.998 361.184V139.744C479.995 136.741 479.148 133.8 477.552 131.256C475.956 128.712 473.677 126.669 470.974 125.36ZM447.998 328.192L381.406 275.648V225.28L447.998 172.752V328.192Z" fill="black"/>
<path d="M132.432 341.472H106.24V315.248C106.24 311.005 104.554 306.935 101.554 303.934C98.5531 300.934 94.4835 299.248 90.24 299.248C85.9965 299.248 81.9269 300.934 78.9263 303.934C75.9257 306.935 74.24 311.005 74.24 315.248V341.472H48C43.7565 341.472 39.6869 343.158 36.6863 346.158C33.6857 349.159 32 353.229 32 357.472C32 361.715 33.6857 365.785 36.6863 368.786C39.6869 371.786 43.7565 373.472 48 373.472H74.224V399.664C74.224 403.907 75.9097 407.977 78.9103 410.978C81.9109 413.978 85.9805 415.664 90.224 415.664C94.4675 415.664 98.5371 413.978 101.538 410.978C104.538 407.977 106.224 403.907 106.224 399.664V373.472H132.432C136.675 373.472 140.745 371.786 143.746 368.786C146.746 365.785 148.432 361.715 148.432 357.472C148.432 353.229 146.746 349.159 143.746 346.158C140.745 343.158 136.675 341.472 132.432 341.472Z" fill="black"/>
</svg>
