<svg width="512" height="512" viewBox="0 0 512 512" fill="none" xmlns="http://www.w3.org/2000/svg">
<path fill-rule="evenodd" clip-rule="evenodd" d="M194.56 51.1992C189.128 51.1992 183.919 53.3569 180.078 57.1977C176.238 61.0384 174.08 66.2476 174.08 71.6792V92.1592H112.64C107.208 92.1592 101.999 94.3169 98.1584 98.1577C94.3176 101.998 92.1599 107.208 92.1599 112.639C92.1599 118.071 94.3176 123.28 98.1584 127.121C101.999 130.962 107.208 133.119 112.64 133.119V399.359C112.64 415.654 119.113 431.282 130.635 442.804C142.158 454.326 157.785 460.799 174.08 460.799H337.92C354.215 460.799 369.842 454.326 381.365 442.804C392.887 431.282 399.36 415.654 399.36 399.359V133.119C404.792 133.119 410.001 130.962 413.841 127.121C417.682 123.28 419.84 118.071 419.84 112.639C419.84 107.208 417.682 101.998 413.841 98.1577C410.001 94.3169 404.792 92.1592 399.36 92.1592H337.92V71.6792C337.92 66.2476 335.762 61.0384 331.921 57.1977C328.081 53.3569 322.872 51.1992 317.44 51.1992H194.56ZM215.04 174.079C220.472 174.079 225.681 176.237 229.521 180.078C233.362 183.918 235.52 189.128 235.52 194.559V358.399C235.52 363.831 233.362 369.04 229.521 372.881C225.681 376.722 220.472 378.879 215.04 378.879C209.608 378.879 204.399 376.722 200.558 372.881C196.718 369.04 194.56 363.831 194.56 358.399V194.559C194.56 189.128 196.718 183.918 200.558 180.078C204.399 176.237 209.608 174.079 215.04 174.079ZM296.96 174.079C302.392 174.079 307.601 176.237 311.441 180.078C315.282 183.918 317.44 189.128 317.44 194.559V358.399C317.44 363.831 315.282 369.04 311.441 372.881C307.601 376.722 302.392 378.879 296.96 378.879C291.528 378.879 286.319 376.722 282.478 372.881C278.638 369.04 276.48 363.831 276.48 358.399V194.559C276.48 189.128 278.638 183.918 282.478 180.078C286.319 176.237 291.528 174.079 296.96 174.079Z" fill="black"/>
</svg>
