<svg width="512" height="512" viewBox="0 0 512 512" fill="none" xmlns="http://www.w3.org/2000/svg">
<path d="M233.072 256C255.223 256 276.877 249.431 295.296 237.125C313.714 224.818 328.069 207.326 336.546 186.861C345.023 166.395 347.241 143.876 342.92 122.15C338.598 100.424 327.931 80.4676 312.268 64.8041C296.604 49.1406 276.648 38.4736 254.922 34.1521C233.196 29.8306 210.677 32.0485 190.211 40.5255C169.746 49.0026 152.254 63.3579 139.947 81.7762C127.641 100.194 121.072 121.849 121.072 144C121.106 173.694 132.917 202.162 153.913 223.159C174.91 244.155 203.378 255.966 233.072 256ZM233.072 64C248.894 64 264.362 68.692 277.518 77.4825C290.673 86.273 300.927 98.7673 306.982 113.385C313.037 128.003 314.622 144.089 311.535 159.607C308.448 175.126 300.829 189.38 289.64 200.569C278.452 211.757 264.198 219.376 248.679 222.463C233.161 225.55 217.075 223.965 202.457 217.91C187.839 211.855 175.345 201.602 166.554 188.446C157.764 175.29 153.072 159.823 153.072 144C153.097 122.791 161.534 102.457 176.531 87.4596C191.529 72.4622 211.862 64.0255 233.072 64ZM422.624 400L456.576 366.064C459.49 363.046 461.103 359.005 461.067 354.81C461.03 350.614 459.348 346.601 456.381 343.635C453.414 340.668 449.401 338.986 445.206 338.949C441.011 338.913 436.97 340.526 433.952 343.44L400 377.376L366.048 343.44C363.03 340.526 358.989 338.913 354.793 338.949C350.598 338.986 346.585 340.668 343.619 343.635C340.652 346.601 338.97 350.614 338.933 354.81C338.897 359.005 340.509 363.046 343.424 366.064L377.376 400L343.424 433.936C341.896 435.412 340.677 437.178 339.838 439.13C339 441.082 338.558 443.181 338.54 445.306C338.521 447.43 338.926 449.537 339.731 451.503C340.535 453.47 341.723 455.256 343.226 456.758C344.728 458.261 346.514 459.449 348.481 460.253C350.447 461.058 352.554 461.463 354.678 461.444C356.803 461.426 358.902 460.984 360.854 460.146C362.806 459.307 364.572 458.088 366.048 456.56L400 422.624L433.952 456.56C436.97 459.475 441.011 461.087 445.206 461.051C449.401 461.014 453.414 459.332 456.381 456.365C459.348 453.399 461.03 449.386 461.067 445.19C461.103 440.995 459.49 436.954 456.576 433.936L422.624 400ZM304 448H80.3199C77.7017 448.015 75.118 447.403 72.7852 446.214C70.4523 445.026 68.4383 443.295 66.9119 441.168C65.5026 439.321 64.5614 437.159 64.1685 434.869C63.7757 432.579 63.9429 430.228 64.6559 428.016C72.4066 405.236 84.6898 384.262 100.765 366.357C116.84 348.452 136.375 333.988 158.191 323.837C180.007 313.685 203.653 308.056 227.703 307.29C251.753 306.523 275.71 310.634 298.128 319.376C302.076 320.933 306.482 320.858 310.375 319.168C314.268 317.477 317.331 314.309 318.888 310.36C320.445 306.412 320.37 302.006 318.679 298.113C316.989 294.22 313.82 291.157 309.872 289.6C283.387 279.259 255.08 274.397 226.663 275.307C198.246 276.218 170.308 282.883 144.54 294.899C118.772 306.915 95.7088 324.032 76.7448 345.215C57.7808 366.399 43.3101 391.209 34.2079 418.144C31.9359 425.16 31.3691 432.617 32.5544 439.896C33.7398 447.175 36.6432 454.067 41.0239 460C45.5419 466.187 51.4543 471.222 58.2817 474.696C65.109 478.171 72.6592 479.988 80.3199 480H304C308.243 480 312.313 478.314 315.314 475.314C318.314 472.313 320 468.244 320 464C320 459.757 318.314 455.687 315.314 452.686C312.313 449.686 308.243 448 304 448Z" fill="black"/>
</svg>
