<svg width="512" height="512" viewBox="0 0 512 512" fill="none" xmlns="http://www.w3.org/2000/svg">
<path d="M440.8 221.76C445.44 217.12 448 211.04 448 204.48V140.8C448 116.16 427.84 96 403.2 96H108.8C84.16 96 64 116.16 64 140.8V204.96C64 211.52 66.56 217.6 71.2 222.4L86.08 237.12C91.2 242.24 94.08 248.96 94.08 256.16C94.08 263.52 91.36 270.24 86.24 275.36L71.2 290.4C66.56 295.04 64 301.28 64 307.84V371.52C64 396.16 84.16 416.32 108.8 416.32H403.2C427.84 416.32 448 396.16 448 371.52V307.68C448 301.12 445.44 295.04 440.8 290.4L425.76 275.2C420.689 270.129 417.84 263.251 417.84 256.08C417.84 248.909 420.689 242.031 425.76 236.96L440.8 221.76ZM416 201.44L403.04 214.24C380.16 237.28 380 274.72 403.04 297.76L416 310.72V371.52C416 378.56 410.24 384.32 403.2 384.32H108.8C101.76 384.32 96 378.56 96 371.52V310.88L108.8 298.08C120 286.88 126.08 272 126.08 256.16C126.08 240.32 119.84 225.44 108.64 214.4L96 201.92V140.8C96 133.76 101.76 128 108.8 128H403.2C410.24 128 416 133.76 416 140.8V201.44Z" fill="black"/>
<path d="M200.144 327.888C196.98 327.887 193.887 326.949 191.256 325.191C188.626 323.432 186.576 320.934 185.365 318.011C184.154 315.087 183.837 311.871 184.454 308.768C185.071 305.664 186.595 302.814 188.832 300.576L300.672 188.736C302.139 187.173 303.906 185.921 305.867 185.055C307.828 184.188 309.943 183.724 312.087 183.691C314.23 183.658 316.359 184.055 318.346 184.861C320.333 185.666 322.137 186.863 323.653 188.379C325.168 189.896 326.364 191.701 327.168 193.689C327.972 195.676 328.368 197.805 328.333 199.949C328.298 202.092 327.833 204.207 326.965 206.167C326.097 208.128 324.844 209.894 323.28 211.36L211.44 323.2C209.958 324.686 208.197 325.865 206.259 326.67C204.32 327.474 202.242 327.888 200.144 327.888ZM225.44 218.4C225.206 224.97 222.432 231.193 217.702 235.759C212.971 240.324 206.654 242.875 200.08 242.875C193.506 242.875 187.188 240.324 182.458 235.759C177.727 231.193 174.953 224.97 174.72 218.4C174.72 204.48 186.08 192.96 200.16 192.96C214.08 192.96 225.44 204.48 225.44 218.4ZM337.6 293.28C337.758 296.702 337.222 300.12 336.024 303.329C334.826 306.537 332.991 309.47 330.629 311.951C328.268 314.432 325.428 316.409 322.282 317.762C319.136 319.116 315.748 319.819 312.323 319.829C308.898 319.839 305.506 319.155 302.352 317.819C299.199 316.483 296.348 314.522 293.972 312.055C291.596 309.588 289.745 306.665 288.528 303.463C287.312 300.261 286.757 296.846 286.896 293.424C287.161 286.89 289.938 280.711 294.649 276.174C299.359 271.638 305.639 269.096 312.179 269.077C318.718 269.059 325.012 271.565 329.749 276.075C334.485 280.584 337.297 286.748 337.6 293.28Z" fill="black"/>
</svg>
