<svg width="512" height="512" viewBox="0 0 512 512" fill="none" xmlns="http://www.w3.org/2000/svg">
<path fill-rule="evenodd" clip-rule="evenodd" d="M47.0407 256.961L239.041 448.961C241.267 451.19 243.91 452.958 246.821 454.165C249.731 455.372 252.85 455.993 256.001 455.993C259.151 455.993 262.271 455.372 265.181 454.165C268.091 452.958 270.735 451.19 272.961 448.961L464.961 256.961C469.459 252.463 471.986 246.362 471.986 240.001C471.986 233.639 469.459 227.539 464.961 223.041C460.463 218.543 454.362 216.016 448.001 216.016C441.639 216.016 435.539 218.543 431.041 223.041L256.001 398.049L80.9607 223.041C76.4626 218.543 70.3619 216.016 64.0007 216.016C57.6395 216.016 51.5388 218.543 47.0407 223.041C42.5426 227.539 40.0156 233.639 40.0156 240.001C40.0156 246.362 42.5426 252.463 47.0407 256.961Z" fill="black"/>
<path fill-rule="evenodd" clip-rule="evenodd" d="M47.0407 96.9607L239.041 288.961C241.267 291.19 243.91 292.958 246.821 294.165C249.731 295.372 252.85 295.993 256.001 295.993C259.151 295.993 262.271 295.372 265.181 294.165C268.091 292.958 270.735 291.19 272.961 288.961L464.961 96.9607C467.188 94.7335 468.955 92.0894 470.16 89.1794C471.365 86.2694 471.986 83.1504 471.986 80.0007C471.986 76.8509 471.365 73.732 470.16 70.822C468.955 67.912 467.188 65.2679 464.961 63.0407C462.733 60.8135 460.089 59.0467 457.179 57.8414C454.269 56.636 451.15 56.0156 448.001 56.0156C444.851 56.0156 441.732 56.636 438.822 57.8414C435.912 59.0467 433.268 60.8135 431.041 63.0407L256.001 238.049L80.9607 63.0407C78.7335 60.8135 76.0894 59.0467 73.1794 57.8414C70.2694 56.636 67.1504 56.0156 64.0007 56.0156C60.8509 56.0156 57.732 56.636 54.822 57.8414C51.912 59.0467 49.2679 60.8135 47.0407 63.0407C44.8135 65.2679 43.0467 67.912 41.8414 70.822C40.636 73.732 40.0156 76.8509 40.0156 80.0007C40.0156 83.1504 40.636 86.2694 41.8414 89.1794C43.0467 92.0894 44.8135 94.7335 47.0407 96.9607Z" fill="black"/>
</svg>
