<svg width="411" height="512" viewBox="0 0 411 512" fill="none" xmlns="http://www.w3.org/2000/svg">
<path d="M391.197 512.001H19.999C16.3691 512.003 12.8134 510.974 9.74563 509.034C6.67782 507.093 4.22404 504.322 2.66979 501.042C1.11384 497.766 0.516137 494.116 0.945689 490.515C1.37524 486.914 2.81453 483.508 5.09738 480.69L187.296 255.998L5.07458 31.308C2.79499 28.4876 1.35947 25.08 0.933745 21.4787C0.508019 17.8773 1.10944 14.229 2.66859 10.9548C4.22396 7.67552 6.67831 4.90517 9.74622 2.9659C12.8141 1.02663 16.3695 -0.00187338 19.999 2.56164e-06L391.197 2.56164e-06C401.795 2.56164e-06 410.397 8.6016 410.397 19.2V83.1983C410.397 93.7967 401.795 102.398 391.197 102.398C380.599 102.398 371.997 93.7967 371.997 83.1983V38.4H60.2925L226.924 243.89C232.633 250.931 232.633 261.042 226.924 268.082L60.2925 473.601H371.997V428.798C371.997 418.2 380.599 409.598 391.197 409.598C401.795 409.598 410.397 418.2 410.397 428.798V492.801C410.397 503.4 401.795 512.001 391.197 512.001Z" fill="black"/>
</svg>
