<svg width="470" height="388" viewBox="0 0 470 388" fill="none" xmlns="http://www.w3.org/2000/svg">
<path d="M21.6673 387H149.667C162.467 387 171.001 378.467 171.001 365.667C171.001 352.867 162.467 344.333 149.667 344.333H45.134C55.8007 271.8 119.801 216.333 192.334 216.333C252.067 216.333 301.134 169.4 301.134 109.667C301.134 49.9334 254.201 0.866699 194.467 0.866699C134.734 0.866699 85.6673 47.8 85.6673 107.533C85.6673 137.4 98.4673 167.267 119.801 188.6C47.2673 216.333 0.333984 286.733 0.333984 365.667C0.333984 378.467 8.86732 387 21.6673 387ZM192.334 45.6667C228.601 45.6667 256.334 73.4 256.334 109.667C256.334 145.933 228.601 173.667 192.334 173.667C156.067 173.667 128.334 145.933 128.334 109.667C128.334 73.4 156.067 45.6667 192.334 45.6667ZM409.934 137.4C401.401 128.867 388.601 128.867 380.067 137.4L245.667 271.8C239.267 278.2 241.401 278.2 213.667 359.267C207.267 376.333 224.334 391.267 241.401 387C322.467 359.267 322.467 361.4 328.867 355L463.267 220.6C471.801 212.067 471.801 199.267 463.267 190.733L409.934 137.4ZM303.267 320.867L269.134 331.533L279.801 297.4L395.001 182.2L418.467 205.667L303.267 320.867Z" fill="#278867"/>
</svg>
