<svg width="512" height="512" viewBox="0 0 512 512" fill="none" xmlns="http://www.w3.org/2000/svg">
<g clip-path="url(#clip0_404_4103)">
<path d="M405.332 256.984C393.535 256.984 384 266.543 384 278.316V448.984C384 460.738 374.441 470.316 362.668 470.316H64C52.223 470.316 42.668 460.738 42.668 448.984V150.316C42.668 138.562 52.223 128.984 64 128.984H234.668C246.465 128.984 256 119.426 256 107.652C256 95.8754 246.465 86.3164 234.668 86.3164H64C28.715 86.3164 0 115.031 0 150.316V448.984C0 484.27 28.715 512.984 64 512.984H362.668C397.953 512.984 426.668 484.27 426.668 448.984V278.316C426.668 266.52 417.128 256.984 405.332 256.984Z" fill="black"/>
<path d="M200.02 237.551C198.537 239.04 197.522 240.93 197.098 242.989L182.016 318.427C181.313 321.923 182.422 325.528 184.938 328.067C185.931 329.056 187.109 329.841 188.405 330.375C189.701 330.909 191.09 331.183 192.492 331.181C193.172 331.181 193.879 331.118 194.582 330.97L269.996 315.888C272.086 315.458 273.984 314.458 275.457 312.962L444.247 144.172L368.832 68.7617L200.02 237.551ZM496.383 16.6027C475.586 -4.1983 441.75 -4.1983 420.969 16.6027L391.445 46.1257L466.859 121.54L496.383 92.0127C506.453 81.9657 512 68.5667 512 54.3167C512 40.0667 506.453 26.6687 496.383 16.6027Z" fill="black"/>
</g>
<defs>
<clipPath id="clip0_404_4103">
<rect width="512" height="512" fill="white"/>
</clipPath>
</defs>
</svg>
