<svg width="512" height="512" viewBox="0 0 512 512" fill="none" xmlns="http://www.w3.org/2000/svg">
<path fill-rule="evenodd" clip-rule="evenodd" d="M199.744 75.4772C181.712 75.4772 164.419 82.6403 151.669 95.3908C138.918 108.141 131.755 125.435 131.755 143.467C131.755 161.498 138.918 178.792 151.669 191.542C164.419 204.293 181.712 211.456 199.744 211.456C217.776 211.456 235.07 204.293 247.82 191.542C260.571 178.792 267.734 161.498 267.734 143.467C267.734 125.435 260.571 108.141 247.82 95.3908C235.07 82.6403 217.776 75.4772 199.744 75.4772ZM98.923 143.467C98.923 116.733 109.543 91.0938 128.447 72.1901C147.35 53.2865 172.989 42.6665 199.723 42.6665C226.457 42.6665 252.096 53.2865 270.999 72.1901C289.903 91.0938 300.523 116.733 300.523 143.467C300.523 170.2 289.903 195.839 270.999 214.743C252.096 233.647 226.457 244.267 199.723 244.267C172.989 244.267 147.35 233.647 128.447 214.743C109.543 195.839 98.923 170.2 98.923 143.467ZM158.123 328.683C147.271 328.68 136.524 330.815 126.498 334.966C116.471 339.117 107.36 345.202 99.6852 352.875C92.0106 360.548 85.9227 369.657 81.7691 379.683C77.6155 389.709 75.4777 400.454 75.4777 411.307C75.4777 413.568 75.883 415.147 76.267 416.021C76.587 416.747 76.8217 416.875 76.907 416.939C88.1923 423.552 120.555 436.501 199.744 436.501C278.891 436.501 311.275 423.552 322.539 416.939C322.646 416.875 322.88 416.725 323.2 416.021C323.776 414.518 324.044 412.915 323.99 411.307C323.99 389.393 315.285 368.378 299.79 352.883C284.295 337.388 263.279 328.683 241.366 328.683H158.123ZM42.667 411.307C42.667 380.686 54.8311 351.319 76.4833 329.667C98.1355 308.015 127.502 295.851 158.123 295.851H241.366C271.983 295.856 301.344 308.023 322.992 329.674C344.639 351.326 356.8 380.689 356.8 411.307C356.8 422.272 353.088 437.056 339.158 445.227C320.811 456.021 281.771 469.333 199.744 469.333C117.675 469.333 78.6563 456.021 60.3097 445.227C46.379 437.077 42.667 422.293 42.667 411.307ZM331.584 82.9225C332.723 78.7243 335.481 75.1493 339.252 72.9817C343.024 70.814 347.501 70.2308 351.702 71.3598C387.904 81.1518 413.078 116.885 413.078 157.547C413.078 200.491 383.638 239.211 342.358 244.16C338.154 244.453 333.999 243.119 330.752 240.435C327.504 237.751 325.412 233.921 324.908 229.738C324.404 225.555 325.526 221.338 328.043 217.959C330.561 214.58 334.28 212.298 338.432 211.584C360.448 208.939 380.246 186.837 380.246 157.547C380.246 129.749 363.222 108.48 343.147 103.04C338.949 101.901 335.374 99.1433 333.206 95.3719C331.039 91.6005 330.455 87.1234 331.584 82.9225ZM380.544 309.12C381.38 304.846 383.879 301.079 387.491 298.647C391.104 296.214 395.534 295.316 399.808 296.149C419.396 299.967 437.045 310.48 449.73 325.886C462.415 341.292 469.346 360.63 469.334 380.587V392C469.334 402.091 466.304 416.469 453.12 424.896C444.267 430.571 430.507 436.608 409.302 440.896C407.152 441.424 404.918 441.512 402.734 441.154C400.55 440.797 398.46 440.002 396.591 438.817C394.722 437.633 393.111 436.082 391.856 434.259C390.6 432.436 389.726 430.379 389.286 428.21C388.846 426.041 388.849 423.805 389.294 421.637C389.74 419.469 390.619 417.413 391.878 415.594C393.138 413.774 394.752 412.227 396.625 411.047C398.497 409.867 400.589 409.077 402.774 408.725C420.886 405.056 430.656 400.299 435.456 397.248L435.499 397.205C435.632 397.022 435.74 396.821 435.819 396.608C436.341 395.122 436.58 393.552 436.523 391.979V380.587C436.527 368.246 432.238 356.288 424.391 346.764C416.545 337.239 405.628 330.741 393.515 328.384C389.246 327.548 385.482 325.052 383.05 321.445C380.619 317.837 379.717 313.412 380.544 309.141V309.12Z" fill="black"/>
</svg>
