<svg width="512" height="512" viewBox="0 0 512 512" fill="none" xmlns="http://www.w3.org/2000/svg">
<path d="M469.717 129.996H459.807C455.805 129.996 451.936 130.567 448.265 131.611C444.524 112.096 427.335 97.3024 406.746 97.3024H396.837C373.522 97.3024 354.553 116.271 354.553 139.585V207.833H157.446V131.226C157.446 107.911 138.477 88.9434 115.163 88.9434H105.254C84.665 88.9434 67.476 103.737 63.736 123.252C59.9817 122.182 56.0969 121.638 52.193 121.637H42.284C18.969 121.637 0 140.604 0 163.92V339.72C0 363.035 18.969 382.003 42.283 382.003H52.192C56.194 382.003 60.063 381.432 63.735 380.388C67.476 399.903 84.665 414.697 105.253 414.697H115.162C138.477 414.697 157.445 395.728 157.445 372.414V311.012H354.552V380.774C354.552 404.089 373.521 423.057 396.836 423.057H406.745C427.334 423.057 444.524 408.262 448.264 388.748C452.018 389.819 455.902 390.362 459.806 390.363H469.716C493.03 390.363 511.999 371.394 511.999 348.08V172.279C512 148.964 493.031 129.996 469.717 129.996ZM62.971 339.72C62.971 345.664 58.136 350.5 52.192 350.5H42.283C36.339 350.5 31.504 345.664 31.504 339.72V163.92C31.504 157.976 36.339 153.141 42.283 153.141H52.192C58.136 153.141 62.971 157.976 62.971 163.92V339.72ZM125.942 372.415C125.942 378.359 121.107 383.194 115.163 383.194H105.254C99.31 383.194 94.475 378.359 94.475 372.415V131.224C94.475 125.28 99.311 120.445 105.254 120.445H115.163C121.107 120.445 125.942 125.28 125.942 131.224V372.415ZM354.554 279.509H157.446V239.336H354.553L354.554 279.509ZM417.525 380.775C417.525 386.719 412.69 391.554 406.745 391.554H396.836C390.892 391.554 386.056 386.719 386.056 380.775V139.584C386.056 133.64 390.891 128.805 396.836 128.805H406.745C412.689 128.805 417.525 133.64 417.525 139.584V380.775ZM480.496 348.079C480.496 354.023 475.661 358.858 469.717 358.858H459.807C453.864 358.858 449.028 354.023 449.028 348.079V172.279C449.028 166.335 453.863 161.5 459.807 161.5H469.717C475.66 161.5 480.496 166.335 480.496 172.279V348.079Z" fill="black"/>
</svg>
