<svg width="512" height="512" viewBox="0 0 512 512" fill="none" xmlns="http://www.w3.org/2000/svg">
<g clip-path="url(#clip0_1024_4094)">
<path d="M511.949 277.335C511.535 269.936 508.646 262.663 503.281 257.02C437.252 187.582 349.429 149.332 255.99 149.332C162.562 149.332 74.7389 187.582 8.71989 257.02C3.35489 262.663 0.465888 269.936 0.0518878 277.334C-0.431112 285.969 2.45789 294.773 8.71989 301.354L57.8929 353.094C69.4569 365.24 89.9799 365.24 101.544 353.094C117.994 335.792 136.694 321.531 157.03 310.761C167.219 305.511 173.803 294.459 173.709 284.011L181.147 227.948C235.591 210.573 276.961 210.563 330.863 227.938L338.197 282.605C338.197 294.428 344.469 305.22 354.72 310.855C375.16 321.678 393.86 335.938 410.321 353.23C416.103 359.324 423.854 362.668 432.147 362.668C440.429 362.668 448.18 359.324 453.962 353.241L503.281 301.366C509.543 294.778 512.432 285.971 511.949 277.335Z" fill="black"/>
</g>
<defs>
<clipPath id="clip0_1024_4094">
<rect width="512" height="512" fill="white"/>
</clipPath>
</defs>
</svg>
