<svg width="512" height="512" viewBox="0 0 512 512" fill="none" xmlns="http://www.w3.org/2000/svg">
<path fill-rule="evenodd" clip-rule="evenodd" d="M26.6665 255.999C26.6665 129.343 129.344 26.666 256 26.666C382.656 26.666 485.333 129.343 485.333 255.999C485.333 382.655 382.656 485.333 256 485.333C129.344 485.333 26.6665 382.655 26.6665 255.999ZM256 58.666C203.664 58.666 153.471 79.4564 116.464 116.464C79.4569 153.471 58.6665 203.663 58.6665 255.999C58.6665 308.335 79.4569 358.528 116.464 395.535C153.471 432.542 203.664 453.333 256 453.333C308.336 453.333 358.528 432.542 395.536 395.535C432.543 358.528 453.333 308.335 453.333 255.999C453.333 203.663 432.543 153.471 395.536 116.464C358.528 79.4564 308.336 58.666 256 58.666ZM267.904 298.73L284.267 159.786C284.732 155.797 284.348 151.755 283.141 147.926C281.933 144.096 279.928 140.565 277.258 137.565C274.588 134.566 271.314 132.165 267.65 130.521C263.986 128.877 260.016 128.027 256 128.027C251.984 128.027 248.014 128.877 244.35 130.521C240.686 132.165 237.412 134.566 234.742 137.565C232.072 140.565 230.067 144.096 228.859 147.926C227.651 151.755 227.267 155.797 227.733 159.786L244.096 298.73C244.445 301.642 245.849 304.324 248.043 306.27C250.237 308.217 253.067 309.291 256 309.291C258.932 309.291 261.763 308.217 263.957 306.27C266.15 304.324 267.555 301.642 267.904 298.73ZM256 383.999C261.658 383.999 267.084 381.752 271.085 377.751C275.086 373.75 277.333 368.324 277.333 362.666C277.333 357.008 275.086 351.582 271.085 347.581C267.084 343.58 261.658 341.333 256 341.333C250.342 341.333 244.916 343.58 240.915 347.581C236.914 351.582 234.667 357.008 234.667 362.666C234.667 368.324 236.914 373.75 240.915 377.751C244.916 381.752 250.342 383.999 256 383.999Z" fill="black"/>
</svg>
