<svg width="512" height="512" viewBox="0 0 512 512" fill="none" xmlns="http://www.w3.org/2000/svg">
<g clip-path="url(#clip0_55_4146)">
<path d="M248.157 343.22C233.518 343.22 221.666 355.42 221.666 370.06C221.666 384.351 233.169 396.9 248.157 396.9C263.145 396.9 274.997 384.352 274.997 370.06C274.997 355.42 262.798 343.22 248.157 343.22ZM252.689 140.002C205.632 140.002 184.021 167.887 184.021 186.71C184.021 200.305 195.523 206.579 204.935 206.579C223.757 206.579 216.089 179.739 251.643 179.739C269.072 179.739 283.015 187.408 283.015 203.442C283.015 222.266 263.495 233.071 251.992 242.831C241.884 251.545 228.638 265.837 228.638 295.814C228.638 313.939 233.517 319.168 247.809 319.168C264.889 319.168 268.374 311.5 268.374 304.877C268.374 286.751 268.724 276.294 287.895 261.306C297.306 253.986 326.935 230.283 326.935 197.517C326.935 164.751 297.306 140.002 252.689 140.002Z" fill="#278867"/>
<path d="M256 0C114.516 0 0 114.497 0 256V492C0 503.046 8.954 512 20 512H256C397.483 512 512 397.503 512 256C512 114.516 397.503 0 256 0ZM256 472H40V256C40 136.623 136.607 40 256 40C375.377 40 472 136.607 472 256C472 375.377 375.393 472 256 472Z" fill="#278867"/>
</g>
<defs>
<clipPath id="clip0_55_4146">
<rect width="512" height="512" fill="white"/>
</clipPath>
</defs>
</svg>
