<svg width="512" height="512" viewBox="0 0 512 512" fill="none" xmlns="http://www.w3.org/2000/svg">
<path d="M480.534 131.405V388.956C498.624 384.164 512 367.658 512 348.081V172.279C512 152.702 498.624 136.196 480.534 131.405ZM406.746 97.3014H396.837C373.522 97.3014 354.553 116.27 354.553 139.584V380.775C354.553 404.09 373.522 423.058 396.837 423.058H406.746C430.061 423.058 449.03 404.09 449.03 380.775V139.584C449.029 116.269 430.061 97.3014 406.746 97.3014ZM188.952 207.834H323.055V311.01H188.952V207.834ZM0 163.92V339.721C0 359.298 13.376 375.805 31.466 380.596V123.044C13.376 127.836 0 144.343 0 163.92ZM115.164 88.9424H105.255C81.94 88.9424 62.972 107.911 62.972 131.225V372.415C62.972 395.73 81.941 414.698 105.255 414.698H115.164C138.479 414.698 157.447 395.729 157.447 372.415V131.225C157.446 107.91 138.478 88.9424 115.164 88.9424Z" fill="black"/>
</svg>
