<svg width="160" height="169" viewBox="0 0 160 169" fill="none" xmlns="http://www.w3.org/2000/svg">
<path d="M78.9033 102.616C79.6153 101.89 80.2929 101.197 80.9514 100.523C83.8466 97.5608 86.3715 94.9772 89.8158 91.7003L89.8174 91.6988C90.9884 90.5863 91.7325 89.7383 92.1539 88.919C92.5145 88.2181 92.6771 87.4663 92.4469 86.3823L92.4465 86.3805C92.1719 85.0835 92.5126 83.7528 92.6421 83.2471C92.6535 83.2024 92.6633 83.1641 92.6709 83.1329C94.4714 75.688 97.1697 69.0976 101.741 63.7377C106.344 58.34 112.658 54.41 121.307 51.9762L121.423 51.9436L121.54 51.9205C130.712 50.1157 138.554 53.1134 144.002 56.4277C146.47 57.9293 148.492 59.5209 149.984 60.8251C150.028 60.7353 150.076 60.6394 150.126 60.5368L150.126 60.5359C153.378 53.9145 155.585 47.2606 155.532 40.2168C155.383 21.226 140.598 5.77363 121.395 4.53299L78.9033 102.616ZM78.9033 102.616C77.6022 101.532 76.6039 100.742 75.7329 100.052C73.784 98.5094 72.4726 97.4713 69.8332 94.7776C69.8262 94.735 69.8189 94.6866 69.8118 94.6322C69.7856 94.4311 69.7691 94.2085 69.7621 93.9962C69.7549 93.7798 69.759 93.6159 69.7641 93.5351L69.7645 93.5275C70.2784 84.9669 65.1916 77.8066 59.8945 72.6389L78.9033 102.616ZM76.7988 34.9783C73.8001 15.0366 54.3899 1.30684 34.6209 5.09917L34.6205 5.09925C22.3454 7.45223 12.074 14.9366 7.32767 25.1907C2.94492 34.6594 3.06732 46.9481 11.4381 60.5281C11.7749 60.17 12.1392 59.7756 12.5312 59.348C12.7924 59.063 13.0644 58.7649 13.3458 58.4565C14.8884 56.7658 16.7125 54.7666 18.5875 52.9302C20.7665 50.7961 23.2551 48.6358 25.7064 47.398C26.9431 46.7735 28.3852 46.2715 29.9117 46.2783C31.548 46.2857 33.1096 46.8826 34.3653 48.1478L34.3661 48.1486C38.4438 52.2598 43.9963 57.511 49.3507 62.5748C53.1678 66.1848 56.8841 69.6994 59.8936 72.6379L76.7988 34.9783ZM76.7988 34.9783C76.8666 35.5041 77.0281 36.328 77.5594 37.0627C77.8665 37.4872 78.3665 37.9742 79.1114 38.246C79.8785 38.5259 80.6224 38.4741 81.21 38.2864C82.2316 37.9603 82.8107 37.2394 83.0524 36.889C83.3339 36.4809 83.6057 35.9215 83.7038 35.2636L83.704 35.2625C86.4674 16.6916 102.992 3.34876 121.395 4.53294L76.7988 34.9783ZM82.7593 34.2665C82.7588 34.2674 82.7554 34.2533 82.751 34.2216C82.7577 34.2498 82.7599 34.2656 82.7593 34.2665Z" stroke="black" stroke-width="6" stroke-miterlimit="10"/>
<path d="M143.868 80.4052L143.868 80.4061C143.787 84.5744 142.569 88.3674 140.244 91.8102L140.244 91.8108C136.041 98.0384 130.789 102.648 123.857 104.781C122.141 105.309 119.969 105.302 117.606 105.067L117.605 105.067C116.681 104.976 115.58 104.93 114.439 105.239C113.222 105.569 112.228 106.224 111.352 107.102C99.8261 118.647 88.2812 130.168 76.7347 141.691C69.9121 148.5 63.0888 155.309 56.2685 162.124L56.2667 162.126C54.4358 163.958 53.1924 164.638 51.6803 164.478L51.6784 164.477C50.5447 164.358 49.7325 164.016 49.1387 163.559C48.5481 163.105 48.0197 162.419 47.634 161.367L47.6334 161.366C46.9578 159.527 47.3304 157.985 48.8365 156.465C53.3769 151.883 57.9409 147.336 62.5133 142.782C64.7187 140.585 66.926 138.386 69.1335 136.18C70.275 135.041 71.4166 133.901 72.5583 132.761C83.4125 121.925 94.2708 111.084 105.089 100.207L105.091 100.206C105.593 99.7001 106.099 99.0332 106.474 98.315C106.778 97.733 107.334 96.4914 107.041 95.0809C105.885 89.4831 107.84 84.7147 111.533 79.8732C116.931 72.8057 123.308 68.4757 130.244 68.1022C134.991 68.1031 138.382 69.484 140.544 71.5305C142.698 73.5681 143.944 76.5559 143.868 80.4052Z" stroke="black" stroke-width="6" stroke-miterlimit="10"/>
<path d="M74.0709 113.641L74.0827 113.644L74.0754 113.637M74.0709 113.641L69.8272 113.645C70.5349 112.941 71.2426 112.237 71.9549 111.529C72.1657 111.731 72.38 111.939 72.5983 112.151L74.0553 113.616M74.0709 113.641L74.0754 113.637M74.0709 113.641L71.1724 112.916L71.1772 112.897L74.0553 113.616M74.0754 113.637L74.0876 113.625L74.0553 113.616M74.0754 113.637L74.0553 113.616M33.8478 92.2017C33.8855 92.2402 33.9272 92.2832 33.9723 92.3296C34.0287 92.3876 34.0904 92.451 34.156 92.518C34.1561 92.518 34.1561 92.5181 34.1561 92.5181C34.3636 92.7298 34.611 92.9769 34.8577 93.2C35.2585 93.5621 35.844 94.0385 36.5892 94.3746C36.7531 94.4485 36.9263 94.5163 37.1079 94.575C36.6876 93.1745 35.7004 92.1311 35.1172 91.5513L35.117 91.5512C35.0169 91.4516 34.9167 91.352 34.8165 91.2524M33.8478 92.2017C33.8513 92.2052 33.8548 92.2087 33.8583 92.2121L34.8165 91.2524M33.8478 92.2017C33.8439 92.1977 33.8401 92.1939 33.8363 92.19L34.8044 91.2404M33.8478 92.2017C33.7255 92.0795 33.6065 91.9581 33.4993 91.8487L33.4943 91.8436C33.3796 91.7267 33.2778 91.6229 33.1769 91.5221M34.8165 91.2524C34.8124 91.2484 34.8084 91.2444 34.8044 91.2404M34.8165 91.2524L35.9779 90.0892L34.8044 91.2404M34.8044 91.2404C34.5793 91.0166 34.3543 90.7929 34.1293 90.5692M33.1769 91.5221C33.1776 91.5228 33.1783 91.5235 33.1791 91.5242L34.1293 90.5692M33.1769 91.5221C33.1764 91.5215 33.1758 91.521 33.1753 91.5205L34.1272 90.5671M33.1769 91.5221C31.4828 89.8366 29.7867 88.151 28.0898 86.4646C24.6555 83.0515 21.2181 79.6353 17.7885 76.2117M34.1293 90.5692C34.1286 90.5685 34.1279 90.5678 34.1272 90.5671M34.1293 90.5692L35.295 89.3975L34.1272 90.5671M34.1272 90.5671C30.089 86.5515 26.0559 82.5312 22.0223 78.5104C20.9312 77.4227 19.84 76.3349 18.7486 75.2472C18.7491 75.2477 18.7496 75.2482 18.7501 75.2487L17.7885 76.2117M17.7885 76.2117C17.7882 76.2114 17.7878 76.211 17.7875 76.2107M17.7885 76.2117L16.6305 77.3715L17.7875 76.2107M17.7875 76.2107C17.3999 75.8238 17.0125 75.4368 16.6251 75.0497M17.7875 76.2107L18.7482 75.2468M16.6251 75.0497L18.7482 75.2468M16.6251 75.0497C16.626 75.0505 16.6268 75.0514 16.6277 75.0522L16.8874 74.7909M16.6251 75.0497L18.7482 75.2468M16.6251 75.0497C16.6215 75.0461 16.618 75.0426 16.6144 75.0391C16.6143 75.039 16.6142 75.0389 16.614 75.0388C16.4479 74.8751 16.3345 74.7911 16.2775 74.7552C16.2676 74.749 16.261 74.7452 16.2576 74.7433C16.2706 74.7497 16.3299 74.7766 16.4329 74.7957C16.5642 74.82 16.7168 74.822 16.8703 74.7942C16.8707 74.7941 16.8711 74.794 16.8714 74.794C16.8728 74.7937 16.8741 74.7935 16.8754 74.7932M16.6251 75.0497C16.6241 75.0487 16.6231 75.0477 16.6221 75.0467L16.8754 74.7932M18.7482 75.2468C18.602 75.1009 18.4677 74.9683 18.3409 74.8431C18.0756 74.5812 17.8427 74.3512 17.6011 74.0979L17.6005 74.0972C17.5966 74.0932 17.5928 74.0892 17.589 74.0852M16.8874 74.7909C16.9424 74.7802 16.9974 74.7656 17.0514 74.7467C17.1506 74.7122 17.215 74.6746 17.2466 74.6536C17.2467 74.6535 17.2468 74.6535 17.2468 74.6534C17.2476 74.6529 17.2483 74.6524 17.2491 74.6519M16.8874 74.7909L17.1221 74.5549L17.1357 74.5412L17.1359 74.541L17.1421 74.5347L17.3879 74.2875M16.8874 74.7909C16.8834 74.7917 16.8794 74.7925 16.8754 74.7932M17.2491 74.6519C17.2485 74.6527 17.248 74.6534 17.2475 74.6541C17.2475 74.6542 17.2474 74.6543 17.2474 74.6544C17.2395 74.6655 17.2349 74.671 17.2349 74.671C17.2349 74.671 17.2393 74.6661 17.2492 74.6562L17.2494 74.656C17.2629 74.6428 17.2697 74.6371 17.2697 74.6371C17.2697 74.6371 17.2629 74.6427 17.2491 74.6519ZM17.2491 74.6519C17.2681 74.6246 17.3032 74.5674 17.3364 74.478C17.3576 74.4209 17.3736 74.3625 17.3848 74.3043C17.3849 74.3038 17.385 74.3033 17.3851 74.3028C17.386 74.2977 17.387 74.2926 17.3879 74.2875M17.3879 74.2875L17.589 74.0852M17.3879 74.2875C17.3884 74.2847 17.3889 74.2818 17.3894 74.279M17.589 74.0852L18.7426 72.9248L17.5861 74.0821M17.589 74.0852C17.588 74.0842 17.5871 74.0831 17.5861 74.0821M17.5861 74.0821C17.4523 73.9399 17.3869 73.8425 17.3617 73.7984C17.3578 73.7915 17.3554 73.7869 17.3543 73.7846C17.3588 73.7947 17.3819 73.8497 17.3956 73.947C17.4098 74.0482 17.409 74.1627 17.3894 74.279M17.5861 74.0821L17.3894 74.279M17.3894 74.279L17.1317 74.5368L17.1315 74.5369L16.9612 74.7074L16.9412 74.7274L16.8754 74.7932M10.7585 81.6957C10.7954 81.7321 10.8337 81.7702 10.8734 81.8101L10.8767 81.8134C14.0243 84.9697 17.1892 88.1281 20.351 91.2835C22.8773 93.8046 25.4016 96.3238 27.9137 98.8385L27.9164 98.8412L27.9416 98.8663C28.4159 99.3402 29.3913 100.315 30.6751 100.776C30.9472 100.873 31.2393 100.951 31.5474 101C30.5809 100.036 29.6145 99.0722 28.6481 98.1084C28.6475 98.1078 28.6469 98.1072 28.6463 98.1066C27.9367 97.3989 27.2271 96.6912 26.5175 95.9835C21.5426 91.0216 16.5678 86.06 11.5913 81.1008C11.5905 81.1001 11.5898 81.0993 11.589 81.0986C11.5496 81.0593 11.5101 81.02 11.4707 80.9807M10.7585 81.6957L11.4716 80.9815C11.4713 80.9812 11.471 80.981 11.4707 80.9807M10.7585 81.6957C10.758 81.6953 10.7576 81.6948 10.7571 81.6944M10.7585 81.6957L9.35191 83.1045L10.7571 81.6944M11.4707 80.9807C11.1748 80.6852 10.9807 80.4793 10.8432 80.3062C10.7587 80.1999 10.7314 80.1494 10.7311 80.1496C10.7309 80.1497 10.7427 80.1723 10.7576 80.2157C10.7801 80.2814 10.808 80.3902 10.8145 80.5326C10.8212 80.6788 10.8036 80.8246 10.7658 80.9565C10.7519 81.005 10.737 81.0462 10.7227 81.0803M11.4707 80.9807C11.4703 80.9803 11.4699 80.9799 11.4695 80.9795L10.7571 81.6944M10.7571 81.6944C10.5224 81.4633 10.3414 81.3022 10.1924 81.1894C10.0805 81.1047 10.0272 81.0788 10.0273 81.0785C10.0274 81.0783 10.045 81.0866 10.0791 81.097C10.135 81.1141 10.2261 81.1342 10.3437 81.1368C10.464 81.1394 10.5802 81.1229 10.6813 81.0934C10.6868 81.0918 10.6921 81.0902 10.6973 81.0886C10.6976 81.0885 10.6978 81.0884 10.698 81.0884C10.7066 81.0857 10.7149 81.083 10.7227 81.0803M10.7227 81.0803C10.7194 81.0884 10.716 81.0961 10.7127 81.1034C10.7126 81.1036 10.7125 81.1038 10.7125 81.104C10.6858 81.1633 10.6634 81.1962 10.6581 81.2036M10.7227 81.0803C10.8052 81.0522 10.8458 81.0254 10.8458 81.0253C10.8458 81.0252 10.8076 81.0502 10.7325 81.1237L10.7321 81.1241C10.6848 81.1703 10.6632 81.197 10.6581 81.2036M10.6581 81.2036C10.6573 81.2047 10.6569 81.2052 10.6569 81.2052C10.6569 81.2052 10.6573 81.2047 10.6581 81.2036ZM65.3275 122.352C64.6317 123.043 63.9234 123.747 63.1991 124.467C62.6882 123.931 62.2417 123.484 61.8383 123.097L61.0848 122.339C61.7996 121.628 62.4987 120.934 63.1855 120.251C63.7908 120.8 64.4792 121.464 65.3275 122.352ZM30.0046 61.7575C30.0016 61.7702 29.9986 61.7817 29.9956 61.792C29.9952 61.7933 29.9948 61.7946 29.9945 61.7959C29.9828 61.8357 29.9728 61.8561 29.9729 61.8561C29.9729 61.8562 29.9815 61.8388 30.0052 61.8031L30.0074 61.7998C30.0568 61.7256 30.0848 61.6976 30.0848 61.6976C30.0848 61.6977 30.0599 61.7228 30.0046 61.7575ZM42.245 87.5743C42.2467 87.5751 42.2484 87.576 42.2502 87.5768L42.6796 86.6828C42.6777 86.6802 42.6759 86.6776 42.674 86.675L42.2388 87.5713C42.2408 87.5723 42.2429 87.5733 42.245 87.5743ZM24.2983 68.0687C24.2968 68.0672 24.2954 68.0657 24.2939 68.0642L23.2782 69.0966C23.2799 69.0983 23.2816 69.0999 23.2832 69.1015C23.2844 69.1027 23.2856 69.1039 23.2868 69.105L24.2983 68.0687ZM24.1202 67.8927C24.1179 67.8884 24.1154 67.8834 24.1127 67.8779C24.0934 67.8581 24.0742 67.8383 24.0549 67.8185C24.0984 67.8633 24.1203 67.8946 24.1265 67.904C24.1251 67.9017 24.123 67.898 24.1202 67.8927ZM23.4019 68.5815C23.3871 68.5961 23.3763 68.6057 23.3701 68.6108C23.3739 68.608 23.3794 68.6041 23.3868 68.5992C23.418 68.5785 23.4403 68.5684 23.4402 68.5681C23.4402 68.5681 23.4384 68.5687 23.4347 68.5702C23.43 68.5719 23.4191 68.5761 23.4019 68.5815Z" stroke="black" stroke-width="6" stroke-miterlimit="10"/>
<path d="M115.412 163.881C117.207 160.983 116.924 157.325 114.363 154.719L112.862 162.3M115.412 163.881L112.864 162.298C112.863 162.298 112.863 162.299 112.862 162.3M115.412 163.881C112.797 168.089 107.47 168.825 103.709 165.274L115.412 163.881ZM112.862 162.3C113.949 160.545 113.788 158.414 112.224 156.822L112.221 156.82C106.671 151.161 102.415 146.86 97.0946 141.556C96.4461 142.155 95.6867 142.861 94.8709 143.624C93.4273 144.974 91.8165 146.494 90.3405 147.902C91.0446 148.546 91.742 149.2 92.8616 150.297L92.862 150.297C94.6451 152.046 96.3578 153.773 98.0529 155.482C100.605 158.055 103.117 160.588 105.769 163.093C108.171 165.361 111.264 164.869 112.862 162.3Z" stroke="black" stroke-width="6" stroke-miterlimit="10"/>
</svg>
