<svg width="512" height="512" viewBox="0 0 512 512" fill="none" xmlns="http://www.w3.org/2000/svg">
<path d="M384 26.6665H128C101.125 26.6665 75.3502 37.3427 56.3465 56.3463C37.3428 75.35 26.6666 101.125 26.6666 128V384C26.5659 384.348 26.5659 384.718 26.6666 385.066C26.9476 411.756 37.7477 437.258 56.721 456.031C75.6943 474.805 101.308 485.335 128 485.333H384C410.582 485.28 436.078 474.784 454.993 456.108C473.909 437.433 484.728 412.072 485.12 385.493V128C485.12 101.161 474.473 75.4192 455.516 56.4217C436.558 37.4241 410.838 26.723 384 26.6665ZM453.333 341.333L364.16 239.36C358.494 233.328 351.653 228.521 344.058 225.235C336.463 221.949 328.275 220.254 320 220.254C311.725 220.254 303.537 221.949 295.942 225.235C288.347 228.521 281.506 233.328 275.84 239.36L214.613 309.333L194.56 285.013C189.034 278.384 182.119 273.051 174.303 269.392C166.488 265.732 157.963 263.835 149.333 263.835C140.703 263.835 132.179 265.732 124.363 269.392C116.548 273.051 109.632 278.384 104.107 285.013L58.6666 339.84V128C58.7229 109.629 66.0457 92.0263 79.036 79.0359C92.0264 66.0456 109.629 58.7228 128 58.6665H384C402.371 58.7228 419.974 66.0456 432.964 79.0359C445.954 92.0263 453.277 109.629 453.333 128V341.333Z" fill="black"/>
<path d="M149.333 192C172.897 192 192 172.897 192 149.333C192 125.769 172.897 106.667 149.333 106.667C125.769 106.667 106.667 125.769 106.667 149.333C106.667 172.897 125.769 192 149.333 192Z" fill="black"/>
</svg>
