<svg width="460" height="460" viewBox="0 0 460 460" fill="none" xmlns="http://www.w3.org/2000/svg">
<path d="M107.333 144.667C107.333 156.27 110.773 167.613 117.22 177.26C123.666 186.908 132.829 194.427 143.549 198.868C154.269 203.308 166.064 204.47 177.445 202.206C188.825 199.942 199.278 194.355 207.483 186.15C215.688 177.946 221.275 167.492 223.539 156.112C225.802 144.732 224.641 132.936 220.2 122.216C215.76 111.496 208.24 102.334 198.593 95.8872C188.945 89.4408 177.603 86.0001 165.999 86.0001C150.443 86.0114 135.528 92.1959 124.528 103.196C113.529 114.195 107.344 129.111 107.333 144.667ZM192.666 144.667C192.666 149.941 191.102 155.097 188.172 159.482C185.242 163.867 181.077 167.285 176.204 169.304C171.332 171.322 165.97 171.85 160.797 170.821C155.624 169.792 150.873 167.252 147.143 163.523C143.414 159.794 140.874 155.042 139.845 149.869C138.816 144.696 139.344 139.335 141.363 134.462C143.381 129.589 146.799 125.424 151.184 122.494C155.569 119.564 160.725 118 165.999 118C173.068 118.011 179.845 120.825 184.843 125.823C189.842 130.822 192.655 137.598 192.666 144.667ZM443.333 171.333C439.089 171.333 435.02 173.019 432.019 176.02C429.018 179.02 427.333 183.09 427.333 187.333V235.696L418.991 228.549C407.595 219.107 393.259 213.939 378.458 213.939C363.658 213.939 349.321 219.107 337.925 228.549L249.199 304.667C243.606 309.12 236.669 311.545 229.519 311.545C222.37 311.545 215.432 309.12 209.839 304.667L202.757 298.587C192.247 289.888 179.223 284.793 165.601 284.052C151.979 283.311 138.479 286.963 127.087 294.469L39.0447 353.563C34.4268 334.055 32.2838 314.043 32.666 294V166C32.666 67.5681 67.5674 32.6667 165.999 32.6667H251.333C255.576 32.6667 259.646 30.981 262.646 27.9805C265.647 24.9799 267.333 20.9102 267.333 16.6667C267.333 12.4233 265.647 8.35362 262.646 5.35304C259.646 2.35246 255.576 0.666748 251.333 0.666748H165.999C50.1167 0.666748 0.666016 50.0961 0.666016 166V294C0.666016 409.904 50.1167 459.333 165.999 459.333H293.999C409.882 459.333 459.333 409.904 459.333 294V187.333C459.333 183.09 457.647 179.02 454.646 176.02C451.646 173.019 447.576 171.333 443.333 171.333ZM427.333 294C427.333 392.432 392.431 427.333 293.999 427.333H165.999C107.183 427.333 71.194 414.725 51.6313 383.707L144.901 321.115C150.494 317.537 157.061 315.787 163.693 316.108C170.325 316.429 176.693 318.805 181.914 322.907L188.997 329.008C200.385 338.47 214.724 343.65 229.53 343.65C244.336 343.65 258.676 338.47 270.063 329.008L358.853 252.827C364.45 248.393 371.381 245.981 378.522 245.981C385.663 245.981 392.594 248.393 398.191 252.827L427.375 277.872L427.333 294ZM293.999 80.6668C293.999 76.4233 295.685 72.3536 298.686 69.353C301.686 66.3525 305.756 64.6667 309.999 64.6667H352.666V22.0001C352.666 17.7566 354.352 13.687 357.352 10.6864C360.353 7.68579 364.423 6.00008 368.666 6.00008C372.909 6.00008 376.979 7.68579 379.98 10.6864C382.98 13.687 384.666 17.7566 384.666 22.0001V64.6667H427.333C431.576 64.6667 435.646 66.3525 438.646 69.353C441.647 72.3536 443.333 76.4233 443.333 80.6668C443.333 84.9102 441.647 88.9799 438.646 91.9805C435.646 94.981 431.576 96.6668 427.333 96.6668H384.666V139.333C384.666 143.577 382.98 147.647 379.98 150.647C376.979 153.648 372.909 155.333 368.666 155.333C364.423 155.333 360.353 153.648 357.352 150.647C354.352 147.647 352.666 143.577 352.666 139.333V96.6668H309.999C305.756 96.6668 301.686 94.981 298.686 91.9805C295.685 88.9799 293.999 84.9102 293.999 80.6668Z" fill="#278867"/>
</svg>
