<svg width="25" height="24" viewBox="0 0 25 24" fill="none" xmlns="http://www.w3.org/2000/svg">
<g clip-path="url(#clip0_12_324)">
<path d="M6.04578 14.4186L5.23886 17.431L2.28956 17.4934C1.40815 15.8586 0.908203 13.9881 0.908203 12.0005C0.908203 10.0784 1.37564 8.26589 2.20421 6.66992H2.20485L4.83055 7.15131L5.98076 9.76125C5.74003 10.4631 5.60881 11.2165 5.60881 12.0005C5.6089 12.8513 5.76303 13.6665 6.04578 14.4186Z" fill="#FBBB00"/>
<path d="M23.8875 9.83496C24.0206 10.5361 24.09 11.2602 24.09 12.0003C24.09 12.8301 24.0027 13.6396 23.8365 14.4204C23.2723 17.0774 21.7979 19.3975 19.7555 21.0393L19.7549 21.0387L16.4477 20.8699L15.9796 17.948C17.3349 17.1532 18.394 15.9094 18.9519 14.4204H12.7539V9.83496H19.0423H23.8875Z" fill="#518EF8"/>
<path d="M19.7544 21.0381L19.755 21.0388C17.7687 22.6354 15.2454 23.5907 12.4986 23.5907C8.08452 23.5907 4.24679 21.1235 2.28906 17.4927L6.04529 14.418C7.02413 17.0304 9.5442 18.89 12.4986 18.89C13.7685 18.89 14.9582 18.5467 15.9791 17.9474L19.7544 21.0381Z" fill="#28B446"/>
<path d="M19.8965 3.07762L16.1415 6.15175C15.085 5.49134 13.8361 5.10984 12.498 5.10984C9.47674 5.10984 6.90953 7.0548 5.97972 9.76087L2.20376 6.66954H2.20312C4.1322 2.95026 8.01832 0.40918 12.498 0.40918C15.3104 0.40918 17.8891 1.41098 19.8965 3.07762Z" fill="#F14336"/>
</g>
<defs>
<clipPath id="clip0_12_324">
<rect width="23.1818" height="23.1818" fill="white" transform="translate(0.908203 0.40918)"/>
</clipPath>
</defs>
</svg>
