<svg width="512" height="512" viewBox="0 0 512 512" fill="none" xmlns="http://www.w3.org/2000/svg">
<g clip-path="url(#clip0_191_4104)">
<path d="M8.828 282.484H54.73C66.793 373.551 138.45 445.207 229.516 457.27V503.172C229.524 505.511 230.456 507.752 232.11 509.406C233.764 511.06 236.005 511.992 238.344 512H273.656C275.995 511.992 278.236 511.06 279.89 509.406C281.544 507.752 282.476 505.511 282.484 503.172V457.27C373.551 445.207 445.207 373.55 457.27 282.484H503.172C505.511 282.476 507.752 281.544 509.406 279.89C511.06 278.236 511.992 275.995 512 273.656V238.344C511.992 236.005 511.06 233.764 509.406 232.11C507.752 230.456 505.511 229.524 503.172 229.516H457.27C445.207 138.449 373.55 66.793 282.484 54.73V8.828C282.476 6.48902 281.544 4.24802 279.89 2.59411C278.236 0.940191 275.995 0.00764594 273.656 0L238.344 0C236.005 0.00764594 233.764 0.940191 232.11 2.59411C230.456 4.24802 229.524 6.48902 229.516 8.828V54.73C138.449 66.793 66.793 138.45 54.73 229.516H8.828C6.48902 229.524 4.24802 230.456 2.59411 232.11C0.940191 233.764 0.00764594 236.005 0 238.344L0 273.656C0.00764594 275.995 0.940191 278.236 2.59411 279.89C4.24802 281.544 6.48902 282.476 8.828 282.484ZM256 105.93C338.879 105.93 406.07 173.121 406.07 256C406.07 338.879 338.88 406.07 256 406.07C173.12 406.07 105.93 338.88 105.93 256C106.047 173.168 173.168 106.047 256 105.93Z" fill="black"/>
<path d="M326.621 256C326.621 295.004 295.004 326.621 256 326.621C216.996 326.621 185.379 295.004 185.379 256C185.379 216.996 216.996 185.379 256 185.379C295.004 185.379 326.621 216.996 326.621 256Z" fill="black"/>
</g>
<defs>
<clipPath id="clip0_191_4104">
<rect width="512" height="512" fill="white"/>
</clipPath>
</defs>
</svg>
