<svg width="178" height="81" viewBox="0 0 178 81" fill="none" xmlns="http://www.w3.org/2000/svg">
<path d="M169.204 31.7807H167.013C166.642 30.2519 165.921 28.8283 164.904 27.6207C163.888 26.4132 162.604 25.4543 161.152 24.8186C159.7 24.183 158.119 23.8878 156.533 23.9559C154.947 24.0241 153.399 24.4538 152.008 25.2117V21.2068C152.009 19.428 151.542 17.6796 150.653 16.1341C149.764 14.5887 148.483 13.2997 146.937 12.3944C145.391 11.4892 143.633 10.9989 141.837 10.9722C140.041 10.9455 138.269 11.3831 136.697 12.2419V10.2357C136.697 7.52102 135.608 4.91753 133.67 2.99796C131.731 1.0784 129.103 0 126.362 0C123.621 0 120.992 1.0784 119.054 2.99796C117.115 4.91753 116.027 7.52102 116.027 10.2357V31.7807H61.9888V10.2357C61.9888 7.52102 60.8999 4.91753 58.9617 2.99796C57.0235 1.0784 54.3948 0 51.6538 0C48.9127 0 46.284 1.0784 44.3458 2.99796C42.4076 4.91753 41.3187 7.52102 41.3187 10.2357V12.2419C39.7459 11.3831 37.974 10.9455 36.1781 10.9722C34.3823 10.9989 32.6245 11.4892 31.0784 12.3944C29.5323 13.2997 28.2514 14.5887 27.3621 16.1341C26.4728 17.6796 26.0059 19.428 26.0076 21.2068V25.2117C24.6164 24.4523 23.067 24.0214 21.4801 23.9525C19.8932 23.8835 18.3116 24.1784 16.8587 24.8142C15.4058 25.4499 14.1207 26.4094 13.1036 27.6178C12.0865 28.8261 11.3649 30.2508 10.995 31.7807H8.80392C6.46898 31.7807 4.22966 32.6993 2.57861 34.3345C0.927553 35.9697 0 38.1875 0 40.5C0 42.8125 0.927553 45.0303 2.57861 46.6655C4.22966 48.3007 6.46898 49.2193 8.80392 49.2193H10.995C11.3649 50.7492 12.0865 52.1739 13.1036 53.3822C14.1207 54.5906 15.4058 55.5501 16.8587 56.1858C18.3116 56.8216 19.8932 57.1165 21.4801 57.0475C23.067 56.9786 24.6164 56.5477 26.0076 55.7883V59.7932C26.0059 61.572 26.4728 63.3204 27.3621 64.8659C28.2514 66.4113 29.5323 67.7003 31.0784 68.6056C32.6245 69.5109 34.3823 70.0011 36.1781 70.0278C37.974 70.0546 39.7459 69.6169 41.3187 68.7581V70.7643C41.3187 73.479 42.4076 76.0825 44.3458 78.002C46.284 79.9216 48.9127 81 51.6538 81C54.3948 81 57.0235 79.9216 58.9617 78.002C60.8999 76.0825 61.9888 73.479 61.9888 70.7643V49.2193H116.019V70.7643C116.019 73.479 117.108 76.0825 119.046 78.002C120.984 79.9216 123.613 81 126.354 81C129.095 81 131.724 79.9216 133.662 78.002C135.6 76.0825 136.689 73.479 136.689 70.7643V68.7581C138.262 69.6169 140.034 70.0546 141.83 70.0278C143.625 70.0011 145.383 69.5109 146.929 68.6056C148.475 67.7003 149.756 66.4113 150.646 64.8659C151.535 63.3204 152.002 61.572 152 59.7932V55.7883C153.391 56.5462 154.94 56.9759 156.526 57.0441C158.112 57.1122 159.692 56.817 161.144 56.1813C162.596 55.5457 163.88 54.5868 164.897 53.3793C165.913 52.1717 166.635 50.7481 167.005 49.2193H169.196C171.531 49.2193 173.77 48.3007 175.421 46.6655C177.072 45.0303 178 42.8125 178 40.5C178 38.1875 177.072 35.9697 175.421 34.3345C173.77 32.6993 171.531 31.7807 169.196 31.7807H169.204ZM5.35891 40.5C5.35871 40.0519 5.44768 39.6081 5.62074 39.1941C5.79379 38.78 6.04754 38.4038 6.36748 38.087C6.68742 37.7701 7.06728 37.5188 7.48534 37.3474C7.90339 37.176 8.35146 37.0879 8.80392 37.0881H10.6964V43.9119H8.80392C7.89062 43.9107 7.01507 43.5508 6.36927 42.9112C5.72347 42.2717 5.36012 41.4045 5.35891 40.5ZM21.0314 51.7502C19.7122 51.7486 18.4474 51.2288 17.5146 50.3049C16.5817 49.381 16.0569 48.1284 16.0553 46.8219V34.1781C16.0553 32.8711 16.5796 31.6175 17.5128 30.6933C18.446 29.7691 19.7117 29.2498 21.0314 29.2498C22.3512 29.2498 23.6169 29.7691 24.5501 30.6933C25.4833 31.6175 26.0076 32.8711 26.0076 34.1781V46.8219C26.0059 48.1284 25.4811 49.381 24.5483 50.3049C23.6154 51.2288 22.3507 51.7486 21.0314 51.7502ZM36.3426 64.7215C35.0233 64.7198 33.7586 64.2001 32.8257 63.2762C31.8929 62.3523 31.3681 61.0997 31.3665 59.7932V21.2068C31.3665 19.8998 31.8907 18.6463 32.8239 17.722C33.7571 16.7978 35.0228 16.2786 36.3426 16.2786C37.6623 16.2786 38.928 16.7978 39.8612 17.722C40.7945 18.6463 41.3187 19.8998 41.3187 21.2068V59.7932C41.3171 61.0997 40.7923 62.3523 39.8595 63.2762C38.9266 64.2001 37.6618 64.7198 36.3426 64.7215ZM56.6299 70.7643C56.6299 72.0714 56.1056 73.3249 55.1724 74.2491C54.2392 75.1734 52.9735 75.6926 51.6538 75.6926C50.334 75.6926 49.0683 75.1734 48.1351 74.2491C47.2019 73.3249 46.6776 72.0714 46.6776 70.7643V10.2357C46.6776 8.92863 47.2019 7.6751 48.1351 6.75087C49.0683 5.82663 50.334 5.3074 51.6538 5.3074C52.9735 5.3074 54.2392 5.82663 55.1724 6.75087C56.1056 7.6751 56.6299 8.92863 56.6299 10.2357V70.7643ZM61.9888 43.9119V37.0881H116.019V43.9119H61.9888ZM131.33 70.7643C131.33 72.0714 130.806 73.3249 129.873 74.2491C128.939 75.1734 127.674 75.6926 126.354 75.6926C125.034 75.6926 123.768 75.1734 122.835 74.2491C121.902 73.3249 121.378 72.0714 121.378 70.7643V10.2357C121.378 8.92863 121.902 7.6751 122.835 6.75087C123.768 5.82663 125.034 5.3074 126.354 5.3074C127.674 5.3074 128.939 5.82663 129.873 6.75087C130.806 7.6751 131.33 8.92863 131.33 10.2357V70.7643ZM146.641 59.7932C146.641 61.1002 146.117 62.3537 145.184 63.278C144.251 64.2022 142.985 64.7215 141.665 64.7215C140.345 64.7215 139.08 64.2022 138.146 63.278C137.213 62.3537 136.689 61.1002 136.689 59.7932V21.2068C136.689 19.8998 137.213 18.6463 138.146 17.722C139.08 16.7978 140.345 16.2786 141.665 16.2786C142.985 16.2786 144.251 16.7978 145.184 17.722C146.117 18.6463 146.641 19.8998 146.641 21.2068V59.7932ZM156.976 51.7562C155.657 51.7546 154.392 51.2349 153.459 50.311C152.527 49.3871 152.002 48.1345 152 46.8279V34.1781C152 32.8711 152.524 31.6175 153.458 30.6933C154.391 29.7691 155.656 29.2498 156.976 29.2498C158.296 29.2498 159.562 29.7691 160.495 30.6933C161.428 31.6175 161.952 32.8711 161.952 34.1781V46.8219C161.951 48.1284 161.426 49.381 160.493 50.3049C159.56 51.2288 158.295 51.7486 156.976 51.7502V51.7562ZM169.204 43.918H167.311V37.0942H169.204C170.117 37.0942 170.994 37.4536 171.64 38.0935C172.286 38.7333 172.649 39.6012 172.649 40.5061C172.649 41.411 172.286 42.2788 171.64 42.9186C170.994 43.5585 170.117 43.918 169.204 43.918Z" fill="black"/>
</svg>
