<svg width="512" height="512" viewBox="0 0 512 512" fill="none" xmlns="http://www.w3.org/2000/svg">
<path d="M306.086 466.325C407.868 358.933 413.222 193.557 322.15 80.0638C317.094 73.7704 311.74 67.6264 306.086 61.6744C304.641 60.149 303.51 58.3538 302.758 56.3913C302.006 54.4287 301.648 52.3374 301.705 50.2365C301.761 48.1357 302.231 46.0666 303.087 44.1472C303.943 42.2279 305.169 40.496 306.694 39.0504C308.22 37.6049 310.015 36.4739 311.978 35.7221C313.94 34.9703 316.032 34.6124 318.132 34.6689C322.375 34.7829 326.399 36.5777 329.318 39.6584C335.569 46.2718 341.478 53.0558 347.089 60.0318C448.124 185.898 442.193 369.237 329.318 488.341C327.873 489.867 326.141 491.092 324.222 491.948C322.302 492.805 320.233 493.274 318.132 493.331C316.032 493.387 313.94 493.029 311.978 492.278C310.015 491.526 308.22 490.395 306.694 488.949C305.169 487.504 303.943 485.772 303.087 483.852C302.231 481.933 301.761 479.864 301.705 477.763C301.648 475.662 302.006 473.571 302.758 471.608C303.51 469.646 304.641 467.851 306.086 466.325Z" fill="black"/>
<path d="M256.102 103.36C344.849 192.085 344.849 335.915 256.102 424.64C253.069 427.466 249.057 429.005 244.912 428.932C240.767 428.859 236.812 427.179 233.881 424.248C230.949 421.316 229.27 417.362 229.197 413.217C229.124 409.071 230.663 405.06 233.489 402.027C270.096 365.42 290.661 315.77 290.661 264C290.661 212.23 270.096 162.58 233.489 125.973C231.917 124.509 230.656 122.742 229.781 120.779C228.907 118.817 228.437 116.698 228.399 114.55C228.361 112.402 228.756 110.268 229.561 108.275C230.366 106.283 231.563 104.473 233.083 102.954C234.602 101.435 236.412 100.237 238.404 99.4321C240.396 98.6274 242.53 98.2322 244.679 98.2701C246.827 98.308 248.946 98.7782 250.908 99.6527C252.871 100.527 254.637 101.788 256.102 103.36Z" fill="black"/>
<path d="M186.62 167.36C212.248 192.992 226.645 227.754 226.645 264C226.645 300.246 212.248 335.008 186.62 360.64C183.587 363.466 179.576 365.005 175.431 364.932C171.285 364.859 167.331 363.179 164.399 360.248C161.468 357.316 159.788 353.362 159.715 349.216C159.642 345.071 161.181 341.06 164.007 338.027C173.729 328.306 181.441 316.765 186.703 304.064C191.965 291.362 194.673 277.748 194.673 264C194.673 250.252 191.965 236.638 186.703 223.937C181.441 211.235 173.729 199.694 164.007 189.973C162.435 188.509 161.174 186.742 160.3 184.779C159.425 182.817 158.955 180.698 158.917 178.55C158.879 176.402 159.274 174.268 160.079 172.275C160.884 170.283 162.082 168.473 163.601 166.954C165.12 165.435 166.93 164.237 168.922 163.432C170.915 162.627 173.048 162.232 175.197 162.27C177.345 162.308 179.464 162.778 181.426 163.653C183.389 164.527 185.156 165.788 186.62 167.36ZM93.3297 264C93.3297 271.072 96.1392 277.855 101.14 282.856C106.141 287.857 112.924 290.667 119.996 290.667C127.069 290.667 133.852 287.857 138.853 282.856C143.854 277.855 146.663 271.072 146.663 264C146.663 256.928 143.854 250.145 138.853 245.144C133.852 240.143 127.069 237.333 119.996 237.333C112.924 237.333 106.141 240.143 101.14 245.144C96.1392 250.145 93.3297 256.928 93.3297 264Z" fill="black"/>
</svg>
