<svg width="24" height="24" viewBox="0 0 24 24" fill="none" xmlns="http://www.w3.org/2000/svg">
<path d="M20 13.8182C20 18.3369 16.4183 22 12 22C7.58172 22 4 18.3369 4 13.8182C4 12.17 4.49142 9.41028 6 8L8.06028 10.747C8.35247 11.1366 9.00581 10.9223 9.02903 10.4359C9.14647 7.97512 9.67967 3.34127 12 2C12 2 20 9.29949 20 13.8182Z" stroke="white" stroke-width="1.5" stroke-linejoin="round"/>
<path d="M15 18.3182C15 20.3516 13.6569 22 12 22C10.3431 22 9 20.3516 9 18.3182C9 16.2848 12 13 12 13C12 13 15 16.2848 15 18.3182Z" stroke="white" stroke-width="1.5" stroke-linejoin="round"/>
</svg>
