<svg width="512" height="512" viewBox="0 0 512 512" fill="none" xmlns="http://www.w3.org/2000/svg">
<path d="M272 234.666C272 230.423 270.314 226.353 267.314 223.352C264.313 220.352 260.243 218.666 256 218.666C251.757 218.666 247.687 220.352 244.686 223.352C241.686 226.353 240 230.423 240 234.666V362.666C240 366.909 241.686 370.979 244.686 373.98C247.687 376.98 251.757 378.666 256 378.666C260.243 378.666 264.313 376.98 267.314 373.98C270.314 370.979 272 366.909 272 362.666V234.666Z" fill="black"/>
<path fill-rule="evenodd" clip-rule="evenodd" d="M256 26.666C129.344 26.666 26.6667 129.343 26.6667 255.999C26.6667 382.655 129.344 485.333 256 485.333C382.656 485.333 485.333 382.655 485.333 255.999C485.333 129.343 382.656 26.666 256 26.666ZM58.6667 255.999C58.6667 203.663 79.4571 153.471 116.464 116.464C153.471 79.4564 203.664 58.666 256 58.666C308.336 58.666 358.529 79.4564 395.536 116.464C432.543 153.471 453.333 203.663 453.333 255.999C453.333 308.335 432.543 358.528 395.536 395.535C358.529 432.542 308.336 453.333 256 453.333C203.664 453.333 153.471 432.542 116.464 395.535C79.4571 358.528 58.6667 308.335 58.6667 255.999Z" fill="black"/>
<path d="M277.333 170.665C277.333 176.323 275.086 181.75 271.085 185.75C267.084 189.751 261.658 191.999 256 191.999C250.342 191.999 244.916 189.751 240.915 185.75C236.914 181.75 234.667 176.323 234.667 170.665C234.667 165.007 236.914 159.581 240.915 155.58C244.916 151.58 250.342 149.332 256 149.332C261.658 149.332 267.084 151.58 271.085 155.58C275.086 159.581 277.333 165.007 277.333 170.665Z" fill="black"/>
</svg>
