<svg width="512" height="512" viewBox="0 0 512 512" fill="none" xmlns="http://www.w3.org/2000/svg">
<g clip-path="url(#clip0_754_4100)">
<path d="M363.335 488C363.335 494.365 360.806 500.47 356.306 504.971C351.805 509.471 345.7 512 339.335 512H113.082C91.872 511.976 71.5375 503.54 56.5398 488.542C41.542 473.544 33.1059 453.21 33.082 432V80C33.1059 58.79 41.542 38.4555 56.5398 23.4578C71.5375 8.46002 91.872 0.0238211 113.082 0L339.335 0C345.7 0 351.805 2.52856 356.306 7.02944C360.806 11.5303 363.335 17.6348 363.335 24C363.335 30.3652 360.806 36.4697 356.306 40.9706C351.805 45.4714 345.7 48 339.335 48H113.082C104.598 48.0093 96.464 51.3837 90.4648 57.3828C84.4657 63.382 81.0913 71.5159 81.082 80V432C81.091 440.484 84.4653 448.618 90.4646 454.617C96.4638 460.617 104.598 463.991 113.082 464H339.335C345.7 464 351.805 466.529 356.306 471.029C360.806 475.53 363.335 481.635 363.335 488ZM471.888 239.03L357.837 124.978C355.618 122.709 352.97 120.902 350.047 119.663C347.125 118.424 343.986 117.777 340.811 117.759C337.637 117.741 334.491 118.354 331.555 119.56C328.619 120.767 325.951 122.544 323.707 124.789C321.463 127.034 319.686 129.701 318.479 132.638C317.273 135.574 316.661 138.72 316.679 141.894C316.697 145.069 317.344 148.208 318.584 151.13C319.823 154.052 321.63 156.7 323.9 158.919L396.977 232H208.041C201.676 232 195.571 234.529 191.07 239.029C186.57 243.53 184.041 249.635 184.041 256C184.041 262.365 186.57 268.47 191.07 272.971C195.571 277.471 201.676 280 208.041 280H396.976L323.896 353.08C321.657 355.306 319.88 357.953 318.666 360.867C317.452 363.781 316.825 366.907 316.82 370.064C316.816 373.221 317.435 376.348 318.641 379.266C319.847 382.184 321.617 384.835 323.85 387.067C326.082 389.3 328.733 391.07 331.651 392.276C334.569 393.482 337.696 394.101 340.853 394.097C344.01 394.092 347.136 393.465 350.05 392.251C352.964 391.037 355.611 389.26 357.837 387.021L471.888 272.971C476.389 268.47 478.917 262.366 478.917 256C478.917 249.635 476.389 243.531 471.888 239.03Z" fill="black"/>
</g>
<defs>
<clipPath id="clip0_754_4100">
<rect width="512" height="512" fill="white"/>
</clipPath>
</defs>
</svg>
