<svg width="96" height="55" viewBox="0 0 96 55" fill="none" xmlns="http://www.w3.org/2000/svg">
<path d="M0 54.2592C0.228621 53.7933 0.345088 53.5776 0.47881 53.3016C1.96269 50.2991 3.4897 47.3226 4.97358 44.3374C5.31435 43.6299 5.53866 43.2287 6.34099 43.2287C19.1696 43.2115 32.6324 43.2762 45.4567 43.2374C48.8946 43.2287 52.3757 43.246 55.8093 43.2374C59.5233 43.2287 61.0288 41.4169 62.6507 38.065C63.3322 36.6501 65.2733 32.7935 66.0325 31.4217C66.218 31.0852 66.9039 30.3691 67.4043 30.3691C71.0665 30.3691 75.3154 30.3778 78.8094 30.3691C79.0639 30.3691 79.4565 30.3691 79.987 30.3691C79.7886 30.7746 78.089 34.23 77.9381 34.5363C76.4283 37.5905 74.6899 40.5067 73.1759 43.5695C69.5826 50.4674 63.9793 54.0392 56.245 54.1169C38.9432 54.2894 21.7448 54.2031 4.443 54.2549C3.23951 54.2549 1.35447 54.2549 0 54.2722V54.2592Z" fill="white"/>
<path d="M7.49609 39.1524C7.67726 38.7382 7.84118 38.4535 7.97059 38.1947C9.56231 34.9809 19.9969 13.9293 21.5929 10.7112C25.1301 4.18432 31.8722 0.340681 39.2873 0.189696C49.2948 -0.0130549 61.1141 -0.0432519 69.8232 0.0516528C78.0018 0.0214558 85.8267 0.0818497 94.0053 0.0516528C94.4366 0.0516528 94.8852 0.0300835 95.4546 0.0516528C95.239 0.491665 95.0147 0.97913 94.8637 1.2811C93.3798 4.28354 91.6587 7.28598 90.205 10.3014C89.8858 10.9657 89.4803 11.1814 88.7642 11.1814C76.3238 11.2029 64.0948 11.2331 51.6544 11.272C47.7161 11.2849 43.7778 11.2892 39.8351 11.3237C36.3239 11.3539 33.8177 13.0234 32.2259 16.1121C31.4668 17.5874 22.0717 36.9092 21.2694 38.3586C21.0839 38.6951 20.5706 39.0402 20.1996 39.0488C16.7358 39.1135 13.2677 39.1092 9.80387 39.1179C9.54937 39.1179 7.9404 39.1998 7.50041 39.1481L7.49609 39.1524Z" fill="white"/>
<path d="M87.8161 15.292C86.0518 18.8035 83.9122 22.5608 82.5017 25.4037C82.2558 25.8954 81.7555 26.206 81.2076 26.206C74.6898 26.2276 68.1762 26.2492 61.6584 26.2707C57.7201 26.2837 54.5884 26.137 50.6501 26.1672C47.1388 26.1974 44.5636 28.2292 42.9676 31.3136C42.6786 31.8701 41.3586 34.5878 39.5469 38.2934C39.3054 38.7895 38.7963 39.1087 38.2442 39.1087C36.2901 39.1131 33.6373 39.1562 31.666 39.1648C29.9362 39.1691 29.0217 39.0872 25.834 39.1044C29.6084 31.0807 34.0643 21.5169 35.0306 19.7353C37.994 14.6535 40.1163 15.7838 49.2266 15.3394C59.5534 15.3481 69.4401 15.2963 79.2622 15.3481C82.0531 15.3481 84.9777 15.292 87.8161 15.292Z" fill="white"/>
</svg>
