<svg width="892" height="588" viewBox="0 0 892 588" fill="none" xmlns="http://www.w3.org/2000/svg">
<g clip-path="url(#clip0_2272_4649)">
<path d="M290.95 183.92C291.73 182.34 292.11 181.61 292.58 180.67C297.61 170.49 302.79 160.41 307.81 150.28C308.97 147.89 309.72 146.52 312.44 146.52C355.92 146.47 401.56 146.68 445.04 146.54C456.69 146.5 468.49 146.57 480.14 146.54C492.73 146.51 497.84 140.37 503.33 129.01C505.65 124.22 512.22 111.14 514.8 106.49C515.43 105.35 517.75 102.92 519.45 102.92C531.87 102.92 546.26 102.95 558.11 102.92C558.97 102.92 560.3 102.92 562.1 102.92C561.42 104.29 555.66 116.01 555.15 117.04C550.03 127.4 544.15 137.27 539 147.65C526.82 171.03 507.83 183.14 481.61 183.4C422.96 183.98 364.67 183.69 306.02 183.86C301.95 183.87 295.56 183.86 290.96 183.91L290.95 183.92Z" fill="url(#paint0_linear_2272_4649)"/>
<path d="M316.36 132.71C316.97 131.3 317.54 130.34 317.97 129.46C323.36 118.57 358.74 47.2098 364.14 36.3098C376.14 14.1798 398.98 1.15977 424.12 0.649774C458.05 -0.0402258 498.1 -0.140226 527.62 0.179774C555.34 0.0797742 581.87 0.279774 609.58 0.179774C611.04 0.179774 612.56 0.109774 614.49 0.179774C613.75 1.66977 612.99 3.31977 612.48 4.34977C607.45 14.5298 601.62 24.6998 596.69 34.9298C595.61 37.1798 594.24 37.9098 591.81 37.9098C549.64 37.9798 508.19 38.0798 466.02 38.2198C452.67 38.2598 439.32 38.2798 425.96 38.3898C414.06 38.4898 405.56 44.1498 400.16 54.6098C397.58 59.6098 365.74 125.1 363.03 130.02C362.4 131.15 360.66 132.34 359.41 132.36C347.67 132.59 335.92 132.57 324.17 132.6C323.3 132.6 317.85 132.88 316.36 132.7V132.71Z" fill="url(#paint1_linear_2272_4649)"/>
<path d="M588.62 51.8398C582.64 63.7398 575.39 76.4798 570.6 86.1098C569.77 87.7698 568.08 88.8198 566.22 88.8298C544.13 88.8998 522.04 88.9698 499.95 89.0398C486.6 89.0798 475.99 88.5798 462.64 88.6898C450.74 88.7898 442 95.6798 436.61 106.14C435.63 108.03 431.16 117.23 425.01 129.8C424.18 131.49 422.47 132.56 420.59 132.57C413.96 132.59 404.98 132.74 398.29 132.76C392.43 132.78 389.33 132.49 378.51 132.55C391.31 105.36 406.41 72.9298 409.69 66.8998C419.73 49.6798 426.93 53.4998 457.81 51.9998C492.82 52.0298 526.33 51.8598 559.62 52.0298C569.08 52.0298 579 51.8398 588.61 51.8398H588.62Z" fill="url(#paint2_linear_2272_4649)"/>
<path d="M47.09 398.29C15.36 398.29 -4.76 376.7 0.970002 344.48C6.69 312.26 34.33 290.84 66.06 290.84H151.71L146.63 318.93L69.5 318.64C53.96 318.64 39.73 328.45 36.95 344.48C34.17 360.51 44.8 370.48 60.34 370.48H103.19L105.81 355.27H66.07L70.5 330.57H144.53L132.31 398.28H47.09V398.29Z" fill="url(#paint3_linear_2272_4649)"/>
<path d="M290.45 290.84L255.12 333.85C254.02 333.85 253.03 333.21 252.56 332.22L233.36 290.84H187.5L192.88 300.16C193.27 300.72 193.63 301.32 193.94 301.96C193.95 301.99 194.05 302.17 194.23 302.5L194.31 302.65C197.79 308.96 224.82 356.59 231.72 368.85L230.64 374.93L226.49 398.28H260.51L266.07 367.21L335.91 290.83H290.44L290.45 290.84Z" fill="url(#paint4_linear_2272_4649)"/>
<path d="M506.66 290.84L457.6 360.84L433.39 290.84H388.61L384.92 312.17C384.85 312.8 384.77 313.43 384.65 314.07L378.58 348.8L371.63 388.57L369.93 398.3H403.95L412.63 348.95C413.21 345.67 417.76 345.27 418.9 348.4L436.98 398.13H465.93L500.18 348.93C502.17 346.06 506.66 347.92 506.06 351.36L497.83 398.13H531.85L550.82 290.84H506.66Z" fill="url(#paint5_linear_2272_4649)"/>
<path d="M700.47 290.84H652.9L616.78 344.28L580.92 398.13H619.35L632.92 376.87H688.04L693.44 398.13H734L700.47 290.84ZM648.46 352.01L671.19 315.7C672.15 315.7 672.99 316.35 673.22 317.29L681.82 352.01H648.46Z" fill="url(#paint6_linear_2272_4649)"/>
<path opacity="0.23" d="M378.59 348.79L371.71 388.57L371.64 388.56L378.59 348.79Z" fill="url(#paint7_linear_2272_4649)"/>
<path d="M778.46 290.84L773.41 318.81H815.12L801.05 398.29H835.07L849.14 318.81H886.43L891.49 290.84H778.47H778.46Z" fill="url(#paint8_linear_2272_4649)"/>
<path d="M331.84 520.29H266.02C265.54 520.29 264.78 520.18 263.67 519.27C262.79 518.45 262.41 517.5 262.41 516.12V480.75L230.15 493.95V516.12C230.15 526.33 234.03 534.8 241.68 541.33C247.66 546.41 254.69 548.98 262.58 548.98H341.24C348.23 548.98 354.07 546.25 358.52 540.96C362.22 536.77 364.09 531.78 364.09 526.13V472.96H331.83V520.3L331.84 520.29Z" fill="url(#paint9_linear_2272_4649)"/>
<path d="M614.19 569.92H590.57V587.21H614.19V569.92Z" fill="url(#paint10_linear_2272_4649)"/>
<path d="M295.35 469.43H271.73V486.72H295.35V469.43Z" fill="url(#paint11_linear_2272_4649)"/>
<path d="M322.54 469.43H298.92V486.72H322.54V469.43Z" fill="url(#paint12_linear_2272_4649)"/>
<path d="M619.3 469.43H577.01L567.57 497.6H613.93C620.18 497.6 626.85 500.5 626.85 508.63C626.85 516.76 620.36 520.29 613.93 520.29H497.68V503.1C497.68 493.47 494.09 485.52 486.99 479.45C480.63 474.1 471.97 471.38 461.24 471.38C451.56 471.38 443.19 474.28 436.32 480.04C427.92 487.23 423.66 497.24 423.66 509.81C423.66 513.6 423.82 517.1 424.15 520.28H405.87V436.33H373.61V526.11C373.61 532.48 375.96 538 380.64 542.55C385.13 546.8 390.45 548.96 396.46 548.96H427.55C431.26 548.96 434.87 547.89 437.96 545.95C443.75 550.8 450.51 553.25 458.09 553.25C465.67 553.25 472.35 550.89 477.45 546.23C480.8 548.04 484.47 548.95 488.41 548.95H619.3C643.05 548.95 660.29 532.2 660.29 509.13C660.29 486.06 643.05 469.41 619.3 469.41V469.43ZM466.88 503.24V522.96C465.3 524.05 460.86 524.58 459.35 524.58C455.07 524.58 454.17 517.02 454.17 510.68C454.17 506.83 454.36 503.79 455.72 501.88C456.77 500.41 458.41 498.63 460.13 498.08C465.79 496.39 466.88 502.31 466.88 503.24Z" fill="url(#paint13_linear_2272_4649)"/>
<path d="M194.64 517H1.31982V529.51H194.64V517Z" fill="url(#paint14_linear_2272_4649)"/>
<path d="M890.21 517H696.89V529.51H890.21V517Z" fill="url(#paint15_linear_2272_4649)"/>
</g>
<defs>
<linearGradient id="paint0_linear_2272_4649" x1="934.26" y1="138.75" x2="27.8402" y2="147.96" gradientUnits="userSpaceOnUse">
<stop offset="0.35" stop-color="#258765"/>
<stop offset="0.73" stop-color="#278E68"/>
<stop offset="0.81" stop-color="#278E68"/>
</linearGradient>
<linearGradient id="paint1_linear_2272_4649" x1="933.47" y1="60.9498" x2="27.0503" y2="70.1598" gradientUnits="userSpaceOnUse">
<stop offset="0.35" stop-color="#258765"/>
<stop offset="0.73" stop-color="#278E68"/>
<stop offset="0.81" stop-color="#278E68"/>
</linearGradient>
<linearGradient id="paint2_linear_2272_4649" x1="933.74" y1="87.2599" x2="27.3203" y2="96.4599" gradientUnits="userSpaceOnUse">
<stop offset="0.35" stop-color="#258765"/>
<stop offset="0.73" stop-color="#278E68"/>
<stop offset="0.81" stop-color="#278E68"/>
</linearGradient>
<linearGradient id="paint3_linear_2272_4649" x1="936.27" y1="336.07" x2="29.8401" y2="345.27" gradientUnits="userSpaceOnUse">
<stop offset="0.35" stop-color="#258765"/>
<stop offset="0.73" stop-color="#278E68"/>
<stop offset="0.81" stop-color="#278E68"/>
</linearGradient>
<linearGradient id="paint4_linear_2272_4649" x1="936.28" y1="337.33" x2="29.86" y2="346.54" gradientUnits="userSpaceOnUse">
<stop offset="0.35" stop-color="#258765"/>
<stop offset="0.73" stop-color="#278E68"/>
<stop offset="0.81" stop-color="#278E68"/>
</linearGradient>
<linearGradient id="paint5_linear_2272_4649" x1="936.3" y1="339.65" x2="29.8802" y2="348.85" gradientUnits="userSpaceOnUse">
<stop offset="0.35" stop-color="#258765"/>
<stop offset="0.73" stop-color="#278E68"/>
<stop offset="0.81" stop-color="#278E68"/>
</linearGradient>
<linearGradient id="paint6_linear_2272_4649" x1="936.33" y1="342.02" x2="29.8998" y2="351.22" gradientUnits="userSpaceOnUse">
<stop offset="0.35" stop-color="#258765"/>
<stop offset="0.73" stop-color="#278E68"/>
<stop offset="0.81" stop-color="#278E68"/>
</linearGradient>
<linearGradient id="paint7_linear_2272_4649" x1="936.539" y1="362.98" x2="30.121" y2="372.18" gradientUnits="userSpaceOnUse">
<stop offset="0.35" stop-color="#258765"/>
<stop offset="0.73" stop-color="#278E68"/>
<stop offset="0.81" stop-color="#278E68"/>
</linearGradient>
<linearGradient id="paint8_linear_2272_4649" x1="936.34" y1="343.25" x2="29.9201" y2="352.45" gradientUnits="userSpaceOnUse">
<stop offset="0.35" stop-color="#258765"/>
<stop offset="0.73" stop-color="#278E68"/>
<stop offset="0.81" stop-color="#278E68"/>
</linearGradient>
<linearGradient id="paint9_linear_2272_4649" x1="937.98" y1="504.86" x2="31.5599" y2="514.06" gradientUnits="userSpaceOnUse">
<stop offset="0.35" stop-color="#258765"/>
<stop offset="0.73" stop-color="#278E68"/>
<stop offset="0.81" stop-color="#278E68"/>
</linearGradient>
<linearGradient id="paint10_linear_2272_4649" x1="938.69" y1="575.15" x2="32.2699" y2="584.35" gradientUnits="userSpaceOnUse">
<stop offset="0.35" stop-color="#258765"/>
<stop offset="0.73" stop-color="#278E68"/>
<stop offset="0.81" stop-color="#278E68"/>
</linearGradient>
<linearGradient id="paint11_linear_2272_4649" x1="937.64" y1="471.43" x2="31.2201" y2="480.63" gradientUnits="userSpaceOnUse">
<stop offset="0.35" stop-color="#258765"/>
<stop offset="0.73" stop-color="#278E68"/>
<stop offset="0.81" stop-color="#278E68"/>
</linearGradient>
<linearGradient id="paint12_linear_2272_4649" x1="937.64" y1="471.71" x2="31.22" y2="480.91" gradientUnits="userSpaceOnUse">
<stop offset="0.35" stop-color="#258765"/>
<stop offset="0.73" stop-color="#278E68"/>
<stop offset="0.81" stop-color="#278E68"/>
</linearGradient>
<linearGradient id="paint13_linear_2272_4649" x1="937.82" y1="489.5" x2="31.3999" y2="498.71" gradientUnits="userSpaceOnUse">
<stop offset="0.35" stop-color="#258765"/>
<stop offset="0.73" stop-color="#278E68"/>
<stop offset="0.81" stop-color="#278E68"/>
</linearGradient>
<linearGradient id="paint14_linear_2272_4649" x1="938.08" y1="514.72" x2="31.6598" y2="523.92" gradientUnits="userSpaceOnUse">
<stop offset="0.35" stop-color="#258765"/>
<stop offset="0.73" stop-color="#278E68"/>
<stop offset="0.81" stop-color="#278E68"/>
</linearGradient>
<linearGradient id="paint15_linear_2272_4649" x1="938.15" y1="521.78" x2="31.7296" y2="530.98" gradientUnits="userSpaceOnUse">
<stop offset="0.35" stop-color="#258765"/>
<stop offset="0.73" stop-color="#278E68"/>
<stop offset="0.81" stop-color="#278E68"/>
</linearGradient>
<clipPath id="clip0_2272_4649">
<rect width="891.48" height="587.21" fill="white"/>
</clipPath>
</defs>
</svg>
