<svg width="96" height="55" viewBox="0 0 96 55" fill="none" xmlns="http://www.w3.org/2000/svg">
<path d="M0 54.2592C0.228621 53.7933 0.345088 53.5776 0.47881 53.3016C1.96269 50.2991 3.4897 47.3226 4.97358 44.3374C5.31435 43.6299 5.53866 43.2287 6.34099 43.2287C19.1696 43.2115 32.6324 43.2762 45.4567 43.2374C48.8946 43.2287 52.3757 43.246 55.8093 43.2374C59.5233 43.2287 61.0288 41.4169 62.6507 38.065C63.3322 36.6501 65.2733 32.7935 66.0325 31.4217C66.218 31.0852 66.9039 30.3691 67.4043 30.3691C71.0665 30.3691 75.3154 30.3778 78.8094 30.3691C79.0639 30.3691 79.4565 30.3691 79.987 30.3691C79.7886 30.7746 78.089 34.23 77.9381 34.5363C76.4283 37.5905 74.6899 40.5067 73.1759 43.5695C69.5826 50.4674 63.9793 54.0392 56.245 54.1169C38.9431 54.2894 21.7448 54.2031 4.443 54.2549C3.23951 54.2549 1.35447 54.2549 0 54.2722V54.2592Z" fill="url(#paint0_linear_269_858)"/>
<path d="M7.49609 39.1524C7.67726 38.7382 7.84118 38.4535 7.97059 38.1947C9.56231 34.9809 19.9969 13.9293 21.5929 10.7112C25.1301 4.18432 31.8722 0.340681 39.2873 0.189696C49.2948 -0.013055 61.1141 -0.0432519 69.8232 0.0516528C78.0018 0.0214558 85.8267 0.0818497 94.0053 0.0516528C94.4366 0.0516528 94.8852 0.0300835 95.4546 0.0516528C95.239 0.491665 95.0147 0.97913 94.8637 1.2811C93.3798 4.28354 91.6587 7.28598 90.205 10.3014C89.8858 10.9657 89.4803 11.1814 88.7643 11.1814C76.3238 11.2029 64.0948 11.2331 51.6544 11.272C47.7161 11.2849 43.7778 11.2892 39.8351 11.3237C36.3239 11.3539 33.8177 13.0234 32.226 16.1121C31.4668 17.5874 22.0717 36.9092 21.2694 38.3586C21.0839 38.6951 20.5706 39.0402 20.1996 39.0488C16.7358 39.1135 13.2677 39.1092 9.80387 39.1179C9.54937 39.1179 7.9404 39.1998 7.50041 39.1481L7.49609 39.1524Z" fill="url(#paint1_linear_269_858)"/>
<path d="M87.818 15.2925C86.0537 18.804 83.9142 22.5613 82.5037 25.4041C82.2578 25.8959 81.7574 26.2065 81.2096 26.2065C74.6917 26.2281 68.1782 26.2497 61.6604 26.2712C57.722 26.2842 54.5904 26.1375 50.6521 26.1677C47.1408 26.1979 44.5656 28.2297 42.9695 31.3141C42.6805 31.8706 41.3606 34.5883 39.5489 38.2939C39.3073 38.79 38.7983 39.1092 38.2462 39.1092C36.2921 39.1136 33.6392 39.1567 31.6679 39.1653C29.9382 39.1696 29.0237 39.0877 25.8359 39.1049C29.6103 31.0812 34.0663 21.5174 35.0325 19.7357C37.996 14.654 40.1182 15.7843 49.2286 15.3399C59.5553 15.3486 69.4421 15.2968 79.2641 15.3486C82.055 15.3486 84.9797 15.2925 87.818 15.2925Z" fill="url(#paint2_linear_269_858)"/>
<defs>
<linearGradient id="paint0_linear_269_858" x1="-54.5843" y1="166.264" x2="107.744" y2="-45.3298" gradientUnits="userSpaceOnUse">
<stop offset="0.13" stop-color="#278867"/>
<stop offset="1" stop-color="#278867"/>
</linearGradient>
<linearGradient id="paint1_linear_269_858" x1="-60.3266" y1="161.86" x2="102.002" y2="-49.734" gradientUnits="userSpaceOnUse">
<stop offset="0.13" stop-color="#278867"/>
<stop offset="1" stop-color="#278867"/>
</linearGradient>
<linearGradient id="paint2_linear_269_858" x1="-52.6543" y1="167.74" x2="109.67" y2="-43.8499" gradientUnits="userSpaceOnUse">
<stop offset="0.13" stop-color="#278867"/>
<stop offset="1" stop-color="#278867"/>
</linearGradient>
</defs>
</svg>
