<svg width="263" height="138" viewBox="0 0 263 138" fill="none" xmlns="http://www.w3.org/2000/svg">
<path d="M83.7734 54.2592C84.0021 53.7933 84.1185 53.5776 84.2522 53.3016C85.7361 50.2991 87.2631 47.3226 88.747 44.3374C89.0878 43.6299 89.3121 43.2287 90.1144 43.2287C102.943 43.2115 116.406 43.2762 129.23 43.2374C132.668 43.2287 136.149 43.246 139.583 43.2374C143.297 43.2287 144.802 41.4169 146.424 38.065C147.106 36.6501 149.047 32.7935 149.806 31.4217C149.991 31.0852 150.677 30.3691 151.178 30.3691C154.84 30.3691 159.089 30.3778 162.583 30.3691C162.837 30.3691 163.23 30.3691 163.76 30.3691C163.562 30.7746 161.862 34.23 161.712 34.5363C160.202 37.5905 158.463 40.5067 156.949 43.5695C153.356 50.4674 147.753 54.0392 140.018 54.1169C122.717 54.2894 105.518 54.2031 88.2164 54.2549C87.0129 54.2549 85.1279 54.2549 83.7734 54.2722V54.2592Z" fill="url(#paint0_linear_1_26302)"/>
<path d="M91.2695 39.1524C91.4507 38.7382 91.6146 38.4535 91.744 38.1947C93.3357 34.9809 103.77 13.9293 105.366 10.7112C108.904 4.18432 115.646 0.340681 123.061 0.189696C133.068 -0.0130549 144.888 -0.0432519 153.597 0.0516528C161.775 0.0214558 169.6 0.0818497 177.779 0.0516528C178.21 0.0516528 178.659 0.0300835 179.228 0.0516528C179.012 0.491665 178.788 0.97913 178.637 1.2811C177.153 4.28354 175.432 7.28598 173.978 10.3014C173.659 10.9657 173.254 11.1814 172.538 11.1814C160.097 11.2029 147.868 11.2331 135.428 11.272C131.49 11.2849 127.551 11.2892 123.609 11.3237C120.097 11.3539 117.591 13.0234 115.999 16.1121C115.24 17.5874 105.845 36.9092 105.043 38.3586C104.857 38.6951 104.344 39.0402 103.973 39.0488C100.509 39.1135 97.0411 39.1092 93.5773 39.1179C93.3228 39.1179 91.7138 39.1998 91.2738 39.1481L91.2695 39.1524Z" fill="url(#paint1_linear_1_26302)"/>
<path d="M171.589 15.292C169.825 18.8035 167.686 22.5608 166.275 25.4037C166.029 25.8954 165.529 26.206 164.981 26.206C158.463 26.2276 151.95 26.2492 145.432 26.2707C141.494 26.2837 138.362 26.137 134.424 26.1672C130.912 26.1974 128.337 28.2292 126.741 31.3136C126.452 31.8701 125.132 34.5878 123.32 38.2934C123.079 38.7895 122.57 39.1087 122.018 39.1087C120.064 39.1131 117.411 39.1562 115.439 39.1648C113.71 39.1691 112.795 39.0872 109.607 39.1044C113.382 31.0807 117.838 21.5169 118.804 19.7353C121.767 14.6535 123.89 15.7838 133 15.3394C143.327 15.3481 153.214 15.2963 163.036 15.3481C165.827 15.3481 168.751 15.292 171.589 15.292Z" fill="url(#paint2_linear_1_26302)"/>
<path d="M13.8923 137.999C4.53177 137.999 -1.40374 131.632 0.287188 122.124C1.9738 112.617 10.1308 106.297 19.4913 106.297H44.7561L43.2549 114.584L20.5007 114.498C15.9153 114.498 11.7182 117.392 10.8986 122.12C10.0791 126.848 13.215 129.79 17.8004 129.79H30.4435L31.2157 125.304H19.4913L20.7983 118.018H42.6381L39.0319 137.995H13.8923V137.999Z" fill="url(#paint3_linear_1_26302)"/>
<path d="M85.6841 106.297L75.2625 118.988C74.939 118.988 74.6456 118.798 74.5076 118.509L68.8438 106.301H55.3164L56.9038 109.049C57.0203 109.213 57.1238 109.39 57.2187 109.58C57.2187 109.588 57.2489 109.644 57.305 109.739L57.3309 109.782C58.3575 111.646 66.329 125.696 68.365 129.316L68.0458 131.11L66.8208 137.999H76.8585L78.4977 128.832L99.0994 106.297H85.6841Z" fill="url(#paint4_linear_1_26302)"/>
<path d="M149.469 106.297L134.992 126.947L127.853 106.297H114.641L113.554 112.591C113.537 112.776 113.511 112.962 113.476 113.152L111.686 123.397L109.637 135.131L109.137 138.004H119.174L121.737 123.444C121.909 122.478 123.251 122.357 123.587 123.285L128.923 137.956H137.464L147.567 123.44C148.153 122.595 149.477 123.142 149.301 124.156L146.872 137.956H156.91L162.505 106.301H149.477L149.469 106.297Z" fill="url(#paint5_linear_1_26302)"/>
<path d="M206.645 106.297H192.613L181.958 122.064L171.377 137.952H182.717L186.72 131.68H202.978L204.57 137.952H216.536L206.645 106.297ZM191.301 124.342L198.009 113.63C198.294 113.63 198.54 113.825 198.609 114.101L201.145 124.346H191.301V124.342Z" fill="url(#paint6_linear_1_26302)"/>
<path opacity="0.23" d="M111.686 123.396L109.658 135.13H109.637L111.686 123.396Z" fill="url(#paint7_linear_1_26302)"/>
<path d="M229.655 106.297L228.162 114.549H240.469L236.319 137.999H246.357L250.507 114.549H261.506L262.999 106.297H229.655Z" fill="url(#paint8_linear_1_26302)"/>
<defs>
<linearGradient id="paint0_linear_1_26302" x1="29.1892" y1="166.264" x2="191.517" y2="-45.3298" gradientUnits="userSpaceOnUse">
<stop offset="0.13" stop-color="#061532"/>
<stop offset="1" stop-color="#278E68"/>
</linearGradient>
<linearGradient id="paint1_linear_1_26302" x1="23.4468" y1="161.86" x2="185.775" y2="-49.734" gradientUnits="userSpaceOnUse">
<stop offset="0.13" stop-color="#061532"/>
<stop offset="1" stop-color="#278E68"/>
</linearGradient>
<linearGradient id="paint2_linear_1_26302" x1="31.1172" y1="167.739" x2="193.441" y2="-43.8504" gradientUnits="userSpaceOnUse">
<stop offset="0.13" stop-color="#061532"/>
<stop offset="1" stop-color="#278E68"/>
</linearGradient>
<linearGradient id="paint3_linear_1_26302" x1="4.84666" y1="147.585" x2="167.171" y2="-64.0047" gradientUnits="userSpaceOnUse">
<stop offset="0.13" stop-color="#061532"/>
<stop offset="1" stop-color="#278E68"/>
</linearGradient>
<linearGradient id="paint4_linear_1_26302" x1="31.1171" y1="167.739" x2="193.441" y2="-43.8504" gradientUnits="userSpaceOnUse">
<stop offset="0.13" stop-color="#061532"/>
<stop offset="1" stop-color="#278E68"/>
</linearGradient>
<linearGradient id="paint5_linear_1_26302" x1="74.973" y1="201.387" x2="237.297" y2="-10.2067" gradientUnits="userSpaceOnUse">
<stop offset="0.13" stop-color="#061532"/>
<stop offset="1" stop-color="#278E68"/>
</linearGradient>
<linearGradient id="paint6_linear_1_26302" x1="118.285" y1="234.612" x2="280.613" y2="23.0229" gradientUnits="userSpaceOnUse">
<stop offset="0.13" stop-color="#061532"/>
<stop offset="1" stop-color="#278E68"/>
</linearGradient>
<linearGradient id="paint7_linear_1_26302" x1="62.6184" y1="191.909" x2="224.942" y2="-19.6852" gradientUnits="userSpaceOnUse">
<stop offset="0.13" stop-color="#061532"/>
<stop offset="1" stop-color="#278E68"/>
</linearGradient>
<linearGradient id="paint8_linear_1_26302" x1="139.345" y1="250.768" x2="301.669" y2="39.1782" gradientUnits="userSpaceOnUse">
<stop offset="0.13" stop-color="#061532"/>
<stop offset="1" stop-color="#278E68"/>
</linearGradient>
</defs>
</svg>
