<svg width="460" height="154" viewBox="0 0 460 154" fill="none" xmlns="http://www.w3.org/2000/svg">
<path d="M194.958 89.0383H0.960938V153.665H194.958V89.0383Z" fill="#84B740"/>
<path d="M194.958 0.852783H0.960938V65.5376H194.958V0.852783Z" fill="#259BD6"/>
<path d="M388.954 140.533L388.09 140.706C385.095 141.282 384 141.512 381.812 141.512C376.743 141.512 370.752 138.92 370.752 126.709C370.752 120.43 371.789 112.078 381.236 112.078H381.293C382.906 112.194 384.749 112.366 388.205 113.403L388.954 113.634V140.533ZM390.509 79.6497L388.954 79.9377V102.517L387.572 102.114L387.168 101.998C385.613 101.538 382.042 100.501 378.586 100.501C359.693 100.501 355.719 114.786 355.719 126.766C355.719 143.182 364.935 152.629 381.005 152.629C387.802 152.629 392.813 151.938 397.882 150.267C402.548 148.77 404.218 146.638 404.218 142.088V77.2881C399.725 78.0945 395.06 78.9009 390.509 79.6497Z" fill="#ffffff"/>
<path d="M445.114 140.936L444.308 141.167L441.428 141.915C438.721 142.607 436.302 143.01 434.458 143.01C430.023 143.01 427.374 140.821 427.374 137.077C427.374 134.658 428.468 130.568 435.726 130.568H445.114V140.936ZM438.49 100.213C432.673 100.213 426.682 101.25 419.252 103.554L414.414 104.994L416.026 115.938L420.75 114.383C425.703 112.77 431.866 111.733 436.474 111.733C438.548 111.733 444.884 111.733 444.884 118.587V121.583H436.071C420.001 121.583 412.57 126.709 412.57 137.711C412.57 147.099 419.425 152.744 430.945 152.744C434.516 152.744 439.469 152.053 443.732 151.016L443.962 150.959L444.193 151.016L445.633 151.247C450.125 152.053 454.791 152.859 459.342 153.723V117.781C459.342 106.146 452.314 100.213 438.49 100.213Z" fill="#ffffff"/>
<path d="M333.198 140.936L332.392 141.167L329.512 141.915C326.805 142.607 324.443 143.01 322.542 143.01C318.107 143.01 315.457 140.821 315.457 137.077C315.457 134.658 316.552 130.568 323.752 130.568H333.141V140.936H333.198ZM326.632 100.213C320.757 100.213 314.824 101.25 307.393 103.554L302.555 104.994L304.168 115.938L308.891 114.383C313.845 112.77 320.008 111.733 324.616 111.733C326.689 111.733 333.025 111.733 333.025 118.587V121.583H324.213C308.142 121.583 300.654 126.709 300.654 137.711C300.654 147.099 307.509 152.744 319.086 152.744C322.657 152.744 327.611 152.053 331.873 151.016L332.104 150.959L332.334 151.016L333.717 151.247C338.267 152.053 342.875 152.859 347.425 153.781V117.839C347.483 106.088 340.456 100.213 326.632 100.213Z" fill="#ffffff"/>
<path d="M272.544 100.328C265.229 100.328 259.181 102.747 256.935 103.784L256.359 104.072L255.84 103.669C252.73 101.422 248.18 100.271 241.844 100.271C236.256 100.271 231.015 101.077 225.312 102.747C220.416 104.245 218.516 106.606 218.516 111.042V152.111H233.837V114.152L234.586 113.922C237.696 112.885 239.54 112.712 241.325 112.712C245.76 112.712 248.007 115.074 248.007 119.682V152.168H263.098V119.048C263.098 117.09 262.695 115.938 262.637 115.707L262.119 114.728L263.156 114.267C265.46 113.231 267.994 112.712 270.644 112.712C273.696 112.712 277.325 113.922 277.325 119.682V152.168H292.359V118.184C292.359 106.146 285.908 100.328 272.544 100.328Z" fill="#ffffff"/>
<path d="M433.824 43.016C431.578 43.016 427.834 42.7856 424.896 42.2096L424.032 42.0368V19.8608C424.032 18.0176 423.687 16.8656 423.629 16.6928L423.168 15.7712L424.147 15.368C424.378 15.2528 424.608 15.1952 424.896 15.08L425.069 14.9648C425.415 14.8496 425.76 14.7344 426.106 14.6192C426.279 14.5616 426.394 14.504 426.509 14.504C429.907 13.5824 433.018 13.6976 434.4 13.5824H434.458C443.847 13.5824 444.941 21.9344 444.941 28.2128C444.883 40.424 438.835 43.016 433.824 43.016ZM433.767 0.852783C433.651 0.852783 433.479 0.852783 433.363 0.852783C424.551 0.852783 415.507 3.272 412.282 7.9952C410.554 10.2992 409.575 13.1792 409.517 16.5776V39.4448C409.517 41.4032 409.114 42.152 409.056 42.3248L408.538 43.304H380.717V27.4064H380.659C380.314 10.6448 370.407 1.42878 356.064 1.42878H354.394H342.067C341.491 5.51838 341.031 8.39839 340.455 12.488H354.394C361.709 12.488 365.568 18.7088 365.568 28.2704V44.2832L364.589 43.7648C364.416 43.7072 363.207 43.304 361.306 43.304H337.229C336.768 46.3568 336.192 50.3312 335.559 54.3056H409.575C412.109 53.7872 415.047 53.3264 417.581 52.9232C421.325 54.7664 428.295 55.7456 433.075 55.7456C449.146 55.7456 459.571 44.9744 459.571 28.3856C459.514 11.9696 449.434 1.19838 433.767 0.852783Z" fill="#ffffff"/>
<path d="M303.994 61.0447H304.685C320.756 61.0447 328.244 55.7455 328.244 42.6703C328.244 33.2815 321.389 25.7935 309.869 25.7935H295.066C290.631 25.7935 287.981 23.2591 287.981 18.9967C287.981 16.1167 289.076 12.5455 296.333 12.5455H328.704C329.396 8.34074 329.741 5.69113 330.375 1.48633H296.736C281.069 1.48633 273.178 8.05273 273.178 18.9967C273.178 29.8255 280.032 35.4703 291.552 35.4703H306.356C310.791 35.4703 313.44 38.9839 313.44 42.6703C313.44 45.0895 312.346 50.1007 305.146 50.1007H302.669L255.264 49.9855H246.624C239.309 49.9855 234.183 45.8383 234.183 36.2191V29.5951C234.183 19.5727 238.157 13.3519 246.624 13.3519H260.679C261.312 9.08953 261.716 6.38233 262.292 2.35033H244.781H243.111C228.768 2.35033 218.861 11.9695 218.516 28.7311V29.3647V36.2191C218.861 52.9807 228.768 60.9871 243.111 60.9871H244.781H257.108L282.797 61.0447H298.119H303.994Z" fill="#ffffff"/>
</svg>
