<svg width="151" height="151" viewBox="0 0 151 151" fill="none" xmlns="http://www.w3.org/2000/svg">
<path d="M29.8854 87.8946C29.0046 98.15 37.1208 106.958 47.4392 106.958H114.445C123.505 106.958 131.433 99.5342 132.125 90.5372L135.522 43.3497C136.277 32.9055 128.35 24.4117 117.843 24.4117H36.6176" stroke="black" stroke-width="7" stroke-miterlimit="10" stroke-linecap="round" stroke-linejoin="round"/>
<path d="M12.5834 12.5833H23.5309C30.3259 12.5833 35.6738 18.4346 35.1076 25.1666L31.9617 63.2312" stroke="black" stroke-width="7" stroke-miterlimit="10" stroke-linecap="round" stroke-linejoin="round"/>
<path d="M102.24 138.417C106.583 138.417 110.104 134.896 110.104 130.552C110.104 126.209 106.583 122.688 102.24 122.688C97.8961 122.688 94.375 126.209 94.375 130.552C94.375 134.896 97.8961 138.417 102.24 138.417Z" stroke="black" stroke-width="7" stroke-miterlimit="10" stroke-linecap="round" stroke-linejoin="round"/>
<path d="M51.9062 138.417C56.2497 138.417 59.7708 134.896 59.7708 130.552C59.7708 126.209 56.2497 122.688 51.9062 122.688C47.5627 122.688 44.0416 126.209 44.0416 130.552C44.0416 134.896 47.5627 138.417 51.9062 138.417Z" stroke="black" stroke-width="7" stroke-miterlimit="10" stroke-linecap="round" stroke-linejoin="round"/>
<path d="M56.625 50.3333H132.125" stroke="black" stroke-width="7" stroke-miterlimit="10" stroke-linecap="round" stroke-linejoin="round"/>
</svg>
