<svg width="28" height="17" viewBox="0 0 28 17" fill="none" xmlns="http://www.w3.org/2000/svg">
<path fill-rule="evenodd" clip-rule="evenodd" d="M14.2998 14.7314C12.8699 15.9739 11.0151 16.724 8.98833 16.724C4.46593 16.724 0.799805 12.9895 0.799805 8.38286C0.799805 3.77619 4.46593 0.041748 8.98833 0.041748C11.0151 0.041748 12.8699 0.791822 14.2998 2.03433C15.7297 0.791822 17.5845 0.041748 19.6113 0.041748C24.1337 0.041748 27.7998 3.77619 27.7998 8.38286C27.7998 12.9895 24.1337 16.724 19.6113 16.724C17.5845 16.724 15.7297 15.9739 14.2998 14.7314Z" fill="#ED0006"/>
<path fill-rule="evenodd" clip-rule="evenodd" d="M14.2998 14.7314C16.0604 13.2015 17.1769 10.925 17.1769 8.38286C17.1769 5.84074 16.0604 3.56424 14.2998 2.03433C15.7297 0.791822 17.5845 0.041748 19.6113 0.041748C24.1337 0.041748 27.7998 3.77619 27.7998 8.38286C27.7998 12.9895 24.1337 16.724 19.6113 16.724C17.5845 16.724 15.7297 15.9739 14.2998 14.7314Z" fill="#F9A000"/>
<path fill-rule="evenodd" clip-rule="evenodd" d="M14.2999 2.03442C16.0605 3.56434 17.1769 5.84083 17.1769 8.38292C17.1769 10.925 16.0605 13.2015 14.2999 14.7314C12.5392 13.2015 11.4229 10.925 11.4229 8.38292C11.4229 5.84083 12.5392 3.56434 14.2999 2.03442Z" fill="#FF5E00"/>
</svg>
