<svg width="512" height="512" viewBox="0 0 512 512" fill="none" xmlns="http://www.w3.org/2000/svg">
<g clip-path="url(#clip0_780_4104)">
<mask id="mask0_780_4104" style="mask-type:luminance" maskUnits="userSpaceOnUse" x="0" y="0" width="512" height="512">
<path d="M0 0H512V512H0V0Z" fill="white"/>
</mask>
<g mask="url(#mask0_780_4104)">
<path d="M149.333 117.334C149.333 89.0439 160.571 61.9128 180.575 41.9089C200.579 21.9051 227.71 10.667 256 10.667C284.29 10.667 311.421 21.9051 331.425 41.9089C351.429 61.9128 362.667 89.0439 362.667 117.334V234.667C362.667 262.957 351.429 290.088 331.425 310.092C311.421 330.096 284.29 341.334 256 341.334C227.71 341.334 200.579 330.096 180.575 310.092C160.571 290.088 149.333 262.957 149.333 234.667V117.334Z" fill="black"/>
<path d="M256.128 384H255.872C226.143 383.974 197.097 375.078 172.452 358.452C147.806 341.825 128.682 318.224 117.525 290.667C115.378 285.46 111.257 281.313 106.064 279.132C100.87 276.951 95.0252 276.912 89.8034 279.025C84.5816 281.137 80.4071 285.229 78.1909 290.407C75.9746 295.586 75.8964 301.431 77.9733 306.667C90.9686 338.749 112.388 366.726 139.969 387.642C167.55 408.558 200.268 421.635 234.667 425.494V490.667C234.667 496.325 236.914 501.751 240.915 505.752C244.916 509.753 250.342 512 256 512C261.658 512 267.084 509.753 271.085 505.752C275.086 501.751 277.333 496.325 277.333 490.667V425.494C311.736 421.639 344.458 408.563 372.043 387.647C399.628 366.731 421.051 338.752 434.048 306.667C436.125 301.431 436.047 295.586 433.83 290.407C431.614 285.229 427.44 281.137 422.218 279.025C416.996 276.912 411.151 276.951 405.957 279.132C400.764 281.313 396.644 285.46 394.496 290.667C383.341 318.229 364.213 341.834 339.563 358.461C314.913 375.089 285.862 383.981 256.128 384Z" fill="black"/>
</g>
</g>
<defs>
<clipPath id="clip0_780_4104">
<rect width="512" height="512" fill="white"/>
</clipPath>
</defs>
</svg>
