<svg width="512" height="512" viewBox="0 0 512 512" fill="none" xmlns="http://www.w3.org/2000/svg">
<g clip-path="url(#clip0_144_4096)">
<path d="M30.7193 286.723H481.278C485.313 286.723 489.308 285.928 493.036 284.384C496.764 282.839 500.151 280.576 503.004 277.723C505.856 274.869 508.119 271.482 509.663 267.754C511.207 264.026 512.001 260.03 512.001 255.995C512.001 251.961 511.207 247.965 509.663 244.238C508.119 240.51 505.856 237.123 503.003 234.27C500.15 231.417 496.763 229.154 493.035 227.61C489.308 226.066 485.312 225.272 481.278 225.272H30.7193C22.6328 225.367 14.9095 228.646 9.22464 234.398C3.53974 240.149 0.351563 247.91 0.351562 255.998C0.351563 264.085 3.53974 271.846 9.22464 277.597C14.9095 283.349 22.6328 286.628 30.7193 286.723Z" fill="black"/>
</g>
<defs>
<clipPath id="clip0_144_4096">
<rect width="512" height="512" fill="white"/>
</clipPath>
</defs>
</svg>
