<svg width="17" height="15" viewBox="0 0 17 15" fill="none" xmlns="http://www.w3.org/2000/svg">
<path d="M1.32698 2.63803L1.77248 2.86502L1.32698 2.63803ZM1.7682 14.2318L2.12175 14.5854H2.12175L1.7682 14.2318ZM14.362 11.673L14.135 11.2275L14.362 11.673ZM15.673 10.362L15.2275 10.135L15.673 10.362ZM15.673 2.63803L15.2275 2.86502V2.86502L15.673 2.63803ZM14.362 1.32698L14.589 0.881477V0.881477L14.362 1.32698ZM2.63803 1.32698L2.86502 1.77248L2.63803 1.32698ZM3.70711 12.2929L4.06066 12.6464L3.70711 12.2929ZM1.5 5.8C1.5 4.95167 1.50039 4.34549 1.53921 3.87032C1.57756 3.40099 1.65089 3.10366 1.77248 2.86502L0.881477 2.41103C0.676087 2.81413 0.585932 3.25771 0.542533 3.78889C0.499611 4.31423 0.5 4.96817 0.5 5.8H1.5ZM1.5 7V5.8H0.5V7H1.5ZM0.5 7V12H1.5V7H0.5ZM0.5 12V13.9136H1.5V12H0.5ZM0.5 13.9136C0.5 14.76 1.52329 15.1838 2.12175 14.5854L1.41465 13.8782C1.41754 13.8753 1.42812 13.868 1.44323 13.8654C1.4556 13.8632 1.46421 13.8654 1.46913 13.8674C1.47406 13.8695 1.48164 13.874 1.48888 13.8843C1.49771 13.8968 1.5 13.9095 1.5 13.9136H0.5ZM2.12175 14.5854L4.06066 12.6464L3.35355 11.9393L1.41465 13.8782L2.12175 14.5854ZM11.2 11.5H4.41421V12.5H11.2V11.5ZM14.135 11.2275C13.8963 11.3491 13.599 11.4224 13.1297 11.4608C12.6545 11.4996 12.0483 11.5 11.2 11.5V12.5C12.0318 12.5 12.6858 12.5004 13.2111 12.4575C13.7423 12.4141 14.1859 12.3239 14.589 12.1185L14.135 11.2275ZM15.2275 10.135C14.9878 10.6054 14.6054 10.9878 14.135 11.2275L14.589 12.1185C15.2475 11.783 15.783 11.2475 16.1185 10.589L15.2275 10.135ZM15.5 7.2C15.5 8.04833 15.4996 8.65451 15.4608 9.12968C15.4224 9.59901 15.3491 9.89634 15.2275 10.135L16.1185 10.589C16.3239 10.1859 16.4141 9.74229 16.4575 9.21111C16.5004 8.68577 16.5 8.03183 16.5 7.2H15.5ZM15.5 5.8V7.2H16.5V5.8H15.5ZM15.2275 2.86502C15.3491 3.10366 15.4224 3.40099 15.4608 3.87032C15.4996 4.34549 15.5 4.95167 15.5 5.8H16.5C16.5 4.96817 16.5004 4.31423 16.4575 3.78889C16.4141 3.25771 16.3239 2.81413 16.1185 2.41103L15.2275 2.86502ZM14.135 1.77248C14.6054 2.01217 14.9878 2.39462 15.2275 2.86502L16.1185 2.41103C15.783 1.75247 15.2475 1.21703 14.589 0.881477L14.135 1.77248ZM11.2 1.5C12.0483 1.5 12.6545 1.50039 13.1297 1.53921C13.599 1.57756 13.8963 1.65089 14.135 1.77248L14.589 0.881477C14.1859 0.676087 13.7423 0.585932 13.2111 0.542533C12.6858 0.499611 12.0318 0.5 11.2 0.5V1.5ZM5.8 1.5H11.2V0.5H5.8V1.5ZM2.86502 1.77248C3.10366 1.65089 3.40099 1.57756 3.87032 1.53921C4.34549 1.50039 4.95167 1.5 5.8 1.5V0.5C4.96817 0.5 4.31423 0.499611 3.78889 0.542533C3.25771 0.585932 2.81413 0.676087 2.41103 0.881477L2.86502 1.77248ZM1.77248 2.86502C2.01217 2.39462 2.39462 2.01217 2.86502 1.77248L2.41103 0.881477C1.75247 1.21703 1.21703 1.75247 0.881477 2.41103L1.77248 2.86502ZM4.06066 12.6464C4.15443 12.5527 4.28161 12.5 4.41421 12.5V11.5C4.01639 11.5 3.63486 11.658 3.35355 11.9393L4.06066 12.6464Z" fill="#979797"/>
<path d="M5 5L12 5M5 8H10" stroke="#979797" stroke-linecap="round" stroke-linejoin="round"/>
</svg>
