<svg width="512" height="512" viewBox="0 0 512 512" fill="none" xmlns="http://www.w3.org/2000/svg">
<g clip-path="url(#clip0_951_4094)">
<path d="M288 89.1733C285.171 89.1733 282.458 88.0495 280.458 86.0491C278.457 84.0488 277.333 81.3356 277.333 78.5067V42.6667C277.333 30.912 267.755 21.3333 256 21.3333C244.245 21.3333 234.667 30.912 234.667 42.6667V78.5067C234.667 81.3356 233.543 84.0488 231.542 86.0491C229.542 88.0495 226.829 89.1733 224 89.1733C221.171 89.1733 218.458 88.0495 216.458 86.0491C214.457 84.0488 213.333 81.3356 213.333 78.5067V42.6667C213.333 19.136 232.469 0 256 0C279.531 0 298.667 19.136 298.667 42.6667V78.5067C298.667 81.3356 297.543 84.0488 295.542 86.0491C293.542 88.0495 290.829 89.1733 288 89.1733ZM256 512C214.827 512 181.333 478.507 181.333 437.333C181.333 434.504 182.457 431.791 184.457 429.791C186.458 427.79 189.171 426.667 192 426.667C194.829 426.667 197.542 427.79 199.542 429.791C201.543 431.791 202.667 434.504 202.667 437.333C202.667 466.731 226.603 490.667 256 490.667C285.397 490.667 309.333 466.731 309.333 437.333C309.333 434.504 310.457 431.791 312.458 429.791C314.458 427.79 317.171 426.667 320 426.667C322.829 426.667 325.542 427.79 327.542 429.791C329.543 431.791 330.667 434.504 330.667 437.333C330.667 478.507 297.173 512 256 512Z" fill="black"/>
<path d="M437.333 448H74.6667C68.1359 447.977 61.768 445.959 56.416 442.216C51.0641 438.474 46.9835 433.185 44.7209 427.059C42.4583 420.932 42.1218 414.261 43.7563 407.938C45.3909 401.615 48.9185 395.942 53.8667 391.68C70.4144 377.751 83.7149 360.37 92.8359 340.757C101.957 321.145 106.677 299.774 106.667 278.144V213.333C106.667 130.987 173.653 64 256 64C338.347 64 405.333 130.987 405.333 213.333V278.144C405.333 321.941 424.512 363.264 457.963 391.531C462.968 395.765 466.554 401.433 468.234 407.771C469.915 414.108 469.61 420.808 467.36 426.966C465.11 433.125 461.024 438.444 455.655 442.205C450.285 445.967 443.89 447.99 437.333 448ZM256 85.3333C185.408 85.3333 128 142.741 128 213.333V278.144C128.024 302.84 122.65 327.242 112.254 349.643C101.859 372.045 86.693 391.903 67.8187 407.829C66.1425 409.236 64.9395 411.124 64.3728 413.238C63.8062 415.351 63.9032 417.588 64.6508 419.644C65.3984 421.701 66.7604 423.478 68.5521 424.734C70.3438 425.99 72.4785 426.665 74.6667 426.667H437.333C439.514 426.667 441.642 425.999 443.431 424.752C445.221 423.506 446.585 421.741 447.34 419.695C448.096 417.65 448.206 415.422 447.657 413.312C447.107 411.202 445.924 409.311 444.267 407.893C425.375 391.963 410.193 372.096 399.783 349.684C389.373 327.272 383.986 302.856 384 278.144V213.333C384 142.741 326.592 85.3333 256 85.3333Z" fill="black"/>
</g>
<defs>
<clipPath id="clip0_951_4094">
<rect width="512" height="512" fill="white"/>
</clipPath>
</defs>
</svg>
