<svg width="511" height="512" viewBox="0 0 511 512" fill="none" xmlns="http://www.w3.org/2000/svg">
<path d="M500.742 107.395C488.449 50.2229 469.391 10.1839 468.586 8.50794C465.277 1.61795 457.312 -1.68404 450.098 0.85195C448.688 1.34395 415.102 13.2539 372.789 38.4999C337.871 59.3398 290.941 93.1758 255.422 140.39C247.527 129.875 238.785 119.625 229.219 109.68C207.855 87.4768 182.348 66.7378 153.395 48.0349C104.277 16.3009 62.4924 1.46995 60.7354 0.85195C53.5234 -1.68404 45.5594 1.61695 42.2464 8.50794C41.4414 10.1839 22.3835 50.2229 10.0905 107.395C2.8485 141.09 -0.526491 173.793 0.066508 204.598C0.816507 243.538 7.94149 279.557 21.2345 311.651C34.5314 343.749 54.9644 374.257 81.9694 402.323C103.329 424.523 128.839 445.265 157.789 463.968C206.906 495.702 248.691 510.538 250.449 511.155C253.665 512.279 257.167 512.279 260.383 511.155C262.137 510.538 303.926 495.702 353.043 463.968C381.993 445.265 407.5 424.522 428.863 402.323C455.867 374.257 476.301 343.749 489.593 311.651C502.891 279.558 510.012 243.538 510.762 204.598C511.359 173.793 507.984 141.09 500.742 107.395ZM48.9534 300.174C22.0475 235.222 28.8364 163.313 39.2664 114.422C46.8404 78.9138 57.3954 50.0119 63.7624 34.3199C97.8283 48.7579 190.762 93.8238 242.547 174.387C242.695 174.637 242.855 174.887 243.02 175.129C250.363 186.637 256.863 198.863 262.234 211.829C299.59 302.018 273.214 405.526 255.156 457.171L121.796 135.215C118.629 127.563 109.852 123.925 102.199 127.098C94.5473 130.27 90.9103 139.043 94.0823 146.699L227.438 468.648C212.395 461.409 193.477 451.351 173.449 438.37C131.504 411.175 75.8554 365.124 48.9534 300.175V300.174ZM461.879 300.174C434.977 365.124 379.329 411.174 337.383 438.37C317.355 451.354 298.445 461.405 283.398 468.644L432.031 109.805C435.203 102.152 431.566 93.3748 423.914 90.2068C416.258 87.0388 407.484 90.6718 404.316 98.3238L311.113 323.339C312.23 278.276 305.164 237.081 289.949 200.348C285.254 189.016 279.668 177.875 273.219 166.977C306.172 119.379 353.133 85.2338 387.566 64.6208C412.203 49.8709 433.973 39.8399 447.066 34.3089C453.434 49.9959 463.988 78.9058 471.566 114.422C481.996 163.312 488.786 235.221 461.879 300.175V300.174Z" fill="black"/>
</svg>
