<svg width="512" height="510" viewBox="0 0 512 510" fill="none" xmlns="http://www.w3.org/2000/svg">
<path d="M501.887 107.64C489.568 50.3405 470.467 10.2107 469.658 8.53172C466.342 1.62174 458.358 -1.68324 451.127 0.855745C449.717 1.34874 416.053 13.2857 373.647 38.5906C344.791 55.8095 307.76 81.8954 275.693 117.04C282.092 125.184 288.213 133.703 293.932 142.633L293.99 142.727C303.607 157.754 311.814 173.422 318.393 189.301C327.693 211.75 334.24 235.613 338.049 260.77L405.24 98.5504C408.42 90.8794 417.213 87.2384 424.885 90.4144C432.557 93.5944 436.197 102.387 433.021 110.059L341.705 330.515C340.947 350.147 338.775 370.397 335.178 391.233C327.893 433.413 316.178 469.034 307.553 491.667C321.283 484.667 337.143 475.827 353.853 465.03C382.869 446.284 408.436 425.495 429.846 403.245C456.912 375.112 477.393 344.538 490.72 312.367C504.044 280.199 511.18 244.097 511.935 205.067C512.528 174.191 509.145 141.414 501.888 107.641L501.887 107.64Z" fill="black"/>
<path d="M290.611 200.809C284.713 186.563 277.326 172.473 268.662 158.929C268.658 158.922 268.65 158.914 268.646 158.906C232.217 101.985 177.687 62.0627 138.354 38.5908C95.9491 13.2859 62.2892 1.34897 60.8742 0.852973C59.2756 0.2888 57.5926 0.000691459 55.8973 0.000976774C53.0643 0.00159212 50.2891 0.802267 47.8912 2.31082C45.4933 3.81936 43.5702 5.97445 42.3433 8.52794C41.5343 10.2079 22.4364 50.3368 10.1134 107.638C2.85047 141.41 -0.528515 174.19 0.0644822 205.067C0.818479 244.094 7.95545 280.195 21.2844 312.367C34.6073 344.535 55.0883 375.113 82.1542 403.241C103.564 425.495 129.134 446.284 158.15 465.031C196.756 489.971 230.838 504.499 244.6 509.901L94.2961 147.035C91.1161 139.363 94.7611 130.566 102.433 127.391C110.105 124.216 118.897 127.855 122.077 135.527L272.376 498.386C279.4 482.241 296.264 439.878 305.549 386.116C317.619 316.227 312.596 253.883 290.611 200.809Z" fill="black"/>
</svg>
