<svg width="20" height="16" viewBox="0 0 20 16" fill="none" xmlns="http://www.w3.org/2000/svg">
<rect x="9" y="7" width="2" height="2" fill="#D5D5D5"/>
<path d="M5.74995 3.76025C4.62329 4.88566 3.99023 6.4128 3.99023 8.00525C3.99023 9.59771 4.62329 11.1248 5.74995 12.2503L7.16995 10.8403C6.41578 10.0896 5.99179 9.06934 5.99179 8.00525C5.99179 6.94116 6.41578 5.92093 7.16995 5.17025L5.74995 3.76025Z" fill="#D5D5D5"/>
<path d="M14.2501 12.24C15.3767 11.1146 16.0098 9.58746 16.0098 7.995C16.0098 6.40254 15.3767 4.87541 14.2501 3.75L12.8301 5.16C13.5843 5.91067 14.0082 6.93091 14.0082 7.995C14.0082 9.05909 13.5843 10.0793 12.8301 10.83L14.2501 12.24Z" fill="#D5D5D5"/>
<path d="M4.34958 13.6502C1.23452 10.5276 1.23452 5.4728 4.34958 2.35018L2.93958 0.930176C-0.964236 4.83517 -0.964236 11.1652 2.93958 15.0702L4.34958 13.6502Z" fill="#D5D5D5"/>
<path d="M15.6504 2.35018C18.7655 5.4728 18.7655 10.5276 15.6504 13.6502L17.0604 15.0702C20.9642 11.1652 20.9642 4.83517 17.0604 0.930176L15.6504 2.35018Z" fill="#D5D5D5"/>
</svg>
