<svg width="512" height="512" viewBox="0 0 512 512" fill="none" xmlns="http://www.w3.org/2000/svg">
<path d="M481.28 81.9199H30.72C13.783 81.9199 0 95.7029 0 112.64V399.36C0 416.297 13.783 430.08 30.72 430.08H481.28C498.217 430.08 512 416.297 512 399.36V112.64C512 95.7029 498.217 81.9199 481.28 81.9199ZM491.52 399.36C491.52 404.992 486.912 409.6 481.28 409.6H30.72C25.068 409.6 20.48 404.992 20.48 399.36V112.64C20.48 106.987 25.068 102.4 30.72 102.4H481.28C486.912 102.4 491.52 106.987 491.52 112.64V399.36Z" fill="#278867"/>
<path d="M10.2402 174.08H501.76V215.04H10.2402V174.08Z" fill="#278867"/>
<path d="M501.76 163.84H10.24C4.588 163.84 0 168.427 0 174.08V215.04C0 220.693 4.588 225.28 10.24 225.28H501.76C507.412 225.28 512 220.693 512 215.04V174.08C512 168.427 507.412 163.84 501.76 163.84ZM491.52 204.8H20.48V184.32H491.52V204.8ZM276.48 286.72H92.16C86.508 286.72 81.92 291.308 81.92 296.96C81.92 302.612 86.508 307.2 92.16 307.2H276.48C282.132 307.2 286.72 302.612 286.72 296.96C286.72 291.307 282.132 286.72 276.48 286.72ZM194.56 327.68H92.16C86.508 327.68 81.92 332.268 81.92 337.92C81.92 343.572 86.508 348.16 92.16 348.16H194.56C200.212 348.16 204.8 343.572 204.8 337.92C204.8 332.268 200.212 327.68 194.56 327.68Z" fill="#278867"/>
</svg>
