<svg width="512" height="512" viewBox="0 0 512 512" fill="none" xmlns="http://www.w3.org/2000/svg">
<path d="M204.684 286.487C197.059 281.023 187.732 278.464 178.386 279.272C169.539 279.144 160.699 279.806 151.971 281.25V372.363H171.287V339.316C173.495 339.474 175.712 339.474 177.92 339.316C183.001 339.646 188.097 338.962 192.912 337.304C197.726 335.646 202.163 333.047 205.964 329.658C211.378 323.692 214.221 315.832 213.877 307.782C213.967 303.78 213.192 299.806 211.606 296.131C210.019 292.456 207.658 289.166 204.684 286.487ZM180.949 323.938C179.895 323.979 178.841 323.907 177.803 323.724L178.385 323.608C176.22 323.862 174.033 323.862 171.869 323.608V295.913C174.499 295.296 177.197 295.022 179.898 295.098C189.673 295.098 195.142 300.218 195.142 308.596C195.459 316.752 189.105 323.621 180.949 323.938Z" fill="black"/>
<path d="M349.091 0H93.0909C67.3849 0 46.5449 20.839 46.5449 46.545V465.454C46.5449 491.16 67.3839 511.999 93.0899 511.999H418.908C444.614 511.999 465.453 491.16 465.453 465.454V128L349.091 0ZM442.182 465.455C442.182 478.308 431.762 488.728 418.909 488.728H93.0909C80.2379 488.728 69.8179 478.308 69.8179 465.455V46.545C69.8179 33.692 80.2379 23.272 93.0909 23.272H302.546V139.636C302.546 152.489 312.965 162.909 325.819 162.909H442.183L442.182 465.455ZM325.818 139.636V23.273H337.454L442.181 139.637L325.818 139.636Z" fill="black"/>
<path d="M283.462 289.862C273.359 282.219 260.846 278.461 248.204 279.273C239.36 279.211 230.526 279.873 221.789 281.251V372.364C229.117 373.344 236.505 373.81 243.898 373.76C258.133 374.813 272.269 370.68 283.694 362.124C288.61 357.282 292.431 351.442 294.9 344.999C297.369 338.556 298.428 331.658 298.007 324.771C298.48 318.22 297.411 311.649 294.885 305.587C292.359 299.524 288.447 294.138 283.462 289.862ZM277.411 324.771C277.295 346.764 265.775 357.12 248.204 357.004V356.888C245.96 357.112 243.699 357.112 241.455 356.888V296.263C244.361 295.649 247.329 295.375 250.299 295.448C264.403 294.457 276.639 305.087 277.63 319.191C277.76 321.053 277.687 322.924 277.411 324.771ZM314.88 372.364H334.429V335.244H365.382V318.255H334.429V297.193H367.593V280.087H314.88V372.364Z" fill="black"/>
</svg>
