<svg width="512" height="512" viewBox="0 0 512 512" fill="none" xmlns="http://www.w3.org/2000/svg">
<path fill-rule="evenodd" clip-rule="evenodd" d="M131.199 0H302.378L447.457 151.221V445.346C447.457 482.191 417.648 512 380.93 512H131.199C94.3539 512 64.5449 482.191 64.5449 445.346V66.6544C64.5443 29.809 94.3533 0 131.199 0Z" fill="#E5252A"/>
<path fill-rule="evenodd" clip-rule="evenodd" d="M302.25 0V150.069H447.458L302.25 0Z" fill="white"/>
<path d="M138.619 382.017V288.496H178.407C188.259 288.496 196.063 291.183 201.948 296.684C207.833 302.057 210.776 309.35 210.776 318.433C210.776 327.516 207.833 334.809 201.948 340.182C196.063 345.684 188.259 348.37 178.407 348.37H162.543V382.017H138.619ZM162.543 328.029H175.721C179.303 328.029 182.117 327.261 184.037 325.47C185.956 323.807 186.98 321.504 186.98 318.434C186.98 315.364 185.956 313.061 184.037 311.397C182.118 309.606 179.303 308.839 175.721 308.839H162.543V328.029ZM220.626 382.017V288.496H253.761C260.286 288.496 266.427 289.391 272.184 291.311C277.941 293.23 283.187 295.917 287.792 299.627C292.398 303.209 296.108 308.07 298.795 314.211C301.353 320.353 302.761 327.389 302.761 335.321C302.761 343.125 301.354 350.162 298.795 356.302C296.108 362.443 292.398 367.305 287.792 370.887C283.186 374.597 277.941 377.283 272.184 379.203C266.427 381.121 260.286 382.017 253.761 382.017H220.626ZM244.038 361.676H250.947C254.657 361.676 258.111 361.292 261.31 360.396C264.38 359.501 267.323 358.093 270.137 356.175C272.824 354.256 274.999 351.569 276.534 347.987C278.069 344.405 278.837 340.182 278.837 335.321C278.837 330.331 278.069 326.109 276.534 322.527C274.999 318.946 272.824 316.259 270.137 314.34C267.323 312.421 264.38 311.013 261.31 310.118C258.111 309.222 254.657 308.838 250.947 308.838H244.038V361.676ZM314.787 382.017V288.496H381.314V308.838H338.711V323.806H372.742V344.02H338.711V382.017H314.787Z" fill="white"/>
</svg>
