<svg width="10" height="14" viewBox="0 0 10 14" fill="none" xmlns="http://www.w3.org/2000/svg">
<path d="M5 13.245C4.88795 13.1151 4.75411 12.9575 4.60384 12.776C4.14163 12.2179 3.52622 11.437 2.91183 10.5446C2.29645 9.65074 1.6885 8.65426 1.23599 7.66439C0.780383 6.66775 0.5 5.71553 0.5 4.9C0.5 2.47662 2.50229 0.5 5 0.5C7.49771 0.5 9.5 2.47662 9.5 4.9C9.5 5.71553 9.21962 6.66775 8.76401 7.66439C8.3115 8.65426 7.70355 9.65074 7.08817 10.5446C6.47378 11.437 5.85837 12.2179 5.39616 12.776C5.24589 12.9575 5.11205 13.1151 5 13.245ZM2.71429 4.9C2.71429 6.15162 3.74771 7.15 5 7.15C6.25229 7.15 7.28571 6.15162 7.28571 4.9C7.28571 3.64838 6.25229 2.65 5 2.65C3.74771 2.65 2.71429 3.64838 2.71429 4.9Z" stroke="#979797"/>
</svg>
