<svg width="512" height="512" viewBox="0 0 512 512" fill="none" xmlns="http://www.w3.org/2000/svg">
<g clip-path="url(#clip0_191_4108)">
<path d="M386.17 130.169C386.17 58.394 327.776 0 256 0C184.225 0 125.831 58.394 125.831 130.169C125.831 199.02 179.591 255.401 247.322 259.896V503.322C247.322 505.624 248.236 507.831 249.864 509.458C251.491 511.086 253.699 512 256 512C258.302 512 260.509 511.086 262.136 509.458C263.764 507.831 264.678 505.624 264.678 503.322V259.896C332.41 255.401 386.17 199.02 386.17 130.169ZM212.61 130.169C193.467 130.169 177.898 114.601 177.898 95.4576C177.898 76.314 193.467 60.7458 212.61 60.7458C231.754 60.7458 247.322 76.314 247.322 95.4576C247.322 114.601 231.754 130.169 212.61 130.169Z" fill="black"/>
</g>
<defs>
<clipPath id="clip0_191_4108">
<rect width="512" height="512" fill="white"/>
</clipPath>
</defs>
</svg>
