<svg width="512" height="512" viewBox="0 0 512 512" fill="none" xmlns="http://www.w3.org/2000/svg">
<g clip-path="url(#clip0_151_4096)">
<path d="M256 0C205.099 0.0677323 156.303 20.318 120.31 56.3103C84.318 92.3026 64.0677 141.099 64 192C64 329.84 242.88 502.48 250.48 509.76C251.958 511.197 253.939 512.001 256 512.001C258.061 512.001 260.042 511.197 261.52 509.76C269.12 502.48 448 329.84 448 192C447.932 141.099 427.682 92.3026 391.69 56.3103C355.697 20.318 306.901 0.0677323 256 0ZM256 280C238.595 280 221.581 274.839 207.11 265.169C192.638 255.5 181.359 241.756 174.699 225.676C168.038 209.596 166.295 191.902 169.691 174.832C173.086 157.762 181.468 142.082 193.775 129.775C206.082 117.468 221.762 109.086 238.832 105.691C255.902 102.295 273.596 104.038 289.676 110.699C305.756 117.359 319.5 128.638 329.169 143.11C338.839 157.581 344 174.595 344 192C343.985 215.334 334.709 237.709 318.209 254.209C301.709 270.709 279.334 279.985 256 280Z" fill="black"/>
</g>
<defs>
<clipPath id="clip0_151_4096">
<rect width="512" height="512" fill="white"/>
</clipPath>
</defs>
</svg>
