<svg width="134" height="157" viewBox="0 0 134 157" fill="none" xmlns="http://www.w3.org/2000/svg">
<path d="M120.042 0H13.9583C6.26171 0 0 6.26171 0 13.9583V142.375C0 150.072 6.26171 156.333 13.9583 156.333H120.042C127.738 156.333 134 150.072 134 142.375V13.9583C134 6.26171 127.738 0 120.042 0ZM128.417 142.375C128.417 146.992 124.659 150.75 120.042 150.75H13.9583C9.34092 150.75 5.58333 146.992 5.58333 142.375V13.9583C5.58333 9.34092 9.34092 5.58333 13.9583 5.58333H120.042C124.659 5.58333 128.417 9.34092 128.417 13.9583V142.375Z" fill="black"/>
<path d="M114.458 11.1667H19.5416C14.9242 11.1667 11.1666 14.9243 11.1666 19.5417V136.792C11.1666 141.409 14.9242 145.167 19.5416 145.167H114.458C119.076 145.167 122.833 141.409 122.833 136.792V19.5417C122.833 14.9243 119.076 11.1667 114.458 11.1667ZM51.1796 16.75H82.8203V30.7084C82.8203 32.2466 81.5697 33.5 80.0287 33.5H53.9712C52.4302 33.5 51.1796 32.2466 51.1796 30.7084V16.75ZM82.8203 139.583H51.1796V125.625C51.1796 124.087 52.4302 122.833 53.9712 122.833H80.0287C81.5697 122.833 82.8203 124.087 82.8203 125.625V139.583ZM117.25 136.792C117.25 138.33 115.999 139.583 114.458 139.583H88.4037V125.625C88.4037 121.008 84.6461 117.25 80.0287 117.25H53.9712C49.3538 117.25 45.5962 121.008 45.5962 125.625V139.583H19.5416C18.0006 139.583 16.75 138.33 16.75 136.792V80.9584H44.8592C46.2411 91.9575 55.6323 100.5 67 100.5C78.3676 100.5 87.7588 91.9575 89.1407 80.9584H117.25V136.792ZM83.4987 80.9584C82.1643 88.8671 75.2856 94.9167 67 94.9167C58.7143 94.9167 51.8384 88.8671 50.5012 80.9584H83.4987ZM50.5012 75.375C51.8356 67.4662 58.7143 61.4167 67 61.4167C75.2856 61.4167 82.1615 67.4662 83.4987 75.375H50.5012ZM117.25 75.375H89.1407C87.7588 64.3759 78.3676 55.8334 67 55.8334C55.6323 55.8334 46.2411 64.3759 44.8592 75.375H16.75V19.5417C16.75 18.0035 18.0006 16.75 19.5416 16.75H45.5962V30.7084C45.5962 35.3258 49.3538 39.0834 53.9712 39.0834H80.0287C84.6461 39.0834 88.4037 35.3258 88.4037 30.7084V16.75H114.458C115.999 16.75 117.25 18.0035 117.25 19.5417V75.375Z" fill="black"/>
</svg>
