<svg width="512" height="512" viewBox="0 0 512 512" fill="none" xmlns="http://www.w3.org/2000/svg">
<path d="M48 176C52.2435 176 56.3131 174.314 59.3137 171.314C62.3143 168.313 64 164.243 64 160V80C64 75.7565 65.6857 71.6869 68.6863 68.6863C71.6869 65.6857 75.7565 64 80 64H168C172.243 64 176.313 62.3143 179.314 59.3137C182.314 56.3131 184 52.2435 184 48C184 43.7565 182.314 39.6869 179.314 36.6863C176.313 33.6857 172.243 32 168 32H80C67.2696 32 55.0606 37.0571 46.0589 46.0589C37.0571 55.0606 32 67.2696 32 80V160C32 164.243 33.6857 168.313 36.6863 171.314C39.6869 174.314 43.7565 176 48 176ZM432 32H344C339.757 32 335.687 33.6857 332.686 36.6863C329.686 39.6869 328 43.7565 328 48C328 52.2435 329.686 56.3131 332.686 59.3137C335.687 62.3143 339.757 64 344 64H432C436.243 64 440.313 65.6857 443.314 68.6863C446.314 71.6869 448 75.7565 448 80V160C448 164.243 449.686 168.313 452.686 171.314C455.687 174.314 459.757 176 464 176C468.243 176 472.313 174.314 475.314 171.314C478.314 168.313 480 164.243 480 160V80C480 67.2696 474.943 55.0606 465.941 46.0589C456.939 37.0571 444.73 32 432 32ZM464 336C459.757 336 455.687 337.686 452.686 340.686C449.686 343.687 448 347.757 448 352V432C448 436.243 446.314 440.313 443.314 443.314C440.313 446.314 436.243 448 432 448H344C339.757 448 335.687 449.686 332.686 452.686C329.686 455.687 328 459.757 328 464C328 468.243 329.686 472.313 332.686 475.314C335.687 478.314 339.757 480 344 480H432C444.73 480 456.939 474.943 465.941 465.941C474.943 456.939 480 444.73 480 432V352C480 347.757 478.314 343.687 475.314 340.686C472.313 337.686 468.243 336 464 336ZM168 448H80C75.7565 448 71.6869 446.314 68.6863 443.314C65.6857 440.313 64 436.243 64 432V352C64 347.757 62.3143 343.687 59.3137 340.686C56.3131 337.686 52.2435 336 48 336C43.7565 336 39.6869 337.686 36.6863 340.686C33.6857 343.687 32 347.757 32 352V432C32 444.73 37.0571 456.939 46.0589 465.941C55.0606 474.943 67.2696 480 80 480H168C172.243 480 176.313 478.314 179.314 475.314C182.314 472.313 184 468.243 184 464C184 459.757 182.314 455.687 179.314 452.686C176.313 449.686 172.243 448 168 448ZM464 240H48C43.7565 240 39.6869 241.686 36.6863 244.686C33.6857 247.687 32 251.757 32 256C32 260.243 33.6857 264.313 36.6863 267.314C39.6869 270.314 43.7565 272 48 272H464C468.243 272 472.313 270.314 475.314 267.314C478.314 264.313 480 260.243 480 256C480 251.757 478.314 247.687 475.314 244.686C472.313 241.686 468.243 240 464 240Z" fill="black"/>
</svg>
