<svg width="512" height="492" viewBox="0 0 512 492" fill="none" xmlns="http://www.w3.org/2000/svg">
<path d="M114.596 491.646C108.986 491.646 103.416 489.896 98.6616 486.459C94.3377 483.329 91.0292 478.997 89.1477 474.002C87.2662 469.007 86.8947 463.569 88.0793 458.364L121.018 313.27L9.31131 215.309C5.29376 211.803 2.39561 207.194 0.977426 202.054C-0.440758 196.914 -0.316372 191.471 1.33511 186.401C2.97646 181.334 6.06886 176.86 10.2289 173.534C14.389 170.208 19.4337 168.176 24.7377 167.691L172.538 154.271L230.975 17.5208C235.282 7.47352 245.094 0.985352 255.998 0.985352C266.901 0.985352 276.713 7.47352 281.022 17.4978L339.457 154.271L487.234 167.689C498.117 168.669 507.289 176.033 510.66 186.4C514.032 196.768 510.914 208.14 502.703 215.308L390.997 313.251L423.936 458.341C426.35 469.009 422.209 480.042 413.358 486.44C404.525 492.838 392.747 493.33 383.447 487.74L255.998 411.578L128.549 487.783C124.24 490.342 119.439 491.646 114.596 491.646ZM255.998 378.769C260.842 378.769 265.638 380.069 269.951 382.628L390.232 454.568L359.145 317.622C358.057 312.836 358.283 307.844 359.801 303.176C361.318 298.508 364.07 294.337 367.765 291.106L473.241 198.603L333.695 185.932C328.784 185.492 324.085 183.725 320.102 180.82C316.118 177.914 313 173.98 311.081 169.439L255.998 40.3894L200.848 169.458C196.965 178.653 188.324 184.97 178.301 185.888L38.7341 198.56L144.207 291.063C151.761 297.677 155.065 307.833 152.827 317.603L121.764 454.544L242.044 382.628C246.353 380.069 251.154 378.769 255.998 378.769ZM171.409 156.915C171.409 156.915 171.409 156.938 171.386 156.958L171.409 156.915ZM340.544 156.852L340.567 156.895C340.567 156.872 340.567 156.872 340.543 156.852H340.544Z" fill="#278867"/>
</svg>
