<svg width="512" height="512" viewBox="0 0 512 512" fill="none" xmlns="http://www.w3.org/2000/svg">
<path d="M384 266.666C378.342 266.666 372.916 268.914 368.915 272.915C364.914 276.915 362.667 282.342 362.667 288C362.667 309.096 356.411 329.719 344.69 347.26C332.969 364.802 316.31 378.473 296.819 386.547C277.329 394.62 255.882 396.732 235.19 392.617C214.499 388.501 195.493 378.342 180.575 363.424C165.658 348.507 155.499 329.5 151.383 308.809C147.267 288.118 149.379 266.671 157.453 247.18C165.526 227.689 179.198 211.03 196.739 199.309C214.28 187.589 234.903 181.333 256 181.333H332.587L304.853 208.853C302.62 210.765 300.806 213.119 299.526 215.765C298.245 218.412 297.526 221.295 297.412 224.233C297.299 227.171 297.794 230.101 298.866 232.838C299.939 235.576 301.566 238.062 303.645 240.141C305.724 242.22 308.21 243.847 310.948 244.92C313.685 245.992 316.615 246.487 319.553 246.374C322.491 246.26 325.374 245.541 328.021 244.26C330.667 242.98 333.021 241.166 334.933 238.933L398.933 174.933C400.933 172.95 402.52 170.59 403.603 167.99C404.686 165.391 405.244 162.602 405.244 159.786C405.244 156.97 404.686 154.182 403.603 151.582C402.52 148.982 400.933 146.623 398.933 144.64L334.933 80.6395C330.852 77.1446 325.603 75.3183 320.233 75.5257C314.864 75.7331 309.771 77.9588 305.972 81.7582C302.173 85.5575 299.947 90.6506 299.739 96.0197C299.532 101.389 301.358 106.638 304.853 110.72L332.587 138.666H256C226.465 138.666 197.593 147.424 173.035 163.833C148.477 180.242 129.337 203.565 118.034 230.852C106.731 258.139 103.774 288.165 109.536 317.133C115.298 346.101 129.521 372.709 150.405 393.594C171.29 414.479 197.899 428.701 226.866 434.463C255.834 440.226 285.86 437.268 313.147 425.966C340.434 414.663 363.757 395.522 380.166 370.965C396.575 346.407 405.333 317.535 405.333 288C405.333 282.342 403.086 276.915 399.085 272.915C395.084 268.914 389.658 266.666 384 266.666Z" fill="black"/>
</svg>
