<svg width="11" height="12" viewBox="0 0 11 12" fill="none" xmlns="http://www.w3.org/2000/svg">
<g clip-path="url(#clip0_3012_2487)">
<path d="M6.84597 10.6307C6.64968 11.0555 6.51992 11.5166 6.47021 12L10.6242 11.1382C10.8204 10.7134 10.9501 10.2523 10.9999 9.7688L6.84597 10.6307Z" fill="#0D0D0D"/>
<path d="M10.624 8.55594C10.8203 8.1312 10.95 7.67007 10.9998 7.18659L7.76397 7.85832V6.56701L10.6239 5.97378C10.8202 5.54904 10.9499 5.08791 10.9997 4.60443L7.76387 5.27559V0.631619C7.26805 0.90335 6.82771 1.26505 6.46977 1.6917V5.54417L5.17567 5.81265V0C4.67985 0.271635 4.23951 0.633434 3.88157 1.06008V6.08104L0.986012 6.68162C0.78972 7.10636 0.659869 7.56749 0.610062 8.05097L3.88157 7.37236V8.99854L0.37551 9.72577C0.179217 10.1505 0.049465 10.6116 -0.000244141 11.0951L3.66962 10.3339C3.96836 10.2732 4.22513 10.1008 4.39206 9.86359L5.06509 8.88966V8.88947C5.13496 8.7887 5.17567 8.66721 5.17567 8.53636V7.10388L6.46977 6.83539V9.41803L10.6239 8.55575L10.624 8.55594Z" fill="#0D0D0D"/>
</g>
<defs>
<clipPath id="clip0_3012_2487">
<rect width="11" height="12" fill="white"/>
</clipPath>
</defs>
</svg>
