<svg
    width="512" height="512" viewBox="0 0 512 512" fill="none" xmlns="http://www.w3.org/2000/svg">
<path d="M471.489 225.322L58.7313 23.9571C54.7648 22.0242 50.3716 21.1323 45.9653 21.3654C41.559 21.5986 37.2845 22.949 33.5441 25.2897C29.8037 27.6304 26.7203 30.8844 24.5843 34.7454C22.4482 38.6063 21.3297 42.9473 21.334 47.3598V48.1064C21.3361 51.5947 21.766 55.0695 22.614 58.4531L62.2087 216.832C62.7394 218.942 63.9026 220.839 65.5422 222.269C67.1819 223.699 69.2196 224.593 71.382 224.832L245.398 244.181C248.293 244.529 250.961 245.926 252.896 248.108C254.831 250.29 255.899 253.105 255.899 256.021C255.899 258.937 254.831 261.752 252.896 263.934C250.961 266.116 248.293 267.513 245.398 267.861L71.382 287.21C69.2196 287.449 67.1819 288.344 65.5422 289.774C63.9026 291.204 62.7394 293.101 62.2087 295.21L22.614 453.568C21.766 456.951 21.3361 460.426 21.334 463.914V464.661C21.3333 469.072 22.4545 473.41 24.592 477.268C26.7296 481.126 29.8133 484.377 33.5531 486.716C37.293 489.054 41.5661 490.402 45.9707 490.634C50.3752 490.867 54.7664 489.975 58.7313 488.042L471.467 286.677C477.215 283.873 482.06 279.51 485.449 274.086C488.838 268.662 490.634 262.395 490.634 256C490.634 249.604 488.838 243.337 485.449 237.913C482.06 232.489 477.237 228.127 471.489 225.322Z" fill="black"/>
</svg>
