<svg width="512" height="512" viewBox="0 0 512 512" fill="none" xmlns="http://www.w3.org/2000/svg">
<path d="M497.998 192.832L461.669 190.409C457.996 178.887 453.356 167.696 447.799 156.955L471.781 129.548C476.981 123.605 476.682 114.649 471.098 109.065L402.935 40.8988C397.352 35.3148 388.395 35.0158 382.453 40.2158L355.041 64.1997C344.301 58.6433 333.111 54.0041 321.59 50.3318L319.168 14.0029C318.643 6.12395 312.099 0.000976562 304.201 0.000976562H207.802C199.905 0.000976562 193.361 6.12395 192.835 14.0029L190.414 50.3308C178.891 54.0023 167.7 58.6414 156.958 64.1987L129.548 40.2178C123.607 35.0198 114.65 35.3158 109.066 40.9008L40.9018 109.065C35.3179 114.649 35.0199 123.605 40.2198 129.548L64.2007 156.955C58.6426 167.697 54.0021 178.889 50.3288 190.412L14.0019 192.834C6.12298 193.359 0 199.903 0 207.801V304.199C0 312.096 6.12298 318.64 14.0019 319.166L50.3278 321.588C54.0009 333.111 58.6417 344.303 64.2007 355.044L40.2188 382.454C35.0189 388.397 35.3179 397.353 40.9008 402.937L109.061 471.099C114.646 476.683 123.602 476.981 129.544 471.782L156.956 447.8C167.698 453.358 178.889 457.998 190.412 461.67L192.835 497.998C193.361 505.877 199.905 511.999 207.802 511.999H304.201C312.098 511.999 318.642 505.876 319.168 497.997L321.59 461.669C333.111 457.996 344.302 453.356 355.044 447.8L382.453 471.782C388.394 476.981 397.351 476.683 402.935 471.099L471.102 402.935C476.686 397.351 476.985 388.394 471.784 382.451L447.799 355.042C453.356 344.301 457.996 333.11 461.669 321.588L497.995 319.166C505.874 318.641 511.997 312.097 511.997 304.199L512 207.799C512 199.902 505.878 193.357 497.998 192.832ZM481.997 290.166L449.205 292.352C446.07 292.561 443.081 293.749 440.657 295.749C438.234 297.748 436.499 300.458 435.698 303.496C431.449 319.609 425.038 335.072 416.64 349.466C415.057 352.18 414.367 355.324 414.667 358.452C414.966 361.58 416.241 364.536 418.31 366.901L439.965 391.647L391.645 439.965L366.9 418.313C364.535 416.244 361.58 414.97 358.452 414.671C355.324 414.371 352.181 415.062 349.467 416.644C335.072 425.04 319.608 431.451 303.495 435.702C300.457 436.503 297.747 438.237 295.748 440.661C293.749 443.084 292.561 446.074 292.352 449.208L290.166 482.001H221.833L219.645 449.207C219.436 446.072 218.248 443.082 216.248 440.659C214.248 438.236 211.538 436.502 208.5 435.701C192.387 431.452 176.924 425.041 162.53 416.644C159.816 415.062 156.673 414.371 153.545 414.671C150.417 414.97 147.462 416.244 145.097 418.313L120.349 439.965L72.0337 391.649L93.6876 366.9C95.7573 364.535 97.0316 361.579 97.3307 358.451C97.6298 355.322 96.9386 352.179 95.3546 349.465C86.9561 335.072 80.5448 319.609 76.2957 303.497C75.4949 300.459 73.7605 297.749 71.3371 295.749C68.9137 293.749 65.9236 292.561 62.7888 292.352L29.9999 290.166V221.834L62.7918 219.648C65.9265 219.439 68.9165 218.251 71.3399 216.252C73.7633 214.253 75.4978 211.543 76.2987 208.505C80.5488 192.392 86.9603 176.928 95.3586 162.534C96.9425 159.82 97.6336 156.676 97.3343 153.547C97.035 150.418 95.7604 147.463 93.6906 145.097L72.0387 120.353L120.357 72.0347L145.104 93.6866C147.469 95.7559 150.424 97.0302 153.553 97.3297C156.681 97.6291 159.824 96.9386 162.538 95.3556C176.93 86.9583 192.393 80.5488 208.505 76.3017C211.544 75.5013 214.254 73.7669 216.254 71.3432C218.254 68.9195 219.442 65.929 219.651 62.7937L221.837 29.9989H290.17L292.356 62.7937C292.565 65.9287 293.753 68.9189 295.753 71.3423C297.752 73.7658 300.463 75.5002 303.501 76.3007C319.612 80.5497 335.075 86.9595 349.468 95.3556C352.182 96.9375 355.325 97.6274 358.453 97.3279C361.581 97.0285 364.535 95.7549 366.901 93.6866L391.649 72.0327L439.966 120.353L418.31 145.099C416.241 147.465 414.967 150.42 414.667 153.548C414.368 156.676 415.058 159.82 416.641 162.534C425.038 176.927 431.449 192.39 435.699 208.502C436.5 211.54 438.235 214.25 440.658 216.249C443.082 218.249 446.071 219.437 449.206 219.646L482.001 221.834L481.997 290.166Z" fill="#278867"/>
<path d="M256.001 144.601C194.575 144.601 144.602 194.575 144.602 256.001C144.602 317.427 194.576 367.401 256.001 367.401C317.428 367.401 367.401 317.427 367.401 256.001C367.401 194.575 317.428 144.601 256.001 144.601ZM256.001 337.401C211.117 337.401 174.602 300.885 174.602 256.001C174.602 211.117 211.118 174.601 256.001 174.601C300.886 174.601 337.401 211.117 337.401 256.001C337.401 300.885 300.886 337.401 256.001 337.401Z" fill="#278867"/>
</svg>
