<svg width="18" height="18" viewBox="0 0 18 18" fill="none" xmlns="http://www.w3.org/2000/svg">
<path fill-rule="evenodd" clip-rule="evenodd" d="M14.1513 0C16.1052 0 17.6891 1.58394 17.6891 3.53782C17.6891 5.4917 16.1052 7.07564 14.1513 7.07564C13.1166 7.07564 12.1857 6.6315 11.5388 5.92348L7.07564 8.47336V9.21573L11.5388 11.7656C12.1857 11.0576 13.1166 10.6135 14.1513 10.6135C16.1052 10.6135 17.6891 12.1974 17.6891 14.1513C17.6891 16.1052 16.1052 17.6891 14.1513 17.6891C12.1974 17.6891 10.6135 16.1052 10.6135 14.1513C10.6135 13.8685 10.6466 13.5934 10.7093 13.3298L6.42922 10.8837C5.78865 11.7903 4.73237 12.3824 3.53782 12.3824C1.58394 12.3824 0 10.7984 0 8.84455C0 6.89066 1.58394 5.30673 3.53782 5.30673C4.73237 5.30673 5.78865 5.89877 6.42922 6.80543L10.7093 4.35933C10.6466 4.0957 10.6135 3.82063 10.6135 3.53782C10.6135 1.58394 12.1974 0 14.1513 0ZM14.1519 12.3824C13.1749 12.3824 12.383 13.1743 12.383 14.1513C12.383 15.1282 13.1749 15.9202 14.1519 15.9202C15.1288 15.9202 15.9208 15.1282 15.9208 14.1513C15.9208 13.1743 15.1288 12.3824 14.1519 12.3824ZM3.5377 7.07564C2.56076 7.07564 1.7688 7.86761 1.7688 8.84455C1.7688 9.82149 2.56076 10.6135 3.5377 10.6135C4.51465 10.6135 5.30661 9.82149 5.30661 8.84455C5.30661 7.86761 4.51465 7.07564 3.5377 7.07564ZM14.1519 1.7689C13.1749 1.7689 12.383 2.56087 12.383 3.53781C12.383 4.51476 13.1749 5.30672 14.1519 5.30672C15.1288 5.30672 15.9208 4.51476 15.9208 3.53781C15.9208 2.56087 15.1288 1.7689 14.1519 1.7689Z" fill="#278867"/>
</svg>
