<svg width="512" height="512" viewBox="0 0 512 512" fill="none" xmlns="http://www.w3.org/2000/svg">
<path fill-rule="evenodd" clip-rule="evenodd" d="M255.358 15.9414L253.471 15.972C250.086 16.23 246.876 17.5726 244.316 19.8005L242.68 21.4282C242.475 21.67 242.276 21.9172 242.084 22.1695C208.369 65.3991 160.103 81.3475 97.9295 71.8258C95.6618 71.4776 93.3457 71.6239 91.1399 72.2548C88.934 72.8856 86.8908 73.9861 85.1501 75.4807C83.4095 76.9752 82.0126 78.8286 81.0554 80.9136C80.0982 82.9986 79.6033 85.266 79.6045 87.5603V263.696C79.6037 311.226 93.8456 357.667 120.493 397.025C147.14 436.384 184.969 466.854 229.101 484.505L248.817 492.392C252.607 493.912 256.841 493.912 260.639 492.392L280.354 484.505C324.486 466.854 362.315 436.384 388.963 397.025C415.61 357.667 429.852 311.226 429.851 263.696V87.5603C429.853 85.2649 429.359 82.9961 428.402 80.9098C427.445 78.8235 426.047 76.9692 424.305 75.4742C422.563 73.9793 420.519 72.8791 418.311 72.2493C416.104 71.6195 413.787 71.4751 411.518 71.8258C349.352 81.3475 301.087 65.3991 267.371 22.1695L265.652 20.259L265.14 19.8005C262.582 17.5679 259.37 16.2246 255.985 15.972L255.358 15.9414ZM254.724 56.1907C218.525 94.0329 170.802 110.577 111.44 105.503V263.696C111.441 304.863 123.777 345.086 146.857 379.175C169.936 413.265 202.7 439.657 240.923 454.947L254.724 460.464L268.525 454.947C306.748 439.658 339.513 413.266 362.592 379.176C385.672 345.087 398.007 304.863 398.007 263.696V105.503C338.654 110.577 290.931 94.0329 254.724 56.1907ZM191.893 282.197L235.337 329.217C237.114 331.137 239.337 332.59 241.809 333.446C244.282 334.303 246.927 334.538 249.512 334.129C252.096 333.72 254.54 332.681 256.627 331.103C258.715 329.525 260.381 327.457 261.479 325.082L320.321 197.724C321.957 193.913 322.041 189.613 320.555 185.741C319.07 181.868 316.133 178.728 312.368 176.988C308.603 175.248 304.307 175.045 300.395 176.423C296.483 177.801 293.263 180.651 291.42 184.366L242.558 290.114L215.277 260.586C213.858 259.05 212.15 257.809 210.252 256.934C208.353 256.058 206.301 255.565 204.212 255.483C202.123 255.401 200.038 255.731 198.076 256.454C196.115 257.178 194.315 258.28 192.779 259.699C191.244 261.118 190.003 262.826 189.128 264.724C188.252 266.623 187.759 268.675 187.677 270.764C187.595 272.853 187.924 274.938 188.648 276.9C189.371 278.861 190.474 280.661 191.893 282.197Z" fill="black"/>
</svg>
