<svg width="187" height="141" viewBox="0 0 187 141" fill="none" xmlns="http://www.w3.org/2000/svg">
<path d="M96.0172 79.4443C66.882 79.4443 35.912 73.1699 35.912 61.5419C35.912 49.9139 66.8774 43.6396 96.0172 43.6396C111.673 43.6396 126.185 45.3566 136.885 48.4731C148.235 51.7828 154.232 56.2987 154.232 61.5419C154.232 66.7851 148.235 71.301 136.885 74.6108C126.19 77.7272 111.673 79.4443 96.0172 79.4443ZM96.0172 46.8711C62.5025 46.8711 39.1482 54.6047 39.1482 61.5419C39.1482 68.4791 62.5025 76.2127 96.0172 76.2127C129.532 76.2127 150.996 68.6264 150.996 61.5419C150.996 54.4574 128.905 46.8711 96.0172 46.8711Z" fill="#1E1E1E" stroke="#1E1E1E" stroke-width="3" stroke-miterlimit="10"/>
<path d="M51.8764 61.1598C51.2217 61.1598 50.6086 60.7593 50.3643 60.1149C50.0508 59.2817 50.4703 58.3472 51.3047 58.0342C53.8909 57.0629 56.9381 56.1698 60.3541 55.3873C68.5507 53.5091 78.5314 52.326 89.1989 51.9624C90.0886 51.9348 90.8401 52.6299 90.8723 53.5229C90.9 54.4159 90.2039 55.1617 89.3095 55.1939C78.8402 55.5484 69.0809 56.7038 61.0779 58.5359C57.8002 59.2863 54.9005 60.1333 52.448 61.054C52.259 61.123 52.0654 61.1598 51.8764 61.1598Z" fill="#1E1E1E" stroke="#1E1E1E" stroke-miterlimit="10"/>
<path d="M96.6395 136.47C74.6636 136.47 53.9831 133.851 38.4013 129.1C22.2341 124.166 13.3322 117.357 13.3322 109.928C13.3322 102.498 22.2341 95.6894 38.4013 90.7547C53.9785 85.9994 74.6636 83.3801 96.6395 83.3801C112.254 83.3801 127.439 85.0419 140.54 88.186C141.407 88.3932 141.942 89.2632 141.734 90.1332C141.527 90.9986 140.651 91.5326 139.784 91.3255C126.923 88.2412 112 86.6071 96.6348 86.6071C48.7369 86.6071 16.5638 98.6632 16.5638 109.923C16.5638 121.183 48.7369 133.239 96.6348 133.239C109.709 133.239 121.828 132.53 132.662 131.13C133.542 131.02 134.358 131.641 134.474 132.525C134.589 133.409 133.962 134.219 133.077 134.334C122.11 135.752 109.852 136.47 96.6395 136.47Z" fill="#1E1E1E" stroke="#1E1E1E" stroke-width="3" stroke-miterlimit="10"/>
<path d="M25.5717 108.947C25.0922 108.947 24.6128 108.735 24.2947 108.326C23.7461 107.621 23.8752 106.609 24.5759 106.061C27.1944 104.021 32.4498 100.983 42.5918 98.0785C54.6976 94.6168 69.8323 92.4395 86.3591 91.7904C87.2673 91.7674 88.0049 92.4487 88.0371 93.3417C88.074 94.2348 87.3779 94.9851 86.4836 95.0173C70.2103 95.6572 55.3384 97.7885 43.4769 101.181C33.3257 104.086 28.5174 107.078 26.5582 108.606C26.2632 108.837 25.9128 108.947 25.5624 108.947H25.5717Z" fill="#1E1E1E" stroke="#1E1E1E" stroke-miterlimit="10"/>
<path d="M99.2302 39.7774C75.1706 39.7774 60.2296 34.3132 60.2296 25.5162C60.2296 16.7193 75.1752 11.2551 99.2302 11.2551C121.755 11.2551 145.69 16.2543 145.69 25.5162C145.69 34.7781 121.75 39.7774 99.2302 39.7774ZM99.2302 14.4867C74.6543 14.4867 63.4612 20.204 63.4612 25.5162C63.4612 30.8285 74.6543 36.5458 99.2302 36.5458C126.01 36.5458 142.454 30.1196 142.454 25.5162C142.454 20.9129 126.01 14.4867 99.2302 14.4867Z" fill="#1E1E1E" stroke="#1E1E1E" stroke-width="3" stroke-miterlimit="10"/>
<path d="M73.9582 25.9213C73 26 72.6766 25.5162 72.4369 24.8626C72.128 24.0248 72.5613 23.0995 73.3958 22.7911C76.5075 21.6495 82.2239 20.1764 91.7712 19.6608C92.6471 19.6056 93.4262 20.2961 93.4723 21.1845C93.523 22.073 92.8361 22.8371 91.9418 22.8831C82.8002 23.3803 77.4157 24.7567 74.5114 25.8247C74.327 25.8937 74.3843 25.9213 74.1999 25.9213H73.9582Z" fill="#1E1E1E" stroke="#1E1E1E" stroke-miterlimit="10"/>
<path d="M10.6997 44.6845C10.4462 44.6845 10.2065 44.6845 9.96213 44.6753C7.52344 44.6155 5.5688 42.6636 5.51348 40.2285C5.42128 36.3709 6.00675 31.0771 9.33517 27.7581C11.0363 26.0594 13.4058 24.9408 16.3792 24.4299C17.2598 24.2826 18.0942 24.8718 18.2463 25.7464C18.3984 26.6256 17.8037 27.4588 16.9232 27.6108C14.6274 28.0066 12.8388 28.8214 11.6217 30.0367C8.97098 32.6836 8.68055 37.5079 8.74509 40.1456C8.75892 40.8545 9.33056 41.4207 10.0405 41.4392C12.6866 41.5036 17.5179 41.2136 20.1687 38.5667C20.4084 38.3273 20.6389 38.0557 20.8509 37.7703C21.3811 37.0522 22.3907 36.8957 23.1098 37.4251C23.829 37.9544 23.9857 38.9626 23.4556 39.6807C23.1467 40.0996 22.8102 40.4909 22.4506 40.8499C19.3296 43.9664 14.4707 44.6753 10.6951 44.6753L10.6997 44.6845Z" fill="#1E1E1E" stroke="#1E1E1E" stroke-miterlimit="10"/>
<path d="M33.2149 48.3395C32.7816 48.3395 32.3436 48.2751 31.9057 48.1462C28.2039 47.0414 23.3449 44.8502 21.2105 40.6612C20.1179 38.5206 19.7814 35.9244 20.2147 32.9414C20.3438 32.0576 21.1644 31.4499 22.0449 31.5742C22.93 31.7031 23.5432 32.5225 23.4141 33.4063C23.0776 35.7126 23.3081 37.6598 24.0871 39.1927C25.7882 42.5255 30.2922 44.2932 32.8277 45.0482C33.5054 45.2507 34.2245 44.887 34.455 44.2196C35.3309 41.7292 36.5526 37.0522 34.8515 33.7148C34.6947 33.4109 34.515 33.1071 34.3029 32.8217C33.782 32.099 33.9479 31.0863 34.6717 30.5661C35.3955 30.0459 36.4097 30.207 36.9306 30.9343C37.2349 31.3532 37.5068 31.7998 37.7373 32.2509C39.8718 36.4399 38.793 41.6555 37.5115 45.2921C36.8522 47.1611 35.1004 48.3395 33.2149 48.3395Z" fill="#1E1E1E" stroke="#1E1E1E" stroke-miterlimit="10"/>
<path d="M35.5752 33.4984C33.6529 33.4984 31.6153 32.9736 29.5039 31.9333C28.7017 31.5374 28.3744 30.5707 28.7663 29.7697C29.1627 28.9687 30.1308 28.6419 30.933 29.0378C33.0259 30.0689 34.9529 30.4556 36.654 30.184C40.3558 29.5994 43.4307 25.8661 44.9335 23.6933C45.3392 23.1087 45.2101 22.3169 44.6477 21.8842C42.5456 20.2822 38.4657 17.6814 34.7685 18.266C34.432 18.3212 34.0862 18.3995 33.7497 18.51C32.9014 18.7816 31.9887 18.312 31.7167 17.465C31.4447 16.6134 31.9149 15.7065 32.7631 15.4349C33.2564 15.2784 33.7635 15.1541 34.266 15.0759C38.9129 14.3439 43.5459 16.977 46.6162 19.3201C48.557 20.7978 48.9857 23.5276 47.6027 25.53C45.4084 28.7017 41.8172 32.6422 37.1703 33.3741C36.6494 33.457 36.1238 33.4984 35.5845 33.4984H35.5752Z" fill="#1E1E1E" stroke="#1E1E1E" stroke-miterlimit="10"/>
<path d="M30.2553 23.2836C29.8496 23.2836 29.4393 23.1317 29.1259 22.8233C28.4851 22.2018 28.4712 21.1799 29.0982 20.54C30.7255 18.869 31.6936 17.1612 31.961 15.4626C32.4082 12.6545 30.9837 9.62554 29.7113 7.58166C29.2964 6.91878 28.8354 6.2513 28.3329 5.59302C27.9042 5.03142 27.1067 4.90713 26.5212 5.30762C24.3453 6.8083 20.6066 9.87873 20.0211 13.5752C19.9658 13.9112 19.9381 14.2657 19.9381 14.6202C19.9381 15.5086 19.2097 16.2267 18.32 16.2267H18.3154C17.4257 16.2267 16.7019 15.4948 16.7019 14.6063C16.7019 14.0862 16.748 13.5706 16.8264 13.0688C17.564 8.42868 21.5055 4.84268 24.6818 2.64689C26.6872 1.26129 29.4163 1.694 30.8961 3.6274C31.4585 4.36394 31.9841 5.11888 32.4497 5.87383C34.7224 9.52427 35.626 12.9215 35.1419 15.9643C34.7639 18.3396 33.5054 20.6367 31.3986 22.7957C31.0805 23.1225 30.661 23.2836 30.2415 23.2836H30.2553Z" fill="#1E1E1E" stroke="#1E1E1E" stroke-miterlimit="10"/>
<path d="M10.9579 28.5636C10.7919 28.5636 11.1239 29.65 10.9579 29.5948C10.4646 29.4337 9.9852 29.2311 9.53342 29.0009C5.34293 26.8696 3.14396 22.0131 2.03756 18.3166C1.34145 15.9827 2.59537 13.5245 4.89576 12.719C8.53766 11.4392 13.7608 10.3621 17.9559 12.4934C20.0995 13.5844 21.902 15.4902 23.3035 18.1555C23.7184 18.9427 23.4141 19.9232 22.6258 20.3375C21.8329 20.7518 20.8602 20.448 20.4407 19.6608C19.3573 17.5985 18.025 16.1576 16.4853 15.3751C13.1477 13.6765 8.4639 14.8917 5.96528 15.7664C5.29683 16.0011 4.93264 16.7146 5.13548 17.3959C5.89152 19.9278 7.66176 24.4252 10.9994 26.1239C11.3083 26.2804 11.631 26.4139 11.9675 26.5243C12.8157 26.8051 13.2767 27.7166 12.9955 28.5636C12.7742 29.2449 12.1381 29.673 11.4604 29.673L10.9579 28.5636Z" fill="#1E1E1E" stroke="#1E1E1E" stroke-miterlimit="10"/>
<path d="M24.1609 31.1231C21.3626 31.1231 19.0807 28.8491 19.0807 26.0502C19.0807 23.2514 21.358 20.9774 24.1609 20.9774C26.9638 20.9774 29.2411 23.2514 29.2411 26.0502C29.2411 28.8491 26.9638 31.1231 24.1609 31.1231ZM24.1609 24.2089C23.1467 24.2089 22.3169 25.0329 22.3169 26.0502C22.3169 27.0676 23.1421 27.8916 24.1609 27.8916C25.1797 27.8916 26.0049 27.0676 26.0049 26.0502C26.0049 25.0329 25.1751 24.2089 24.1609 24.2089Z" fill="#1E1E1E" stroke="#1E1E1E" stroke-miterlimit="10"/>
<path d="M144.943 139.159C142.656 139.159 140.568 137.663 139.895 135.379C138.567 130.863 137.581 124.442 140.43 119.516C141.882 117.007 144.302 114.959 147.621 113.431C148.433 113.058 149.392 113.412 149.765 114.222C150.138 115.033 149.783 115.995 148.972 116.363C146.271 117.606 144.339 119.208 143.228 121.127C140.831 125.27 142.052 131.259 142.997 134.463C143.302 135.508 144.371 136.12 145.427 135.867C148.672 135.08 154.481 133.142 156.878 128.999C157.099 128.612 157.298 128.203 157.468 127.775C157.791 126.941 158.727 126.532 159.561 126.854C160.391 127.176 160.806 128.115 160.483 128.944C160.257 129.524 159.985 130.086 159.681 130.615C156.832 135.54 150.77 137.897 146.192 139.007C145.773 139.108 145.353 139.159 144.943 139.159Z" fill="#1E1E1E" stroke="#1E1E1E" stroke-miterlimit="10"/>
<path d="M173.848 136.125C173.792 136.125 173.746 136.125 173.695 136.125C168.984 135.992 162.562 134.947 158.754 130.716C156.814 128.562 155.606 125.629 155.182 122.002C155.076 121.118 155.712 120.313 156.597 120.207C157.496 120.105 158.284 120.736 158.39 121.62C158.741 124.571 159.667 126.905 161.156 128.553C164.365 132.106 170.445 132.797 173.788 132.894C173.806 132.894 173.829 132.894 173.848 132.894C174.908 132.894 175.793 132.079 175.876 131.02C176.13 127.692 176.079 121.579 172.875 118.02C172.575 117.689 172.243 117.376 171.888 117.086C171.197 116.52 171.091 115.502 171.658 114.812C172.225 114.121 173.244 114.02 173.935 114.582C174.419 114.977 174.871 115.405 175.281 115.857C179.094 120.082 179.467 126.569 179.108 131.264C178.896 134.017 176.604 136.125 173.857 136.125H173.848Z" fill="#1E1E1E" stroke="#1E1E1E" stroke-miterlimit="10"/>
<path d="M169.537 117.882C168.311 117.882 167.02 117.749 165.67 117.477C164.794 117.302 164.227 116.45 164.397 115.576C164.572 114.701 165.425 114.135 166.301 114.305C169.219 114.885 171.732 114.724 173.76 113.822C178.135 111.875 180.67 106.314 181.795 103.165C182.16 102.143 181.662 101.02 180.657 100.606C177.568 99.3353 171.727 97.494 167.352 99.4412C166.947 99.6207 166.545 99.8416 166.154 100.09C165.402 100.574 164.402 100.357 163.918 99.6069C163.438 98.8565 163.655 97.8576 164.406 97.3743C164.932 97.0382 165.481 96.739 166.034 96.495C171.238 94.1842 177.526 95.8322 181.888 97.6228C184.492 98.6954 185.792 101.609 184.843 104.256C183.261 108.689 180.279 114.462 175.074 116.777C173.419 117.514 171.566 117.882 169.533 117.882H169.537Z" fill="#1E1E1E" stroke="#1E1E1E" stroke-miterlimit="10"/>
<path d="M163.194 106.94C162.927 106.94 162.655 106.876 162.406 106.733C161.627 106.296 161.35 105.31 161.788 104.532C163.245 101.941 163.867 99.5056 163.632 97.3006C163.254 93.6732 160.516 90.4232 158.284 88.3379C157.565 87.6658 156.786 87.003 155.965 86.3769C155.103 85.714 153.882 85.8429 153.176 86.6715C151.014 89.2126 147.455 94.1888 147.953 98.9486C147.999 99.3905 148.082 99.837 148.202 100.284C148.428 101.149 147.912 102.028 147.05 102.258C146.183 102.484 145.303 101.968 145.072 101.108C144.915 100.5 144.8 99.8923 144.736 99.2846C144.141 93.6271 147.658 88.163 150.71 84.577C152.536 82.4318 155.712 82.1004 157.939 83.8175C158.842 84.5126 159.7 85.2399 160.493 85.9856C164.319 89.567 166.453 93.2635 166.845 96.9646C167.149 99.8509 166.393 102.93 164.605 106.116C164.31 106.645 163.756 106.94 163.194 106.94Z" fill="#1E1E1E" stroke="#1E1E1E" stroke-miterlimit="10"/>
<path d="M142.739 120.621C142.712 120.621 142.679 120.621 142.647 120.621C142.025 120.584 141.407 120.506 140.812 120.377C135.239 119.194 131.122 114.167 128.651 110.158C127.171 107.764 127.84 104.643 130.163 103.055C134.054 100.399 139.863 97.4755 145.436 98.6586C148.276 99.2616 150.973 100.928 153.458 103.612C154.062 104.265 154.025 105.287 153.37 105.895C152.711 106.503 151.692 106.461 151.083 105.803C149.064 103.621 146.939 102.281 144.768 101.816C140.079 100.822 134.755 103.833 131.993 105.72C131.095 106.332 130.841 107.538 131.408 108.464C133.16 111.304 136.802 116.22 141.485 117.215C141.923 117.307 142.375 117.367 142.836 117.394C143.726 117.445 144.408 118.209 144.357 119.097C144.307 119.958 143.597 120.621 142.744 120.621H142.739Z" fill="#1E1E1E" stroke="#1E1E1E" stroke-miterlimit="10"/>
<path d="M157.307 118.43C154.638 118.43 152.291 116.63 151.604 114.057C150.761 110.913 152.637 107.672 155.781 106.83C156.284 106.696 156.8 106.627 157.316 106.627C159.985 106.627 162.332 108.427 163.019 111C163.424 112.524 163.222 114.112 162.429 115.479C161.64 116.846 160.363 117.822 158.842 118.227C158.34 118.361 157.823 118.43 157.307 118.43ZM157.312 109.854C157.076 109.854 156.841 109.886 156.615 109.946C155.191 110.328 154.338 111.796 154.725 113.219C155.039 114.388 156.099 115.198 157.307 115.198C157.542 115.198 157.773 115.166 158.003 115.106C158.695 114.922 159.271 114.48 159.626 113.863C159.985 113.247 160.078 112.524 159.893 111.838C159.58 110.669 158.519 109.858 157.312 109.858V109.854Z" fill="#1E1E1E" stroke="#1E1E1E" stroke-miterlimit="10"/>
</svg>
