<svg width="13" height="12" viewBox="0 0 13 12" fill="none" xmlns="http://www.w3.org/2000/svg">
<path d="M6.50041 0L8.31617 3.57165L8.36647 3.65699C8.49542 3.84769 8.70311 3.97767 8.93879 4.01111L13 4.58689L10.0621 7.36541L9.99393 7.43829C9.84668 7.61647 9.78348 7.84872 9.8238 8.07691L10.5164 12L6.88575 10.1469L6.79327 10.1065C6.5732 10.0256 6.32616 10.0391 6.11508 10.1469L2.4836 12L3.17703 8.07691L3.18803 7.97904C3.19917 7.75087 3.10957 7.52695 2.93871 7.36541L0 4.58689L4.06204 4.01111C4.33139 3.97289 4.56417 3.80859 4.68466 3.57165L6.50041 0Z" fill="#FFC817"/>
</svg>
