<svg width="512" height="512" viewBox="0 0 512 512" fill="none" xmlns="http://www.w3.org/2000/svg">
<path d="M255.999 362.666C314.909 362.666 362.665 314.91 362.665 256C362.665 197.089 314.909 149.333 255.999 149.333C197.088 149.333 149.332 197.089 149.332 256C149.332 314.91 197.088 362.666 255.999 362.666Z" fill="#F1C506"/>
<path d="M447.999 277.333H426.666C421.008 277.333 415.582 275.086 411.581 271.085C407.58 267.084 405.333 261.658 405.333 256C405.333 250.342 407.58 244.916 411.581 240.915C415.582 236.914 421.008 234.667 426.666 234.667H447.999C453.657 234.667 459.084 236.914 463.084 240.915C467.085 244.916 469.333 250.342 469.333 256C469.333 261.658 467.085 267.084 463.084 271.085C459.084 275.086 453.657 277.333 447.999 277.333ZM85.3327 277.333H63.9993C58.3414 277.333 52.9152 275.086 48.9144 271.085C44.9136 267.084 42.666 261.658 42.666 256C42.666 250.342 44.9136 244.916 48.9144 240.915C52.9152 236.914 58.3414 234.667 63.9993 234.667H85.3327C90.9906 234.667 96.4168 236.914 100.418 240.915C104.418 244.916 106.666 250.342 106.666 256C106.666 261.658 104.418 267.084 100.418 271.085C96.4168 275.086 90.9906 277.333 85.3327 277.333ZM376.746 156.587C371.447 156.347 366.427 154.141 362.666 150.4C358.693 146.403 356.462 140.996 356.462 135.36C356.462 129.724 358.693 124.317 362.666 120.32L377.813 105.173C379.725 102.94 382.079 101.126 384.725 99.8457C387.372 98.5652 390.255 97.8456 393.193 97.7321C396.131 97.6187 399.061 98.1137 401.798 99.1862C404.536 100.259 407.022 101.886 409.101 103.965C411.18 106.044 412.807 108.53 413.88 111.268C414.952 114.005 415.447 116.935 415.334 119.873C415.22 122.811 414.501 125.694 413.22 128.341C411.94 130.987 410.126 133.341 407.893 135.253L392.746 150.4C390.652 152.482 388.149 154.107 385.395 155.172C382.641 156.237 379.696 156.719 376.746 156.587ZM120.319 413.013C117.512 413.029 114.729 412.491 112.129 411.43C109.53 410.368 107.166 408.804 105.173 406.827C101.199 402.829 98.9691 397.422 98.9691 391.787C98.9691 386.151 101.199 380.744 105.173 376.747L120.319 362.667C124.4 359.172 129.65 357.345 135.019 357.553C140.388 357.76 145.481 359.986 149.281 363.785C153.08 367.585 155.306 372.678 155.513 378.047C155.721 383.416 153.894 388.665 150.399 392.747L135.253 407.893C131.113 411.447 125.769 413.279 120.319 413.013ZM255.999 106.667C250.341 106.667 244.915 104.419 240.914 100.418C236.914 96.4173 234.666 90.9911 234.666 85.3332V63.9998C234.666 58.3419 236.914 52.9157 240.914 48.9149C244.915 44.9141 250.341 42.6665 255.999 42.6665C261.657 42.6665 267.084 44.9141 271.084 48.9149C275.085 52.9157 277.333 58.3419 277.333 63.9998V85.3332C277.333 90.9911 275.085 96.4173 271.084 100.418C267.084 104.419 261.657 106.667 255.999 106.667ZM255.999 469.333C250.341 469.333 244.915 467.086 240.914 463.085C236.914 459.084 234.666 453.658 234.666 448V426.667C234.666 421.009 236.914 415.582 240.914 411.582C244.915 407.581 250.341 405.333 255.999 405.333C261.657 405.333 267.084 407.581 271.084 411.582C275.085 415.582 277.333 421.009 277.333 426.667V448C277.333 453.658 275.085 459.084 271.084 463.085C267.084 467.086 261.657 469.333 255.999 469.333ZM135.253 156.587C129.656 156.563 124.293 154.341 120.319 150.4L105.173 135.253C101.678 131.172 99.8515 125.922 100.059 120.553C100.266 115.184 102.492 110.091 106.291 106.292C110.091 102.492 115.184 100.267 120.553 100.059C125.922 99.8519 131.172 101.678 135.253 105.173L150.399 120.32C154.373 124.317 156.603 129.724 156.603 135.36C156.603 140.996 154.373 146.403 150.399 150.4C148.406 152.377 146.042 153.941 143.443 155.003C140.843 156.065 138.06 156.603 135.253 156.587ZM391.679 413.013C386.083 412.99 380.72 410.768 376.746 406.827L362.666 391.68C360.412 387.627 359.539 382.95 360.181 378.356C360.824 373.763 362.945 369.504 366.224 366.225C369.504 362.945 373.763 360.824 378.356 360.182C382.949 359.54 387.626 360.412 391.679 362.667L406.826 377.813C410.799 381.81 413.03 387.217 413.03 392.853C413.03 398.489 410.799 403.896 406.826 407.893C402.632 411.499 397.201 413.335 391.679 413.013Z" fill="#F2B108"/>
</svg>
