<svg width="416" height="453" viewBox="0 0 416 453" fill="none" xmlns="http://www.w3.org/2000/svg">
<path d="M208 452.283C201.651 452.276 195.408 450.646 189.867 447.547L117.973 407.611C82.2302 387.739 52.4468 358.676 31.7053 323.431C10.9638 288.185 0.0177812 248.037 2.31204e-07 207.141V96.2932C-0.00102664 87.0692 3.41855 78.1725 9.59736 71.3238C15.7762 64.4751 24.2752 60.161 33.4507 59.2159C62.055 56.184 90.2069 49.819 117.333 40.2505C142.204 31.4588 166.063 20.0302 188.501 6.15988C194.371 2.56786 201.119 0.666992 208 0.666992C214.881 0.666992 221.629 2.56786 227.499 6.15988C249.939 20.0263 273.797 31.4547 298.667 40.2505C325.793 49.819 353.945 56.184 382.549 59.2159C391.725 60.161 400.224 64.4751 406.403 71.3238C412.581 78.1725 416.001 87.0692 416 96.2932V207.141C415.982 248.037 405.036 288.185 384.295 323.431C363.553 358.676 333.77 387.739 298.027 407.611L226.133 447.568C220.59 450.661 214.348 452.285 208 452.283ZM208 32.6559C207.061 32.6476 206.139 32.8986 205.333 33.3812C180.949 48.4524 155.024 60.8749 128 70.4372C98.5228 80.8411 67.9287 87.7575 36.8427 91.0452C35.5222 91.1574 34.2919 91.7611 33.3952 92.7368C32.4985 93.7126 32.0006 94.9893 32 96.3145V207.163C32.0114 242.352 41.4276 276.9 59.2738 307.228C77.12 337.557 102.748 362.565 133.504 379.664L205.397 419.6C206.186 420.043 207.075 420.275 207.979 420.275C208.883 420.275 209.772 420.043 210.56 419.6L282.496 379.664C313.252 362.565 338.88 337.557 356.726 307.228C374.572 276.9 383.989 242.352 384 207.163V96.2932C383.999 94.968 383.502 93.6913 382.605 92.7155C381.708 91.7398 380.478 91.1361 379.157 91.0239C348.071 87.7362 317.477 80.8198 288 70.4159C260.978 60.8671 235.053 48.459 210.667 33.4025C209.866 32.9082 208.941 32.6495 208 32.6559Z" fill="#278867"/>
<path d="M197.333 274C193.414 274.003 189.631 272.56 186.709 269.947L138.709 227.28C135.733 224.412 133.982 220.504 133.822 216.375C133.663 212.245 135.108 208.213 137.854 205.125C140.601 202.037 144.436 200.131 148.556 199.807C152.676 199.483 156.762 200.766 159.957 203.387L196.309 235.685L265.664 161.723C267.092 160.154 268.818 158.886 270.74 157.99C272.663 157.095 274.745 156.591 276.864 156.507C278.983 156.423 281.098 156.762 283.085 157.503C285.073 158.244 286.893 159.373 288.44 160.824C289.987 162.275 291.23 164.019 292.097 165.955C292.964 167.89 293.437 169.979 293.49 172.099C293.542 174.22 293.172 176.329 292.402 178.306C291.632 180.282 290.476 182.085 289.003 183.61L209.003 268.944C207.509 270.543 205.702 271.816 203.694 272.686C201.687 273.556 199.521 274.003 197.333 274Z" fill="#278867"/>
</svg>
