<svg width="24" height="24" viewBox="0 0 24 24" fill="none" xmlns="http://www.w3.org/2000/svg">
<path d="M20 8.25V18C20 21 18.21 22 16 22H8C5.79 22 4 21 4 18V8.25C4 5 5.79 4.25 8 4.25C8 4.87 8.24997 5.43 8.65997 5.84C9.06997 6.25 9.63 6.5 10.25 6.5H13.75C14.99 6.5 16 5.49 16 4.25C18.21 4.25 20 5 20 8.25Z" stroke="#278867" stroke-width="1.5" stroke-linecap="round" stroke-linejoin="round"/>
<path d="M16 4.25C16 5.49 14.99 6.5 13.75 6.5H10.25C9.63 6.5 9.06997 6.25 8.65997 5.84C8.24997 5.43 8 4.87 8 4.25C8 3.01 9.01 2 10.25 2H13.75C14.37 2 14.93 2.25 15.34 2.66C15.75 3.07 16 3.63 16 4.25Z" stroke="#278867" stroke-width="1.5" stroke-linecap="round" stroke-linejoin="round"/>
<path d="M12.8015 9.53078L14.9222 11.6527C15.2121 11.9427 15.2119 12.4235 14.9219 12.7134C14.6319 13.0032 14.1511 13.0031 13.8613 12.7131L12.2707 11.1216L10.6793 12.7122C10.3893 13.002 9.90847 13.0018 9.61864 12.7118C9.32881 12.4219 9.32895 11.941 9.61894 11.6512L11.7409 9.53048C12.0309 9.24064 12.5117 9.24078 12.8015 9.53078Z" fill="#278867"/>
<path d="M12.8027 9.5875C12.937 9.72189 13.0218 9.90576 13.0218 10.1179L13.0194 18.5466C13.0192 18.9567 12.6797 19.296 12.2696 19.2959C11.8595 19.2958 11.5202 18.9563 11.5203 18.5462L11.5227 10.1175C11.5228 9.70734 11.8623 9.36803 12.2725 9.36815C12.4775 9.37528 12.6684 9.45311 12.8027 9.5875Z" fill="#278867"/>
</svg>
