<svg width="512" height="156" viewBox="0 0 512 156" fill="none" xmlns="http://www.w3.org/2000/svg">
<path d="M187.733 151.549L213.74 5.26343H254.375L229.181 151.549H187.733Z" fill="#3C58BF"/>
<path d="M187.733 151.549L221.054 5.26343H254.375L229.181 151.549H187.733Z" fill="#293688"/>
<path d="M376.279 6.88879C368.152 3.63799 355.149 0.387207 338.895 0.387207C298.26 0.387207 269.003 20.7047 269.003 49.9618C269.003 71.9047 289.321 83.2824 305.575 90.5967C321.829 97.911 326.705 102.787 326.705 109.289C326.705 119.041 313.702 123.917 302.324 123.917C286.07 123.917 277.13 121.479 263.314 115.79L257.625 113.352L251.937 146.673C261.689 150.736 279.568 154.8 298.26 154.8C341.333 154.8 369.778 134.482 369.778 103.6C369.778 86.5333 359.213 73.5301 334.832 62.965C320.203 55.6507 311.264 51.5872 311.264 44.2729C311.264 37.7713 318.578 31.2697 334.832 31.2697C348.648 31.2697 358.4 33.7078 365.714 36.9586L369.778 38.584L376.279 6.88879Z" fill="#3C58BF"/>
<path d="M376.279 6.88879C368.152 3.63799 355.149 0.387207 338.895 0.387207C298.26 0.387207 276.317 20.7047 276.317 49.9618C276.317 71.9047 289.321 83.2824 305.575 90.5967C321.829 97.911 326.705 102.787 326.705 109.289C326.705 119.041 313.702 123.917 302.324 123.917C286.07 123.917 277.13 121.479 263.314 115.79L257.625 113.352L251.937 146.673C261.689 150.736 279.568 154.8 298.26 154.8C341.333 154.8 369.778 134.482 369.778 103.6C369.778 86.5333 359.213 73.5301 334.832 62.965C320.203 55.6507 311.264 51.5872 311.264 44.2729C311.264 37.7713 318.578 31.2697 334.832 31.2697C348.648 31.2697 358.4 33.7078 365.714 36.9586L369.778 38.584L376.279 6.88879Z" fill="#293688"/>
<path d="M446.171 5.26343C436.419 5.26343 429.105 6.07614 425.041 15.8285L364.089 151.549H407.975L416.102 127.168H468.114L472.99 151.549H512L477.867 5.26343H446.171ZM427.479 102.787C429.917 95.473 443.733 59.7142 443.733 59.7142C443.733 59.7142 446.984 50.7746 449.422 45.0857L451.86 58.9015C451.86 58.9015 459.987 95.473 461.613 103.6H427.479V102.787Z" fill="#3C58BF"/>
<path d="M455.924 5.26343C446.171 5.26343 438.857 6.07614 434.794 15.8285L364.089 151.549H407.975L416.102 127.168H468.114L472.99 151.549H512L477.867 5.26343H455.924ZM427.479 102.787C430.73 94.6603 443.733 59.7142 443.733 59.7142C443.733 59.7142 446.984 50.7746 449.422 45.0857L451.86 58.9015C451.86 58.9015 459.987 95.473 461.613 103.6H427.479V102.787Z" fill="#293688"/>
<path d="M112.965 107.663L108.902 86.5333C101.587 62.1524 78.019 35.3333 52.0127 22.3301L88.5841 152.362H132.47L198.298 6.07617H154.413L112.965 107.663Z" fill="#3C58BF"/>
<path d="M112.965 107.663L108.902 86.5333C101.587 62.1524 78.019 35.3333 52.0127 22.3301L88.5841 152.362H132.47L198.298 6.07617H162.54L112.965 107.663Z" fill="#293688"/>
<path d="M0 5.26343L7.31429 6.88883C59.327 19.0793 95.0857 49.9618 108.902 86.5333L94.273 17.4539C91.8349 7.70152 84.5206 5.26343 75.581 5.26343H0Z" fill="#FFBC00"/>
<path d="M0 5.26343C52.0127 17.4539 95.0857 49.1492 108.902 85.7206L95.0857 28.019C92.6476 18.2666 84.5206 12.5777 75.581 12.5777L0 5.26343Z" fill="#F7981D"/>
<path d="M0 5.26343C52.0127 17.4539 95.0857 49.1492 108.902 85.7206L99.1492 54.0253C96.7111 44.273 93.4603 34.5206 82.0825 30.4571L0 5.26343Z" fill="#ED7C00"/>
<path d="M153.6 102.787L125.968 75.1554L112.965 106.038L109.714 85.7205C102.4 61.3396 78.8315 34.5205 52.8252 21.5173L89.3966 151.549H133.282L153.6 102.787ZM229.181 151.549L194.235 115.79L187.733 151.549H229.181ZM322.641 101.162C325.892 104.413 327.517 106.851 326.705 110.101C326.705 119.854 313.701 124.73 302.324 124.73C286.07 124.73 277.13 122.292 263.314 116.603L257.625 114.165L251.936 147.486C261.689 151.549 279.568 155.613 298.26 155.613C324.266 155.613 345.397 148.298 357.587 135.295L322.641 101.162ZM369.778 151.549H407.974L416.101 127.168H468.114L472.99 151.549H512L498.184 92.2221L449.422 45.0856L451.86 58.0888C451.86 58.0888 459.987 94.6602 461.613 102.787H427.479C430.73 94.6602 443.733 59.7142 443.733 59.7142C443.733 59.7142 446.984 50.7745 449.422 45.0856" fill="#051244"/>
</svg>
