<svg width="512" height="424" viewBox="0 0 512 424" fill="none" xmlns="http://www.w3.org/2000/svg">
<path d="M438.154 0.307617H73.846C33.127 0.307617 0 33.4346 0 74.1536V349.846C0 390.565 33.127 423.692 73.846 423.692H438.154C478.873 423.692 512 390.565 512 349.846V74.1536C512 33.4346 478.873 0.307617 438.154 0.307617ZM482.462 256.308H374.154C349.723 256.308 329.846 236.432 329.846 212C329.846 187.568 349.722 167.692 374.154 167.692H482.462V256.308ZM482.462 138.154H374.154C333.435 138.154 300.308 171.281 300.308 212C300.308 252.719 333.435 285.846 374.154 285.846H482.462V349.846C482.462 374.277 462.586 394.154 438.154 394.154H73.846C49.415 394.154 29.538 374.278 29.538 349.846V74.1536C29.538 49.7226 49.414 29.8456 73.846 29.8456H438.154C462.585 29.8456 482.462 49.7216 482.462 74.1536V138.154Z" fill="#278867"/>
<path d="M393.846 197.23H374.154C365.997 197.23 359.385 203.843 359.385 211.999C359.385 220.156 365.998 226.768 374.154 226.768H393.846C402.003 226.768 408.615 220.155 408.615 211.999C408.615 203.842 402.003 197.23 393.846 197.23Z" fill="#278867"/>
</svg>
