<?xml version="1.0" encoding="UTF-8"?>
<svg id="Layer_2" data-name="Layer 2" xmlns="http://www.w3.org/2000/svg" viewBox="0 0 146.41 41.65">
  <g id="Layer_1-2" data-name="Layer 1">
    <g>
      <path d="M71.7,20.65c0-5.96-.02-11.92,.02-17.88,0-1.03-.43-2.39,1.17-2.73,1.12-.24,1.74,.63,1.74,2.63,.02,11.8,.01,23.6,0,35.39,0,.86,.03,1.77-.21,2.57-.13,.45-.79,1-1.23,1.02-.45,.01-1.19-.49-1.32-.92-.24-.8-.17-1.71-.17-2.58-.01-5.84,0-11.67,0-17.51Z"/>
      <path d="M31.54,20.76c0-3.46,0-6.92,0-10.38,0-.74-.16-1.56,.11-2.2,.24-.56,.95-1.24,1.49-1.27,.56-.03,1.38,.53,1.67,1.06,.33,.59,.25,1.43,.25,2.16,.01,7.17,.01,14.34,0,21.5,0,.62,.02,1.25-.1,1.85-.19,.93-.72,1.57-1.78,1.52-1.04-.05-1.58-.61-1.61-1.64-.02-.86-.03-1.73-.03-2.59,0-3.34,0-6.67,0-10.01Z"/>
      <path d="M66.63,21.07c0,3.72,.01,7.44,0,11.16,0,.86,.04,1.77-.22,2.57-.14,.42-.9,.88-1.36,.86-.46-.02-1.08-.53-1.29-.98-.24-.52-.15-1.21-.15-1.83,0-7.82,0-15.63,0-23.45,0-.62-.14-1.33,.12-1.83,.28-.55,.97-1.27,1.44-1.24,.49,.03,1.17,.79,1.35,1.36,.25,.8,.12,1.72,.12,2.58,0,3.6,0,7.19,0,10.79Z"/>
      <path d="M79.4,20.95c0-3.96-.01-7.92,.01-11.88,0-.73,0-1.55,.33-2.15,.22-.4,1.03-.64,1.57-.64,.34,0,.81,.5,.98,.89,.19,.42,.15,.97,.15,1.46-.04,8.17-.06,16.34-.15,24.51-.01,.96,.51,2.55-1.26,2.5-1.74-.04-1.63-1.54-1.63-2.79,0-3.96,0-7.92,0-11.88Z"/>
      <path d="M122.44,21.11c0,2.73,0,5.45,0,8.18,0,.74,.13,1.57-.16,2.19-.25,.55-.96,1.09-1.56,1.21-.37,.08-1.07-.54-1.31-1.01-.26-.51-.23-1.2-.23-1.81-.01-5.95-.01-11.89,0-17.84,0-1.21-.22-2.63,1.52-2.9,1.2-.18,1.7,.68,1.72,3.06,.04,2.97,0,5.95,0,8.92Z"/>
      <path d="M111.38,20.67c0-3.58,0-7.16,0-10.75,0-.73-.06-1.54,.21-2.18,.18-.43,.91-.87,1.38-.85,.46,.02,1.07,.53,1.28,.98,.24,.52,.13,1.21,.13,1.82,0,7.41,0,14.82,0,22.23,0,.62,.01,1.24-.05,1.85-.1,.87-.65,1.27-1.52,1.25-.9-.03-1.34-.54-1.4-1.39-.05-.74-.04-1.48-.04-2.22,0-3.58,0-7.16,0-10.75Z"/>
      <path d="M135.33,20.7c0-3.6,0-7.2,0-10.79,0-.74-.02-1.51,.18-2.2,.1-.36,.69-.84,1.03-.82,.53,.02,1.32,.3,1.51,.7,.3,.62,.24,1.44,.24,2.18,.01,7.32,0,14.64,0,21.96,0,.25,0,.5,0,.74-.05,1.1,.15,2.35-1.47,2.53-1.07,.12-1.48-.46-1.5-2.39-.04-3.97-.01-7.94,0-11.91Z"/>
      <path d="M10.69,21.1c0,4.09,0,8.18,0,12.27,0,.77-.12,1.61-1.11,1.59-.54,0-1.13-.35-1.58-.7-.22-.17-.21-.68-.24-1.05-.04-.49-.03-.99-.03-1.49,0-7.19-.01-14.38,0-21.57,0-2.67,.54-3.66,1.8-3.28,1.84,.54,1.1,2.23,1.13,3.44,.09,3.59,.03,7.19,.03,10.79,0,0,0,0-.01,0Z"/>
      <path d="M26.93,20.97c0,2.98,.02,5.96-.02,8.93,0,.72-.05,1.54-.4,2.13-.23,.4-1.03,.63-1.57,.62-.32,0-.81-.58-.91-.97-.18-.71-.15-1.47-.15-2.21,0-5.71,0-11.41,0-17.12,0-.62,0-1.25,.07-1.86,.11-.8,.53-1.56,1.41-1.31,.58,.17,1.33,.83,1.43,1.38,.23,1.2,.12,2.47,.13,3.71,0,2.23,0,4.47,0,6.7Z"/>
      <path d="M58.53,21.33c0,2.72,0,5.44,0,8.16,0,.74,.07,1.53-.18,2.19-.17,.45-.85,1-1.28,.98-.46-.02-1.08-.56-1.31-1.03-.25-.51-.18-1.2-.19-1.81-.01-5.94,0-11.87,0-17.81,0-.37,0-.74,.02-1.11,.08-.95,.44-1.72,1.52-1.75,1.22-.03,1.38,.92,1.39,1.79,.04,3.46,.02,6.93,.02,10.39,0,0,.01,0,.02,0Z"/>
      <path d="M103.29,20.93c0-2.85-.01-5.7,0-8.56,0-.74-.05-1.54,.22-2.19,.19-.46,.89-.96,1.36-.97,.44,0,1.11,.54,1.28,.99,.25,.66,.18,1.46,.18,2.2,.01,5.71,0,11.41,0,17.12,0,.62,0,1.24-.07,1.86-.1,.81-.53,1.56-1.41,1.31-.59-.17-1.34-.81-1.45-1.36-.23-1.2-.12-2.47-.12-3.71,0-2.23,0-4.47,0-6.7Z"/>
      <path d="M39.7,20.53c0-2.72-.01-5.44,0-8.16,0-.74-.06-1.54,.2-2.19,.18-.45,.88-.96,1.33-.94,.46,.01,1.13,.55,1.3,1.01,.25,.66,.18,1.46,.18,2.19,.01,5.69,.02,11.38,0,17.07,0,.85-.08,1.73-.34,2.53-.1,.32-.78,.64-1.2,.63-.41,0-1.03-.35-1.16-.69-.25-.67-.29-1.44-.3-2.17-.03-3.09-.01-6.19-.01-9.28Z"/>
      <path d="M90.47,20.9c0,2.97,0,5.93,0,8.9,0,.49,.14,1.1-.09,1.45-.35,.54-.91,1.09-1.49,1.28-.26,.08-.97-.65-1.17-1.13-.22-.54-.1-1.22-.1-1.83-.03-5.81-.06-11.62-.08-17.43,0-.62-.09-1.3,.15-1.82,.22-.47,.82-1.03,1.27-1.05,.46-.02,1.17,.48,1.36,.93,.27,.65,.2,1.45,.21,2.18,.02,2.84,0,5.69,0,8.53-.02,0-.04,0-.06,0Z"/>
      <path d="M47.45,20.55c0-1.74-.03-3.48,.01-5.22,.02-.93,.36-1.74,1.47-1.8,1.24-.07,1.85,.64,1.86,1.81,.03,3.73,.02,7.45,0,11.18,0,1.21-.67,1.83-1.88,1.78-1.13-.05-1.44-.86-1.45-1.79-.04-1.99-.01-3.97-.01-5.96Z"/>
      <path d="M98.68,21.01c0,1.72,0,3.45,0,5.17,0,1.09-.3,1.96-1.55,2.11-1.15,.14-1.93-.56-1.96-2.12-.08-3.57-.06-7.15,.01-10.72,.02-1.03,.48-1.97,1.76-1.95,1.24,.02,1.71,.82,1.72,1.95,.01,1.85,0,3.7,0,5.54,0,0,0,0,.01,0Z"/>
      <path d="M146.37,20.95c0,1.48,.12,2.97-.06,4.42-.07,.54-.77,1.25-1.33,1.44-.96,.32-1.83-.33-1.87-1.27-.12-3.07-.12-6.15,.02-9.22,.02-.47,.93-1.15,1.52-1.28,.98-.21,1.65,.47,1.7,1.48,.07,1.47,.02,2.95,.02,4.43Z"/>
      <path d="M15.91,20.93c0-1.6-.08-3.21,.06-4.8,.04-.41,.72-.96,1.2-1.08,.77-.19,1.56,.15,1.57,1.09,.05,3.2,.05,6.41-.01,9.61-.02,.92-.82,1.28-1.59,1.09-.47-.12-1.14-.69-1.18-1.1-.14-1.59-.06-3.2-.06-4.8,0,0,0,0,0,0Z"/>
      <path d="M130.13,21.31c0,1.48,.09,2.96-.06,4.42-.04,.42-.69,1.02-1.16,1.12-.76,.17-1.56-.21-1.57-1.12-.06-3.2-.06-6.4,0-9.59,.01-.92,.8-1.29,1.57-1.1,.47,.11,1.13,.7,1.17,1.11,.13,1.71,.06,3.44,.06,5.16,0,0,0,0,0,0Z"/>
      <path d="M.04,20.74c0-1.49-.08-2.99,.05-4.46,.04-.45,.75-1.24,1.04-1.19,.61,.09,1.61,.63,1.63,1.02,.13,3.21,.13,6.44-.01,9.65-.02,.39-1.03,.93-1.63,1.02-.29,.05-1.01-.75-1.04-1.2-.13-1.6-.05-3.22-.05-4.84,0,0,.01,0,.02,0Z"/>
    </g>
  </g>
</svg>