<svg width="512" height="512" viewBox="0 0 512 512" fill="none" xmlns="http://www.w3.org/2000/svg">
<g clip-path="url(#clip0_145_4137)">
<path d="M396.898 299.648C360.399 299.648 330.705 269.955 330.705 233.455C330.705 196.956 360.399 167.262 396.898 167.262C433.398 167.262 463.092 196.956 463.092 233.455C463.093 269.954 433.398 299.648 396.898 299.648ZM396.898 191.261C373.633 191.261 354.704 210.189 354.704 233.455C354.704 256.721 373.632 275.648 396.898 275.648C420.163 275.648 439.092 256.721 439.092 233.455C439.092 210.189 420.164 191.261 396.898 191.261Z" fill="black"/>
<path d="M396.33 428.461H396.289C394.256 428.454 392.258 427.931 390.483 426.94C388.707 425.949 387.213 424.524 386.139 422.798L323.56 322.159C296.993 300.187 281.801 267.98 281.801 233.455C281.801 169.988 333.434 118.354 396.901 118.354C460.366 118.354 512.001 169.989 512.001 233.455C512.001 268.187 496.661 300.519 469.837 322.497L406.477 422.866C405.395 424.58 403.897 425.991 402.123 426.97C400.349 427.948 398.356 428.461 396.33 428.461ZM396.901 142.354C346.668 142.354 305.801 183.221 305.801 233.455C305.801 261.341 318.328 287.319 340.168 304.73C341.239 305.583 342.156 306.614 342.879 307.777L396.407 393.861L450.609 307.997C451.335 306.846 452.251 305.828 453.318 304.985C475.36 287.575 488.001 261.502 488.001 233.455C488 183.222 447.133 142.354 396.901 142.354ZM276.318 183.95H151.32C144.692 183.95 139.32 178.578 139.32 171.951V95.5397C139.32 88.9119 144.693 83.54 151.32 83.54H276.318C282.945 83.54 288.317 88.9127 288.317 95.5397V171.951C288.317 178.578 282.945 183.95 276.318 183.95ZM163.32 159.95H264.317V107.538H163.32V159.95Z" fill="black"/>
<path d="M396.33 428.461H31.3082C24.6804 428.461 19.3086 423.089 19.3086 416.461V294.207C19.3086 287.58 24.6813 282.207 31.3082 282.207H313.598C320.226 282.207 325.598 287.58 325.598 294.207C325.598 300.834 320.226 306.206 313.598 306.206H43.3087V404.461H396.33C402.958 404.461 408.33 409.832 408.33 416.46C408.33 423.088 402.958 428.461 396.33 428.461Z" fill="black"/>
<path d="M313.595 306.207H11.9996C5.3727 306.207 0 300.835 0 294.207V171.952C0 165.324 5.3727 159.952 11.9996 159.952H314.146C320.774 159.952 326.146 165.325 326.146 171.952C326.146 178.579 320.774 183.951 314.146 183.951H24.0001V282.207H313.595C320.221 282.207 325.594 287.578 325.594 294.206C325.594 300.834 320.221 306.207 313.595 306.207Z" fill="black"/>
<path d="M236.191 245.078H191.447C184.819 245.078 179.447 239.706 179.447 233.079C179.447 226.451 184.82 221.079 191.447 221.079H236.191C242.819 221.079 248.19 226.452 248.19 233.079C248.191 239.706 242.819 245.078 236.191 245.078Z" fill="black"/>
</g>
<defs>
<clipPath id="clip0_145_4137">
<rect width="512" height="512" fill="white"/>
</clipPath>
</defs>
</svg>
