<svg width="22" height="15" viewBox="0 0 22 15" fill="none" xmlns="http://www.w3.org/2000/svg">
<path d="M4.65364 2.98766L4.67467 11.2997C4.67825 12.7165 4.77462 13.2829 5.01048 13.2822L5.60977 13.2804C5.84562 13.2797 5.93912 12.7127 5.93554 11.2959L5.91451 2.98389C5.91093 1.56708 5.81456 1.00063 5.5787 1.00134L4.97941 1.00313C4.74356 1.00383 4.65005 1.57084 4.65364 2.98766Z" stroke="#278867" stroke-width="2" stroke-linecap="round" stroke-linejoin="round"/>
<path d="M17 2.93846V11.0615C17 12.4462 17.0753 13 17.2624 13H17.7376C17.9247 13 18 12.4462 18 11.0615V2.93846C18 1.55385 17.9247 1 17.7376 1H17.2624C17.0753 1 17 1.55385 17 2.93846Z" stroke="#278867" stroke-width="2" stroke-linecap="round" stroke-linejoin="round"/>
<path d="M16.4609 6.92102V7.35849C16.4609 7.43306 15.6999 7.46289 13.8091 7.46289L9.00483 7.46289C7.11405 7.46289 6.35298 7.43306 6.35298 7.35849V6.92102C6.35298 6.84645 7.11405 6.81662 9.00483 6.81662L13.8091 6.81662C15.6999 6.81662 16.4609 6.84645 16.4609 6.92102Z" stroke="#278867" stroke-width="2" stroke-linecap="round" stroke-linejoin="round"/>
<path d="M20 4.13077V8.86923C20 9.67692 20.0753 10 20.2624 10H20.7376C20.9247 10 21 9.67692 21 8.86923V4.13077C21 3.32308 20.9247 3 20.7376 3H20.2624C20.0753 3 20 3.32308 20 4.13077Z" stroke="#278867" stroke-linecap="round" stroke-linejoin="round"/>
<path d="M1.47266 4.13077L1.47266 8.86923C1.47266 9.67692 1.54795 10 1.73501 10H2.2103C2.39736 10 2.47266 9.67692 2.47266 8.86923L2.47266 4.13077C2.47266 3.32308 2.39736 3 2.2103 3H1.73501C1.54795 3 1.47266 3.32308 1.47266 4.13077Z" stroke="#278867" stroke-linecap="round" stroke-linejoin="round"/>
</svg>
